<?xml version="1.0" encoding="utf-8"?>
<svg viewBox="0 0 100 100" xmlns="http://www.w3.org/2000/svg">
<rect width="300" height="300" style="fill: rgb(59, 127, 255);" y="840" x="210"/>
<path d="M 210 1003 C 303 984 392 983 510 977 L 510 1140 L 210 1140 L 210 1003 Z" style="fill: rgba(185, 139, 64, 0.52);"/>
<path d="M 210 983 C 273 991 389 1001 510 980 L 510 1140 L 210 1140 L 210 983 Z" style="fill: rgba(185, 139, 64, 0.51);"/>
<path d="M 210 1024 C 288 1001 483 995 511 990 L 510 1140 L 210 1140 L 210 1024 Z" style="fill: rgba(185, 139, 64, 0.51);"/>
<path d="M 210 987 C 271 972 392 1028 510 1005 L 510 1140 L 210 1140 L 210 987 Z" style="fill: rgb(185, 139, 64);"/>
<rect width="100" height="100" style="fill: rgb(187, 139, 64);" y="-110" x="220"/>
<path d="M 237 -23 L 303 -23 L 307 -17 L 233 -17 L 237 -23 Z" style="fill: rgb(108, 74, 23);"/>
<path d="M 241 -41 L 299 -41 L 303 -35 L 237 -35 L 241 -41 Z" style="fill: rgb(151, 6, 6);"/>
<path d="M 237 -35 L 303 -35 L 301 -20 L 239 -20 L 237 -35 Z" style="fill: rgb(151, 111, 42);"/>
<rect x="233" y="13" width="74" height="4" style="fill: rgb(152, 112, 42);" transform="matrix(1, 0, 0, -1, 0, 0)"/>
<path d="M 241 -50 C 241 -52 299 -54 299 -50 C 301 -50 305 -43 301 -41 L 239 -41 C 235 -43 239 -50 241 -50 Z" style="fill: rgb(176, 9, 9);"/>
<ellipse style="fill: rgb(199, 9, 8);" cx="237" rx="4" ry="8" cy="-41"/>
<ellipse style="fill: rgb(199, 9, 8);" cx="303" rx="4" ry="8" cy="-41"/>
<path style="fill: rgb(223, 210, 179);" d="M 272 -70 L 268 -74 L 258 -70 L 254 -50 L 262 -45 L 251 -44 C 247 -44 247 -39 253 -37 L 266 -33 L 272 -37 L 278 -33 L 291 -37 C 297 -39 297 -44 293 -44 L 284 -45 L 289 -57 L 295 -62 L 285 -71 L 276 -74 L 272 -70 Z"/>
<path style="fill: rgb(72, 49, 14);" d="M 266 -81 L 262 -89 C 262 -105 282 -105 282 -89 L 278 -81 L 266 -81 Z"/>
<path style="fill: rgb(110, 74, 23);" d="M 268 -79 L 268 -74 L 272 -68 L 276 -74 L 276 -79 L 268 -79 Z"/>
<path style="fill: rgb(72, 49, 14);" d="M 276 -39 L 268 -37 C 268 -37 266 -30 266 -30 L 272 -35 L 278 -34 L 276 -39 Z"/>
<path style="fill: rgb(110, 74, 23);" d="M 267 -39 L 276 -35 L 274 -25 L 270 -33 L 266 -34 L 267 -39 Z"/>
<path style="fill: rgb(111, 75, 22);" d="M 266 -79 L 265 -89 C 265 -93 279 -93 279 -89 L 278 -79 L 266 -79 Z"/>
<path style="fill: rgb(72, 49, 14);" d="M 266 -79 L 272 -72 L 278 -79 C 278 -83 266 -83 266 -79 Z"/>
<path style="fill: rgb(248, 226, 30);" d="M 262 -89 L 260 -103 L 266 -97 L 272 -107 L 278 -97 L 284 -103 L 282 -89 C 282 -95 262 -95 262 -89 Z"/>
<path style="fill: rgb(112, 76, 22);" d="M 254 -50 L 265 -43 L 274 -41 L 274 -43 L 272 -43 L 272 -44 L 268 -44 L 260 -52 L 254 -50 Z"/>
<path style="fill: rgb(113, 77, 21);" d="M 295 -62 L 290 -47 L 290 -41 L 287 -40 L 286 -44 L 284 -45 L 287 -47 L 289 -57 L 295 -62 Z"/>
<rect width="100" height="100" style="fill: rgb(187, 139, 64);" x="770"/>
<path style="fill: rgb(72, 49, 14);" d="M 797 44 L 806 46 L 817 43 L 811 47 L 817 48 L 830 44 L 821 49 L 825 50 L 840 48 L 830 52 L 837 57 L 852 55 L 854 72 C 854 72 846 62 846 61 C 846 60 835 61 835 61 L 830 66 L 834 75 L 847 76 L 829 81 L 826 68 L 819 63 L 810 77 L 814 60 L 811 58 L 803 71 L 807 56 L 803 53 L 795 63 L 800 51 L 791 45 L 789 31 L 806 20 L 830 36 L 803 31 L 795 34 L 797 44 Z"/>
<rect width="100" height="100" style="fill: rgb(187, 139, 64);" x="1210"/>
<path style="fill: rgb(151, 7, 5); transform-origin: 1259px 53.2575px;" d="M 1223 43 C 1237 27 1261 48 1289 40 C 1294 38 1302 57 1298 59 C 1261 69 1248 46 1227 64 C 1223 64 1220 46 1223 43 Z"/>
<path style="fill: rgb(199, 9, 8); transform-origin: 1259.1px 53.0255px;" d="M 1224 43 C 1237 28 1262 48 1288 41 C 1293 39 1300 57 1296 58 C 1262 68 1247 45 1227 62 C 1224 62 1221 45 1224 43 Z"/>
<rect width="300" height="300" style="fill: rgb(15, 32, 65);" y="1150" x="-100"/>
<path d="M -100 1320 L 16 1301 L 41 1310 L 91 1305 L 200 1319 L 200 1450 L -100 1450 L -100 1320 Z" style="fill: rgb(8, 19, 38);"/>
<path d="M -100 1317 C -62 1311 157 1323 200 1321 L 200 1450 L -100 1450 L -100 1317 Z" style="fill: rgb(118, 89, 39);"/>
<circle style="fill: rgb(248, 227, 28);" cx="379" cy="946" r="4"/>
<rect width="300" height="300" style="fill: rgb(59, 127, 255);" y="530" x="-100"/>
<rect width="300" height="170" style="fill: rgb(186, 139, 64);" y="660" x="-100"/>
<path style="fill: rgb(109, 74, 23);" d="M -100 679 L 58 674 L 200 678 L 200 656 L 58 657 L -100 654 L -100 679 Z"/>
<path style="fill: rgb(208, 180, 116);" d="M 58 691 L 58 666 L 105 666 L 105 691 C 105 696 66 699 58 691 Z"/>
<path style="fill: rgb(223, 210, 179);" d="M 82 650 L 58 666 L 105 666 L 82 650 Z"/>
<path style="fill: rgb(167, 125, 56);" d="M 68 695 L 68 670 L 82 670 L 82 696 L 68 695 Z"/>
<path style="fill: rgb(208, 180, 116);" d="M -9 687 L -9 665 L 32 665 L 32 687 C 21 692 -9 692 -9 687 Z"/>
<path style="fill: rgb(223, 210, 179);" d="M 12 650 L -9 665 L 32 665 L 12 650 Z"/>
<path style="fill: rgb(167, 125, 56);" d="M 12 691 L 12 668 L 22 668 L 22 690 L 12 691 Z"/>
<rect width="300" height="300" style="fill: rgb(59, 127, 255);" x="-100" y="220"/>
<rect width="300" height="162" style="fill: rgb(186, 139, 64);" y="358" x="-100"/>
<path style="fill: rgb(108, 74, 23);" d="M -100 365 L 62 361 L 200 361 L 200 357 L -100 358 L -100 365 Z"/>
<path d="M 32 372 L 67 372 L 93 397 L 6 397 L 32 372 Z" style="fill: rgb(167, 125, 56);"/>
<path d="M 3 342 L 7 341 L 14 342 L 28 368 L 9 371 L -11 368 L 3 342 Z" style="fill: rgb(107, 74, 23);"/>
<path d="M 9 371 L 7 341 L 14 342 L 28 368 L 9 371 Z" style="fill: rgb(150, 110, 43);"/>
<path style="fill: rgb(224, 209, 179);" d="M 72 354 C 72 354 74 348 74 348 L 77 354 L 81 354 C 81 354 83 350 83 350 L 85 354 L 93 354 C 93 354 95 350 95 350 L 97 354 L 101 354 L 104 349 L 106 355 L 108 363 L 100 364 L 69 362 L 72 354 Z"/>
<path style="fill: rgb(72, 49, 14);" d="M 69 695 L 69 671 L 81 671 L 81 696 L 69 695 Z"/>
<path style="fill: rgb(72, 49, 14);" d="M 13 691 L 13 669 L 21 669 L 21 690 L 13 691 Z"/>
<path style="fill: rgb(168, 126, 56);" d="M 13 691 L 33 707 L -100 783 L -100 820 L 51 724 L 200 830 L 200 784 L 71 709 L 81 696 L 69 695 L 48 700 L 21 690 L 13 691 Z"/>
<circle style="fill: rgb(248, 227, 28);" cx="76" cy="637" r="3"/>
<path style="fill: rgb(255, 255, 255);" d="M 53 643 L 90 644 C 102 644 83 632 71 640 C 61 630 42 643 53 643 Z"/>
<path style="fill: rgb(255, 255, 255);" d="M 40 643 L 10 643 C 0 643 19 630 29 639 C 36 628 49 643 40 643 Z"/>
<path style="fill: rgb(168, 126, 56);" d="M 36 687 L 34 662 L 37 663 L 38 687 L 36 687 Z"/>
<path style="fill: rgb(168, 126, 56);" d="M 53 690 L 54 666 L 56 665 L 55 690 L 53 690 Z"/>
<path style="fill: rgb(223, 210, 179);" d="M 57 665 C 57 670 33 665 33 662 L 40 660 L 50 661 L 57 665 Z"/>
<rect width="100" height="100" style="fill: rgb(187, 139, 64);" x="220"/>
<path d="M 237 87 L 303 87 L 307 93 L 233 93 L 237 87 Z" style="fill: rgb(108, 74, 23);"/>
<path d="M 241 69 L 299 69 L 303 75 L 237 75 L 241 69 Z" style="fill: rgb(151, 6, 6);"/>
<path d="M 237 75 L 303 75 L 301 90 L 239 90 L 237 75 Z" style="fill: rgb(151, 111, 42);"/>
<path d="M 234 97 L 306 97 L 307 93 L 233 93 L 234 97 Z" style="fill: rgb(152, 112, 42);"/>
<path d="M 241 60 C 245 59 295 59 299 60 C 301 63 301 69 301 69 L 239 69 C 239 69 239 63 241 60 Z" style="fill: rgb(176, 9, 9);"/>
<ellipse style="fill: rgb(199, 9, 8);" cx="237" rx="4" ry="8" cy="69"/>
<ellipse style="fill: rgb(199, 9, 8);" cx="303" rx="4" ry="8" cy="69"/>
<path style="fill: rgb(223, 210, 179);" d="M 271 45 L 266 36 L 256 40 L 252 60 L 260 63 L 249 66 C 245 66 245 71 251 73 L 264 77 L 270 73 L 276 77 L 289 73 C 295 71 295 66 291 66 L 281 63 L 289 60 L 284 40 L 274 36 L 271 45 Z"/>
<path style="fill: rgb(72, 49, 14);" d="M 264 27 L 261 21 C 261 5 279 5 279 21 L 276 27 L 264 27 Z"/>
<path style="fill: rgb(110, 74, 23);" d="M 266 31 L 266 36 L 271 45 L 274 36 L 274 31 L 266 31 Z"/>
<path style="fill: rgb(72, 49, 14);" d="M 274 71 L 266 73 C 266 73 264 80 264 80 L 270 75 L 276 76 L 274 71 Z"/>
<path style="fill: rgb(110, 74, 23);" d="M 265 71 L 274 75 L 272 85 L 268 77 L 264 76 L 265 71 Z"/>
<path style="fill: rgb(111, 75, 22);" d="M 264 30 L 263 22 C 268 15 277 18 277 22 L 276 30 L 264 30 Z"/>
<path style="fill: rgb(72, 49, 14);" d="M 264 30 L 270 38 L 276 30 C 276 26 264 26 264 30 Z"/>
<path style="fill: rgb(248, 227, 28);" d="M 261 21 L 258 7 L 265 14 L 270 3 L 275 14 L 282 7 L 279 21 C 279 15 261 15 261 21 Z"/>
<path style="fill: rgb(112, 76, 22);" d="M 252 60 L 263 67 L 272 69 L 272 67 L 270 67 L 270 66 L 266 66 L 258 58 L 252 60 Z"/>
<path style="fill: rgb(112, 76, 22);" d="M 289 60 L 278 67 L 269 69 L 269 67 L 271 67 L 271 66 L 275 66 L 283 58 L 289 60 Z"/>
<rect width="100" height="100" style="fill: rgb(187, 139, 64);" y="-110" x="330"/>
<path style="fill: rgb(114, 78, 21);" d="M 373 -28 L 374 -16 L 369 -12 L 373 -11 L 378 -15 L 378 -27 L 373 -28 Z"/>
<path style="fill: rgb(114, 78, 21); transform-origin: 387.214px -19.4138px;" d="M 388 -26 L 387 -16 L 392 -12 L 387 -11 L 383 -15 L 383 -27 L 388 -26 Z"/>
<path style="fill: rgb(223, 210, 179);" d="M 378 -107 L 373 -104 L 371 -96 L 373 -86 L 368 -83 L 373 -59 L 372 -28 L 390 -24 L 388 -58 L 391 -84 L 385 -87 L 387 -96 L 384 -105 L 378 -107 Z"/>
<path style="fill: rgb(112, 76, 22);" d="M 376 -103 L 373 -98 L 376 -90 L 379 -88 L 383 -90 L 385 -97 L 382 -103 L 376 -103 Z"/>
<path style="fill: rgb(113, 77, 21);" d="M 368 -83 L 364 -64 L 367 -47 L 370 -39 L 370 -46 L 372 -44 L 369 -49 L 368 -62 L 371 -70 L 368 -83 Z"/>
<path style="fill: rgb(113, 77, 21); transform-origin: 392.803px -60.0079px;" d="M 391 -83 L 397 -64 L 395 -48 L 392 -40 L 392 -46 L 390 -45 L 393 -49 L 393 -63 L 389 -71 L 391 -83 Z"/>
<rect width="100" height="100" style="fill: rgb(187, 139, 64);" x="330"/>
<path style="fill: rgb(114, 78, 21);" d="M 371 81 L 369 94 L 364 98 L 368 99 L 373 95 L 376 82 L 371 81 Z"/>
<path style="fill: rgb(114, 78, 21); transform-origin: 387.214px 90.5862px;" d="M 391 84 L 393 94 L 398 98 L 394 99 L 389 95 L 386 83 L 391 84 Z"/>
<path style="fill: rgb(223, 210, 179);" d="M 378 1 L 372 6 L 370 16 L 374 23 L 367 28 L 370 38 L 372 51 L 370 82 L 392 85 L 388 52 L 390 37 L 392 28 L 386 23 L 388 15 L 385 5 L 378 1 Z"/>
<path style="fill: rgb(112, 76, 22);" d="M 375 6 L 373 11 L 376 20 L 379 22 L 383 20 L 385 11 L 382 7 L 375 6 Z"/>
<path style="fill: rgb(113, 77, 21);" d="M 367 28 L 363 48 L 366 64 L 369 72 L 369 65 L 371 67 L 368 62 L 368 49 L 371 40 L 367 28 Z"/>
<path style="fill: rgb(113, 77, 21);" d="M 392 28 L 397 46 L 394 62 L 391 70 L 391 64 L 389 65 L 392 61 L 392 47 L 389 39 L 392 28 Z"/>
<rect width="100" height="100" style="fill: rgb(187, 139, 64);" x="660"/>
<rect width="100" height="100" style="fill: rgb(187, 139, 64);" x="440"/>
<path style="fill: rgb(114, 78, 21);" d="M 493 41 L 502 44 L 501 52 L 497 64 L 509 58 L 512 63 L 501 77 L 505 81 L 501 83 L 496 78 L 498 75 L 483 75 L 484 78 L 478 81 L 473 79 L 479 77 L 468 62 L 472 57 L 485 64 L 480 51 L 478 44 L 487 41 L 487 39 L 484 32 L 485 29 L 495 28 L 496 32 L 493 39 L 493 41 Z"/>
<path style="fill: rgb(223, 210, 179);" d="M 485 29 L 484 22 L 496 23 L 495 28 L 485 29 Z"/>
<path style="fill: rgb(223, 210, 179);" d="M 497 64 L 485 64 L 472 57 L 468 62 L 479 77 L 483 75 L 498 75 L 501 77 L 512 63 L 509 58 L 497 64 Z"/>
<path style="fill: rgb(113, 77, 21);" d="M 476 55 L 481 51 L 478 44 L 469 56 L 484 65 L 486 69 L 487 66 L 485 62 L 476 55 Z"/>
<path style="fill: rgb(113, 77, 21);" d="M 505 55 L 500 52 L 502 44 L 512 56 L 495 66 L 492 69 L 491 66 L 495 62 L 505 55 Z"/>
<rect width="100" height="100" style="fill: rgb(187, 139, 64);" x="550"/>
<path style="fill: rgb(114, 78, 21);" d="M 590 81 L 591 93 L 586 97 L 590 98 L 595 94 L 595 82 L 590 81 Z"/>
<path style="fill: rgb(114, 78, 21);" d="M 610 81 L 611 94 L 616 98 L 612 99 L 607 95 L 605 83 L 610 81 Z"/>
<path style="fill: rgb(33, 71, 141);" d="M 580 44 L 592 51 L 588 87 L 598 88 L 600 84 L 604 89 L 613 87 L 608 51 L 621 47 L 616 35 L 585 34 L 580 44 Z"/>
<path style="fill: rgb(199, 9, 8);" d="M 584 34 L 590 51 L 590 59 L 587 79 L 596 82 L 600 63 L 605 84 L 614 81 L 610 59 L 610 51 L 617 35 L 607 26 L 593 25 L 584 34 Z"/>
<path style="fill: rgb(113, 77, 21);" d="M 581 44 L 581 49 L 583 66 L 586 74 L 586 68 L 588 69 L 585 64 L 585 51 L 587 48 L 581 44 Z"/>
<path style="fill: rgb(199, 9, 8);" d="M 591 10 L 594 16 L 606 16 L 610 11 L 608 7 L 600 4 L 593 6 L 591 10 Z"/>
<path style="fill: rgb(223, 210, 179);" d="M 592 25 L 594 13 L 599 11 L 606 13 L 608 26 L 612 30 L 600 27 L 588 30 L 592 25 Z"/>
<path style="fill: rgb(112, 76, 22);" d="M 600 13 L 595 15 L 595 21 L 600 19 L 605 21 L 605 15 L 600 13 Z"/>
<path style="fill: rgb(72, 49, 14);" d="M 590 52 L 601 54 L 610 52 L 610 58 L 601 59 L 590 57 L 590 52 Z"/>
<path style="fill: rgb(216, 216, 216);" d="M 561 53 L 561 90 L 563 93 L 565 90 L 564 53 L 569 53 C 569 53 569 51 569 51 L 556 51 L 556 53 L 561 53 Z"/>
<path style="fill: rgb(114, 78, 21);" d="M 561 51 L 561 42 L 564 42 L 564 51 L 561 51 Z"/>
<path style="fill: rgb(216, 216, 216);" d="M 606 58 L 624 90 L 627 92 L 627 88 L 608 57 L 613 54 C 613 54 612 53 612 53 L 600 59 L 601 60 L 606 58 Z"/>
<path style="fill: rgb(72, 49, 14);" d="M 605 57 L 601 50 L 603 49 L 608 56 L 605 57 Z"/>
<path style="fill: rgb(113, 77, 21);" d="M 620 47 L 620 50 L 618 67 L 615 75 L 615 69 L 613 70 L 616 65 L 616 52 L 614 49 L 620 47 Z"/>
<rect width="100" height="100" style="fill: rgb(187, 139, 64);" x="990"/>
<path style="fill: rgb(101, 101, 101);" d="M 1033 80 L 1034 30 L 1036 28 L 1049 27 L 1050 30 L 1052 80 L 1052 91 L 1058 97 L 1047 95 L 1046 78 L 1043 72 L 1040 79 L 1041 96 L 1030 98 L 1036 92 L 1033 80 Z"/>
<path style="fill: rgb(239, 239, 239);" d="M 1030 32 L 1032 40 L 1033 58 L 1032 81 L 1042 84 L 1044 65 L 1045 85 L 1054 82 L 1051 57 L 1053 39 L 1055 31 L 1050 29 L 1043 33 L 1034 29 L 1030 32 Z"/>
<path style="fill: rgb(216, 216, 216);" d="M 1036 28 L 1034 11 L 1041 7 L 1050 12 L 1049 28 L 1043 29 L 1036 28 Z"/>
<path style="fill: rgb(60, 60, 60);" d="M 1039 18 L 1036 16 L 1048 16 L 1045 18 L 1039 18 Z"/>
<path style="fill: rgb(239, 239, 239);" d="M 1017 57 L 1017 94 L 1019 97 L 1021 94 L 1020 57 L 1025 59 C 1025 59 1025 55 1025 55 L 1012 55 L 1012 59 L 1017 57 Z"/>
<path style="fill: rgb(60, 60, 60);" d="M 1017 55 L 1017 46 L 1020 46 L 1020 55 L 1017 55 Z"/>
<path style="fill: rgb(101, 101, 101);" d="M 1025 46 L 1026 38 L 1030 32 L 1033 41 L 1030 49 L 1022 54 L 1020 55 L 1020 51 L 1017 50 L 1020 49 L 1022 50 L 1025 46 Z"/>
<path style="fill: rgb(199, 9, 8);" d="M 1042 52 L 1041 46 L 1036 46 L 1036 43 L 1041 42 L 1041 36 L 1044 36 L 1044 42 L 1049 43 L 1049 45 L 1044 46 L 1045 52 L 1042 52 Z"/>
<rect width="100" height="100" style="fill: rgb(187, 139, 64);" y="-110" x="990"/>
<path style="fill: rgb(101, 101, 101); transform-origin: 1041px -47.5px;" d="M 1052 -30 L 1051 -80 L 1049 -82 L 1036 -83 L 1035 -80 L 1033 -30 L 1033 -19 L 1027 -13 L 1038 -15 L 1039 -32 L 1042 -38 L 1045 -31 L 1044 -14 L 1055 -12 L 1049 -18 L 1052 -30 Z"/>
<path style="fill: rgb(239, 239, 239); transform-origin: 1042.5px -53px;" d="M 1055 -78 L 1053 -70 L 1052 -52 L 1053 -29 L 1043 -26 L 1041 -45 L 1040 -25 L 1031 -28 L 1034 -53 L 1032 -71 L 1030 -79 L 1035 -81 L 1042 -77 L 1051 -81 L 1055 -78 Z"/>
<path style="fill: rgb(216, 216, 216);" d="M 1049 -82 L 1051 -99 L 1044 -103 L 1035 -98 L 1036 -82 L 1042 -81 L 1049 -82 Z"/>
<path style="fill: rgb(60, 60, 60);" d="M 1046 -92 L 1049 -94 L 1037 -94 L 1040 -92 L 1046 -92 Z"/>
<path style="fill: rgb(101, 101, 101);" d="M 1061 -58 L 1059 -72 L 1055 -78 L 1052 -69 L 1055 -58 L 1055 -48 L 1052 -45 L 1055 -45 L 1053 -41 L 1058 -43 L 1061 -58 Z"/>
<path style="fill: rgb(101, 101, 101);" d="M 1024 -59 L 1026 -73 L 1030 -79 L 1033 -70 L 1030 -59 L 1030 -49 L 1032 -46 L 1030 -46 L 1031 -42 L 1027 -44 L 1024 -59 Z"/>
<path style="fill: rgb(199, 9, 8);" d="M 1043 -58 L 1044 -64 L 1049 -64 L 1049 -67 L 1044 -68 L 1044 -74 L 1041 -74 L 1041 -68 L 1036 -67 L 1036 -65 L 1041 -64 L 1040 -58 L 1043 -58 Z"/>
<path style="fill: rgb(216, 216, 216);" d="M 1049 75 L 1049 57 L 1068 52 L 1071 73 L 1062 97 L 1049 75 Z"/>
<path style="fill: rgb(60, 60, 60);" d="M 1033 59 L 1033 56 L 1051 54 L 1051 58 L 1033 59 Z"/>
<path style="fill: rgb(101, 101, 101);" d="M 1061 54 L 1059 37 L 1055 31 L 1052 40 L 1055 51 L 1047 55 L 1045 60 L 1047 64 L 1049 59 L 1061 54 Z"/>
<path style="fill: rgb(199, 9, 8);" d="M 1060 85 L 1059 70 L 1053 70 L 1053 67 L 1059 66 L 1058 59 L 1062 58 L 1062 65 L 1067 64 L 1067 67 L 1063 69 L 1062 85 L 1060 85 Z"/>
<path style="fill: rgb(101, 101, 101);" d="M 1016 55 L 1016 51 L 1019 51 L 1020 55 L 1016 55 Z"/>
<rect width="100" height="100" style="fill: rgb(187, 139, 64);" x="1100"/>
<path style="fill: rgb(242, 134, 76);" d="M 1159 80 L 1158 92 L 1163 96 L 1159 97 L 1154 93 L 1154 81 L 1159 80 Z"/>
<path style="fill: rgb(242, 134, 76);" d="M 1139 80 L 1138 93 L 1133 97 L 1137 98 L 1142 94 L 1144 82 L 1139 80 Z"/>
<path style="fill: rgb(77, 51, 16);" d="M 1135 32 L 1142 24 L 1152 24 L 1160 32 L 1162 34 L 1159 56 L 1162 90 L 1135 88 L 1138 55 L 1133 35 L 1135 32 Z"/>
<path style="fill: rgb(241, 134, 76);" d="M 1143 27 L 1141 15 L 1146 11 L 1152 14 L 1153 22 L 1150 27 L 1143 27 Z"/>
<path style="fill: rgb(110, 74, 23);" d="M 1134 32 L 1146 41 L 1161 32 L 1152 24 L 1154 28 L 1147 31 L 1141 28 L 1142 24 L 1134 32 Z"/>
<path style="fill: rgb(111, 75, 22);" d="M 1131 55 L 1133 35 L 1137 51 L 1148 54 L 1147 61 L 1141 58 L 1131 55 Z"/>
<path style="fill: rgb(111, 75, 22);" d="M 1165 55 L 1162 35 L 1159 46 L 1159 51 L 1147 53 L 1149 61 L 1154 57 L 1165 55 Z"/>
<path style="fill: rgb(216, 216, 216);" d="M 639 25 L 635 7 L 633 5 L 631 8 L 636 26 L 631 25 C 631 25 632 27 632 27 L 638 28 L 643 24 L 643 22 L 639 25 Z"/>
<path style="fill: rgb(72, 49, 14);" d="M 639 26 L 641 34 L 639 35 L 636 27 L 639 26 Z"/>
<circle style="fill: rgb(216, 216, 216);" cx="640" cy="35" r="2"/>
<circle style="fill: rgb(255, 255, 255);" cx="61" cy="1264" r="6"/>
<circle style="fill: rgb(14, 33, 65);" cx="58" cy="1266" r="6"/>
<rect width="100" height="100" style="fill: rgb(187, 139, 64);" x="880"/>
<path style="fill: rgb(114, 78, 21);" d="M 914 61 L 910 93 L 903 97 L 909 98 L 916 95 L 917 81 L 921 68 L 926 80 L 927 94 L 934 96 L 938 94 L 932 91 L 932 80 L 929 59 L 914 61 Z"/>
<path style="fill: rgb(70, 47, 15);" d="M 920 6 L 914 16 L 916 25 L 909 31 L 913 57 L 910 83 L 932 72 L 931 56 L 934 31 L 929 27 L 932 17 L 929 8 L 920 6 Z"/>
<path style="fill: rgb(112, 76, 22);" d="M 925 12 L 917 16 L 919 24 L 926 26 L 929 16 L 925 12 Z"/>
<path style="fill: rgb(113, 77, 21);" d="M 909 31 L 904 52 L 907 68 L 910 76 L 910 69 L 912 71 L 909 66 L 909 53 L 912 44 L 909 31 Z"/>
<path style="fill: rgb(216, 216, 216);" d="M 952 52 L 962 22 L 959 17 L 956 20 L 949 51 L 944 47 C 944 47 944 50 944 50 L 950 54 L 957 55 L 958 53 L 952 52 Z"/>
<path style="fill: rgb(70, 47, 15);" d="M 945 62 L 948 53 L 951 54 L 947 63 L 945 62 Z"/>
<path style="fill: rgb(113, 77, 21);" d="M 934 31 L 938 49 L 948 54 L 949 56 L 948 57 L 947 56 L 946 59 L 944 56 L 933 53 L 932 44 L 934 31 Z"/>
<path style="fill: rgb(114, 78, 21);" d="M 946 59 L 949 55 L 951 56 L 949 60 L 946 59 Z"/>
<path style="fill: rgb(223, 210, 179);" d="M 753 23 L 753 19 L 746 15 L 738 14 L 726 27 L 719 30 L 702 22 L 686 28 L 675 39 L 673 62 L 675 86 L 680 88 L 677 84 L 678 64 L 682 55 L 681 62 L 689 82 L 689 85 L 694 85 L 691 82 L 686 63 L 690 51 L 703 54 L 717 53 L 716 67 L 715 87 L 719 88 L 717 83 L 720 68 L 723 54 L 727 68 L 734 85 L 738 85 L 735 82 L 730 66 L 728 52 L 738 43 L 744 24 L 753 23 Z"/>
<rect width="300" height="300" style="fill: rgb(59, 127, 255);" y="1460" x="-100"/>
<path d="M -100 1605 L 16 1586 L 41 1595 L 91 1590 L 200 1604 L 200 1760 L -100 1760 L -100 1605 Z" style="fill: rgb(36, 78, 155);"/>
<rect width="300" height="153" style="fill: rgb(186, 139, 64);" y="1607" x="-100"/>
<path style="fill: rgb(114, 78, 21);" d="M 36 1610 L 36 1599 L 37 1600 L 36 1610 Z"/>
<path style="fill: rgb(208, 180, 116);" d="M 49 1612 L 76 1614 L 62 1598 L 49 1612 Z"/>
<path style="fill: rgb(114, 78, 21);" d="M 59 1617 L 60 1596 L 62 1595 L 61 1617 L 59 1617 Z"/>
<path style="fill: rgb(223, 210, 179);" d="M 26 1612 L 36 1601 C 41 1604 49 1600 62 1598 L 45 1618 L 26 1612 Z"/>
<rect width="100" height="100" style="fill: rgb(59, 127, 255);" x="1210" y="-110"/>
<path style="fill: rgb(151, 7, 5); transform-origin: 1259px -55.34px;" d="M 1223 -66 C 1237 -82 1261 -61 1289 -69 C 1294 -71 1302 -52 1298 -50 C 1261 -40 1248 -63 1227 -45 C 1223 -45 1220 -63 1223 -66 Z"/>
<path style="fill: rgb(199, 9, 8); transform-origin: 1259.1px -55.572px;" d="M 1224 -66 C 1237 -81 1262 -61 1288 -68 C 1293 -70 1300 -52 1296 -51 C 1262 -41 1247 -64 1227 -47 C 1224 -47 1221 -64 1224 -66 Z"/>
<path style="fill: rgb(255, 255, 255);" d="M 1238 -19 L 1296 -17 C 1315 -17 1284 -45 1267 -27 C 1251 -48 1222 -19 1238 -19 Z"/>
<path style="fill: rgb(255, 255, 255); transform-origin: 1248.4px -92.596px;" d="M 1270 -88 L 1226 -88 C 1211 -88 1239 -107 1254 -94 C 1264 -110 1283 -88 1270 -88 Z"/>
<rect width="100" height="100" style="fill: rgb(187, 139, 64);" x="880" y="-110"/>
<path style="fill: rgb(114, 78, 21); transform-origin: 935.5px -31.5px;" d="M 942 -49 L 945 -19 L 951 -15 L 946 -14 L 939 -17 L 938 -31 L 935 -42 L 930 -30 L 929 -16 L 922 -14 L 918 -16 L 924 -19 L 924 -30 L 927 -51 L 942 -49 Z"/>
<path style="fill: rgb(70, 47, 15);" d="M 932 -98 L 927 -90 L 927 -80 L 920 -77 L 924 -55 L 922 -29 L 935 -33 L 945 -32 L 945 -55 L 948 -77 L 941 -80 L 943 -91 L 940 -96 L 932 -98 Z"/>
<path style="fill: rgb(112, 76, 22);" d="M 935 -95 L 930 -89 L 931 -80 L 938 -80 L 941 -91 L 935 -95 Z"/>
<path style="fill: rgb(113, 77, 21); transform-origin: 949px -56px;" d="M 948 -77 L 954 -59 L 951 -43 L 947 -38 L 948 -42 L 946 -42 L 949 -45 L 949 -58 L 946 -65 L 948 -77 Z"/>
<path style="fill: rgb(70, 47, 15);" d="M 909 -16 L 907 -101 L 909 -101 L 911 -16 L 909 -16 Z"/>
<path style="fill: rgb(113, 77, 21); transform-origin: 917.944px -51.4887px;" d="M 920 -77 L 915 -62 L 910 -54 L 907 -53 L 908 -52 L 910 -52 L 910 -49 L 913 -53 L 919 -58 L 923 -65 L 920 -77 Z"/>
<path style="fill: rgb(114, 78, 21);" d="M 909 -48 L 909 -51 L 906 -52 L 907 -48 L 909 -48 Z"/>
<path style="fill: rgb(216, 216, 216); transform-origin: 891.569px -57.5399px;" d="M 906 -99 L 910 -101 L 908 -108 L 906 -99 Z"/>
<rect width="100" height="100" style="fill: rgb(187, 139, 64);" x="330" y="-220"/>
<path style="fill: rgb(114, 78, 21);" d="M 390 -138 L 391 -130 L 395 -129 L 392 -124 L 388 -124 L 385 -137 L 390 -138 Z"/>
<path style="fill: rgb(114, 78, 21);" d="M 370 -135 L 369 -129 L 365 -128 L 368 -123 L 372 -123 L 375 -136 L 370 -135 Z"/>
<path style="fill: rgb(113, 77, 21);" d="M 394 -191 L 398 -171 L 393 -156 L 390 -148 L 390 -155 L 388 -153 L 391 -158 L 393 -170 L 390 -179 L 394 -191 Z"/>
<path style="fill: rgb(113, 77, 21);" d="M 369 -191 L 364 -173 L 368 -157 L 371 -149 L 371 -155 L 373 -154 L 370 -158 L 369 -172 L 372 -180 L 369 -191 Z"/>
<path style="fill: rgb(223, 210, 179);" d="M 383 -218 L 389 -213 L 391 -203 L 387 -196 L 394 -191 L 391 -181 L 389 -168 L 391 -137 L 369 -134 L 373 -167 L 371 -182 L 369 -191 L 375 -196 L 373 -204 L 376 -214 L 383 -218 Z"/>
<rect width="100" height="100" style="fill: rgb(187, 139, 64);" x="550" y="-110"/>
<path style="fill: rgb(114, 78, 21); transform-origin: 632.082px -31.8604px;" d="M 627 -38 L 635 -29 L 633 -23 L 636 -24 L 639 -31 L 631 -40 L 627 -38 Z"/>
<path style="fill: rgb(114, 78, 21); transform-origin: 639.862px -55.0012px;" d="M 631 -56 L 643 -53 L 649 -56 L 648 -52 L 643 -49 L 631 -51 L 631 -56 Z"/>
<path style="fill: rgb(72, 49, 14); transform-origin: 605.228px -27.6203px;" d="M 610 -35 L 605 -30 L 606 -28 L 612 -33 L 610 -35 Z"/>
<path style="fill: rgb(216, 216, 216); transform-origin: 612.1px -35.5338px;" d="M 611 -36 L 635 -59 L 638 -59 L 638 -56 L 613 -34 L 616 -31 L 614 -30 L 607 -38 L 609 -39 L 611 -36 Z"/>
<path style="fill: rgb(33, 71, 141); transform-origin: 609.5px -53.5px;" d="M 586 -40 L 594 -48 L 630 -33 L 634 -40 L 629 -48 L 635 -49 L 640 -56 L 601 -64 L 601 -78 L 589 -76 L 578 -48 L 586 -40 Z"/>
<path style="fill: rgb(199, 9, 8); transform-origin: 602.5px -55.5px;" d="M 577 -48 L 596 -47 L 603 -44 L 621 -35 L 627 -38 L 614 -56 L 627 -55 L 626 -60 L 610 -63 L 602 -66 L 589 -77 L 579 -72 L 578 -63 L 574 -56 L 577 -48 Z"/>
<path style="fill: rgb(113, 77, 21); transform-origin: 590.972px -30.6981px;" d="M 592 -46 L 593 -41 L 601 -28 L 603 -29 L 602 -27 L 605 -25 L 603 -23 L 599 -27 L 589 -38 L 587 -41 L 592 -46 Z"/>
<path style="fill: rgb(72, 49, 14); transform-origin: 603px -54.5px;" d="M 597 -46 L 602 -52 L 606 -65 L 610 -63 L 608 -51 L 601 -45 L 597 -46 Z"/>
<path style="fill: rgb(113, 77, 21); transform-origin: 612.55px -69.0516px;" d="M 601 -76 L 604 -76 L 621 -76 L 627 -71 L 622 -73 L 622 -70 L 618 -75 L 605 -71 L 601 -70 L 601 -76 Z"/>
<path style="fill: rgb(199, 9, 8); transform-origin: 558.436px -67.6848px;" d="M 556 -77 L 563 -76 L 567 -65 L 563 -60 L 557 -60 L 552 -66 L 553 -74 L 556 -77 Z"/>
<path style="fill: rgb(223, 210, 179); transform-origin: 565.936px -71.1848px;" d="M 568 -81 L 557 -75 L 557 -69 L 562 -64 L 568 -66 L 572 -65 L 569 -74 L 573 -80 L 568 -81 Z"/>
<path style="fill: rgb(112, 76, 22); transform-origin: 562.936px -70.6848px;" d="M 559 -70 L 559 -75 L 566 -78 L 564 -73 L 566 -71 L 563 -66 L 559 -70 Z"/>
<rect width="100" height="100" style="fill: rgb(187, 139, 64);" x="550" y="-220"/>
<path style="fill: rgb(114, 78, 21); transform-origin: 632.082px -141.86px;" d="M 627 -148 L 635 -139 L 633 -133 L 636 -134 L 639 -141 L 631 -150 L 627 -148 Z"/>
<path style="fill: rgb(114, 78, 21); transform-origin: 639.862px -165.001px;" d="M 631 -166 L 643 -163 L 649 -166 L 648 -162 L 643 -159 L 631 -161 L 631 -166 Z"/>
<path style="fill: rgb(72, 49, 14); transform-origin: 605.228px -137.62px;" d="M 610 -145 L 605 -140 L 606 -138 L 612 -143 L 610 -145 Z"/>
<path style="fill: rgb(216, 216, 216); transform-origin: 612.1px -145.534px;" d="M 611 -146 L 635 -169 L 638 -169 L 638 -166 L 613 -144 L 616 -141 L 614 -140 L 607 -148 L 609 -149 L 611 -146 Z"/>
<path style="fill: rgb(33, 71, 141); transform-origin: 609.5px -163.5px;" d="M 586 -150 L 594 -158 L 630 -143 L 634 -150 L 629 -158 L 635 -159 L 640 -166 L 601 -174 L 601 -188 L 589 -184 L 583 -182 L 577 -172 L 580 -160 L 586 -150 Z"/>
<path style="fill: rgb(199, 9, 8); transform-origin: 602.5px -165.5px;" d="M 579 -160 L 596 -157 L 603 -154 L 621 -145 L 627 -148 L 614 -166 L 627 -165 L 626 -170 L 610 -173 L 602 -176 L 585 -166 L 577 -172 L 579 -160 Z"/>
<path style="fill: rgb(199, 9, 8); transform-origin: 562.557px -173.93px;" d="M 565 -183 L 569 -179 L 569 -169 L 565 -165 L 558 -167 L 556 -176 L 561 -182 L 565 -183 Z"/>
<path style="fill: rgb(223, 210, 179); transform-origin: 573.023px -172.944px;" d="M 579 -180 L 567 -180 L 564 -175 L 566 -168 L 576 -166 L 578 -164 L 577 -172 L 583 -182 L 579 -180 Z"/>
<path style="fill: rgb(112, 76, 22); transform-origin: 570.189px -174.047px;" d="M 567 -175 L 569 -179 L 574 -179 L 572 -175 L 573 -173 L 569 -169 L 567 -175 Z"/>
<path style="fill: rgb(113, 77, 21); transform-origin: 590.972px -140.698px;" d="M 592 -156 L 593 -151 L 601 -138 L 603 -139 L 602 -137 L 605 -135 L 603 -133 L 599 -137 L 589 -148 L 587 -151 L 592 -156 Z"/>
<path style="fill: rgb(72, 49, 14); transform-origin: 603px -164.5px;" d="M 597 -156 L 602 -162 L 606 -175 L 610 -173 L 608 -161 L 601 -155 L 597 -156 Z"/>
<path style="fill: rgb(113, 77, 21); transform-origin: 612.55px -179.052px;" d="M 601 -186 L 604 -186 L 621 -186 L 627 -181 L 622 -183 L 622 -180 L 618 -185 L 605 -181 L 601 -180 L 601 -186 Z"/>
<rect width="100" height="100" style="fill: rgb(187, 139, 64);" x="550" y="-330"/>
<path style="fill: rgb(114, 78, 21); transform-origin: 635.756px -259.702px;" d="M 630 -265 L 640 -258 L 639 -252 L 642 -253 L 643 -261 L 633 -268 L 630 -265 Z"/>
<path style="fill: rgb(114, 78, 21); transform-origin: 637.61px -284.046px;" d="M 629 -283 L 641 -283 L 646 -287 L 646 -283 L 642 -279 L 630 -278 L 629 -283 Z"/>
<path style="fill: rgb(33, 71, 141); transform-origin: 608.548px -275.128px;" d="M 589 -257 L 595 -266 L 633 -261 L 635 -268 L 629 -275 L 634 -277 L 637 -285 L 598 -284 L 598 -291 L 586 -286 L 580 -283 L 575 -276 L 580 -264 L 589 -257 Z"/>
<path style="fill: rgb(199, 9, 8); transform-origin: 601.271px -275.347px;" d="M 580 -264 L 595 -266 L 605 -264 L 624 -260 L 630 -265 L 612 -279 L 625 -281 L 623 -286 L 607 -285 L 598 -286 L 590 -277 L 578 -269 L 580 -264 Z"/>
<path style="fill: rgb(199, 9, 8); transform-origin: 560.481px -273.701px;" d="M 561 -283 L 565 -280 L 569 -269 L 565 -266 L 558 -266 L 554 -274 L 557 -281 L 561 -283 Z"/>
<path style="fill: rgb(223, 210, 179); transform-origin: 570.869px -275.318px;" d="M 567 -281 L 564 -280 L 562 -275 L 568 -269 L 578 -269 L 575 -276 L 581 -279 L 571 -282 L 567 -281 Z"/>
<path style="fill: rgb(112, 76, 22); transform-origin: 567.851px -275.69px;" d="M 565 -276 L 567 -281 L 571 -282 L 569 -277 L 570 -272 L 565 -276 Z"/>
<path style="fill: rgb(113, 77, 21); transform-origin: 600.916px -252.269px;" d="M 592 -263 L 595 -261 L 608 -258 L 611 -260 L 612 -258 L 615 -259 L 614 -255 L 609 -256 L 594 -256 L 590 -259 L 592 -263 Z"/>
<path style="fill: rgb(72, 49, 14); transform-origin: 602.002px -274.5px;" d="M 598 -265 L 602 -275 L 602 -285 L 607 -284 L 602 -264 L 598 -265 Z"/>
<path style="fill: rgb(113, 77, 21); transform-origin: 605.569px -278.682px;" d="M 598 -291 L 601 -289 L 616 -282 L 619 -274 L 616 -278 L 614 -276 L 613 -282 L 600 -284 L 596 -285 L 598 -291 Z"/>
<path style="fill: rgb(239, 239, 239);" d="M 1183 57 L 1183 68 L 1187 68 L 1186 57 L 1191 57 L 1191 54 L 1186 54 L 1186 48 L 1183 48 L 1183 54 L 1178 54 L 1178 57 L 1183 57 Z"/>
<ellipse style="fill: rgb(176, 9, 10);" cx="490" cy="90" rx="14" ry="6"/>
<ellipse style="fill: rgb(199, 9, 8);" cx="490" cy="89" rx="11" ry="4"/>
<rect width="100" height="100" style="fill: rgb(187, 139, 64);" x="440" y="-110"/>
<path style="fill: rgb(72, 49, 14);" d="M 487 -76 L 487 -69 L 478 -66 L 480 -59 L 485 -46 L 472 -53 L 468 -48 L 479 -33 L 473 -31 L 478 -29 L 484 -32 L 483 -35 L 498 -35 L 496 -32 L 501 -27 L 505 -29 L 501 -33 L 512 -47 L 509 -52 L 497 -46 L 501 -58 L 502 -66 L 493 -69 L 493 -76 L 487 -76 Z"/>
<path style="fill: rgb(112, 76, 22);" d="M 495 -82 L 496 -78 L 494 -72 L 490 -69 L 486 -72 L 484 -78 L 485 -81 L 495 -82 Z"/>
<path style="fill: rgb(223, 210, 179);" d="M 485 -81 L 483 -90 L 496 -89 L 495 -82 L 485 -81 Z"/>
<path style="fill: rgb(223, 210, 179);" d="M 497 -46 L 485 -46 L 472 -53 L 468 -48 L 479 -33 L 483 -35 L 498 -35 L 501 -33 L 512 -47 L 509 -52 L 497 -46 Z"/>
<path style="fill: rgb(113, 77, 21);" d="M 476 -55 L 480 -59 L 478 -66 L 469 -54 L 484 -45 L 486 -41 L 487 -44 L 485 -48 L 476 -55 Z"/>
<path style="fill: rgb(113, 77, 21);" d="M 505 -55 L 501 -58 L 502 -66 L 512 -54 L 495 -44 L 492 -41 L 491 -44 L 495 -48 L 505 -55 Z"/>
<ellipse style="fill: rgb(176, 9, 10);" cx="490" rx="14" ry="6" cy="-20"/>
<ellipse style="fill: rgb(199, 9, 8);" cx="490" cy="-21" rx="11" ry="4"/>
<rect width="300" height="300" style="fill: rgb(59, 127, 255);" y="840" x="520"/>
<path d="M 520 995 L 635 978 L 664 992 L 711 987 L 820 1010 L 820 1140 L 520 1140 L 520 995 Z" style="fill: rgb(36, 78, 155);"/>
<path d="M 520 987 C 581 972 702 1028 820 1005 L 820 1140 L 520 1140 L 520 987 Z" style="fill: rgb(185, 139, 64);"/>
<rect width="300" height="300" style="fill: rgb(59, 127, 255);" y="840" x="-100"/>
<path d="M -100 985 L 17 972 L 40 979 L 68 979 L 91 972 L 200 985 L 200 1140 L -100 1140 L -100 985 Z" style="fill: rgb(36, 78, 155);"/>
<path d="M -100 977 C -39 962 77 995 200 989 L 200 1140 L -100 1140 L -100 977 Z" style="fill: rgb(185, 139, 64);"/>
<rect width="300" height="300" style="fill: rgb(59, 127, 255);" y="1460" x="210"/>
<path d="M 210 1605 L 326 1586 L 351 1595 L 401 1590 L 510 1604 L 510 1760 L 210 1760 L 210 1605 Z" style="fill: rgb(36, 78, 155);"/>
<path style="fill: rgb(114, 78, 21);" d="M 332 1606 L 332 1595 L 333 1596 L 332 1606 Z"/>
<path d="M 210 1607 C 248 1601 451 1617 510 1607 L 510 1760 L 210 1760 L 210 1607 Z" style="fill: rgb(185, 139, 64);"/>
<path style="fill: rgb(208, 180, 116);" d="M 358 1611 L 384 1614 L 370 1598 L 358 1611 Z"/>
<path style="fill: rgb(114, 78, 21);" d="M 367 1617 L 368 1596 L 370 1595 L 369 1617 L 367 1617 Z"/>
<path style="fill: rgb(223, 210, 179);" d="M 322 1608 L 332 1597 C 337 1600 357 1600 370 1598 L 353 1618 L 322 1608 Z"/>
<rect width="300" height="300" style="fill: rgb(15, 32, 65);" y="1150" x="210"/>
<path d="M 210 1320 L 326 1301 L 351 1310 L 401 1305 L 510 1319 L 510 1450 L 210 1450 L 210 1320 Z" style="fill: rgb(8, 19, 38);"/>
<path d="M 210 1317 C 248 1311 467 1323 510 1321 L 510 1450 L 210 1450 L 210 1317 Z" style="fill: rgb(118, 89, 39);"/>
<circle style="fill: rgb(255, 255, 255);" cx="365" cy="1279" r="1"/>
<circle style="fill: rgb(255, 255, 255);" cx="395" cy="1259" r="1"/>
<circle style="fill: rgb(255, 255, 255);" cx="325" cy="1269" r="1"/>
<circle style="fill: rgb(255, 255, 255);" cx="345" cy="1257" r="1"/>
<circle style="fill: rgb(255, 255, 255);" cx="384" cy="1269" r="1"/>
<circle style="fill: rgb(255, 255, 255);" cx="371" cy="1264" r="6"/>
<circle style="fill: rgb(14, 33, 65);" cx="368" cy="1266" r="6"/>
<circle style="fill: rgb(255, 255, 255);" cx="335" cy="1285" r="1"/>
<circle style="fill: rgb(255, 255, 255);" cx="397" r="1" cy="1290"/>
<circle style="fill: rgb(255, 255, 255);" cx="314" cy="1294" r="1"/>
<path style="fill: rgb(223, 210, 179);" d="M 356 1297 L 354 1296 L 351 1295 L 346 1300 L 344 1301 L 338 1297 L 332 1300 L 329 1305 L 329 1313 L 330 1320 L 332 1320 L 331 1319 L 330 1314 L 331 1309 L 332 1313 L 335 1319 L 335 1320 L 336 1320 L 336 1319 L 333 1313 L 334 1308 L 339 1309 L 344 1308 L 343 1313 L 343 1320 L 344 1320 L 343 1318 L 345 1314 L 346 1308 L 347 1314 L 350 1319 L 351 1319 L 350 1318 L 348 1313 L 348 1308 L 351 1304 L 353 1298 L 356 1297 Z"/>
<path style="fill: rgb(223, 210, 179); transform-origin: 381.5px 1311.5px;" d="M 396 1303 L 395 1302 L 392 1300 L 386 1305 L 384 1305 L 379 1300 L 372 1303 L 368 1307 L 367 1315 L 367 1322 L 369 1322 L 368 1321 L 368 1316 L 370 1311 L 370 1315 L 372 1322 L 372 1323 L 373 1323 L 373 1322 L 371 1316 L 373 1311 L 378 1312 L 383 1312 L 381 1317 L 380 1324 L 381 1324 L 381 1322 L 383 1318 L 385 1312 L 385 1319 L 387 1324 L 388 1324 L 387 1323 L 386 1318 L 387 1313 L 390 1309 L 393 1304 L 396 1303 Z"/>
<rect width="300" height="300" style="fill: rgb(59, 127, 255);" y="2080" x="-100"/>
<path d="M -100 2225 L -10 2219 L 9 2202 L 21 2210 L 32 2199 L 52 2225 L 200 2227 L 200 2380 L -100 2380 L -100 2225 Z" style="fill: rgb(36, 78, 155);"/>
<rect width="300" height="153" style="fill: rgb(186, 139, 64);" y="2227" x="-100"/>
<path d="M 69 2210 L 68 2209 L 70 2206 L 72 2209 L 71 2210 L 71 2223 L 76 2221 L 85 2223 L 87 2218 L 86 2216 L 89 2213 L 92 2216 L 91 2218 L 93 2223 L 103 2225 L 103 2213 L 104 2210 L 105 2213 L 106 2230 L 91 2231 L 90 2229 L 89 2229 L 88 2231 L 81 2231 L 68 2229 L 69 2210 Z" style="fill: rgb(72, 49, 14);"/>
<rect width="300" height="300" style="fill: rgb(72, 49, 14);" y="1770" x="-100"/>
<path d="M -100 1949 L 8 1935 L 2 1874 L 7 1873 L 15 1934 L 30 1932 L 59 1939 L 65 1878 L 70 1877 L 63 1940 L 87 1946 L 200 1931 L 200 2070 L -100 2070 L -100 1949 Z" style="fill: rgb(169, 126, 56);"/>
<path d="M 8 1948 L 33 1936 L 47 1933 L 62 1936 L 87 1951 L 53 1949 L 28 1952 L 8 1948 Z" style="fill: rgb(248, 228, 27);"/>
<path style="fill: none; stroke: rgb(223, 210, 179);" d="M 43 1875 L 43 1894 L 46 1911 L 46 1927"/>
<path d="M 200 2070 L -100 2070 L -100 1770 L 200 1770 L 200 2070 Z M 90 1962 L 102 1917 L 92 1886 L 80 1960 L 90 1962 Z M 25 1964 L 69 1961 L 72 1958 L 83 1884 L 72 1880 L 52 1884 L 29 1875 L 25 1878 L 22 1961 L 25 1964 Z M 5 1959 L 10 1964 L 13 1961 L 16 1878 L 13 1875 L 3 1878 L -7 1917 L 5 1959 Z" style="fill: rgb(187, 139, 64);"/>
<path d="M 13 1878 L 10 1876 L 3 1878 L -6 1909 L 8 1976 L -28 2004 L -13 1830 L 116 1852 L 123 1999 L 85 1962 L 90 1953 L 95 1917 L 92 1889 L 80 1960 L 80 1964 L 89 1967 L 54 1968 L 11 1975 L 9 1964 L 12 1961 L 13 1878 Z M 69 1961 L 72 1958 L 82 1884 L 72 1881 L 51 1882 L 26 1876 L 22 1878 L 22 1961 L 25 1964 L 54 1967 L 69 1961 Z M 14 1878 L 14 1961 L 11 1964 L 11 1973 L 50 1968 L 25 1964 L 21 1961 L 21 1878 L 26 1874 L 51 1880 L 72 1879 L 84 1884 L 72 1958 L 69 1961 L 56 1967 L 85 1967 L 79 1964 L 79 1960 L 92 1883 L 97 1917 L 90 1953 L 87 1962 L 121 1997 L 116 1852 L -13 1832 L -26 2002 L 6 1976 L -8 1909 L 3 1878 L 10 1874 L 14 1878 Z" style="fill: none;"/>
<path d="M 13 1878 L 10 1876 L 3 1878 L -6 1909 L 8 1976 L -28 2004 L -13 1830 L 116 1852 L 123 1999 L 85 1962 L 90 1953 L 95 1917 L 92 1889 L 80 1960 L 80 1964 L 89 1967 L 54 1968 L 11 1975 L 9 1964 L 12 1961 L 13 1878 Z M 69 1961 L 72 1958 L 82 1884 L 72 1881 L 51 1882 L 26 1876 L 22 1878 L 22 1961 L 25 1964 L 54 1967 L 69 1961 Z M 14 1878 L 14 1961 L 11 1964 L 11 1973 L 50 1968 L 25 1964 L 21 1961 L 21 1878 L 26 1874 L 51 1880 L 72 1879 L 84 1884 L 72 1958 L 69 1961 L 56 1967 L 85 1967 L 79 1964 L 79 1960 L 92 1883 L 97 1917 L 90 1953 L 87 1962 L 121 1997 L 116 1852 L -13 1832 L -26 2002 L 6 1976 L -8 1909 L 3 1878 L 10 1874 L 14 1878 Z" style="fill: none;"/>
<rect width="300" height="300" style="fill: rgb(51, 109, 217);" y="2390" x="-100"/>
<rect width="300" height="165" style="fill: rgb(27, 80, 54);" y="2525" x="-100"/>
<path d="M 171 2525 L -51 2525 L -6 2522 L 34 2513 L 40 2516 L 95 2504 L 171 2525 Z" style="fill: rgb(115, 128, 155);"/>
<path d="M 29 2525 L 6 2530 L -9 2526 L -1 2502 L 3 2521 L 7 2506 L 10 2519 L 16 2502 L 21 2519 L 24 2504 L 29 2525 Z" style="fill: rgb(17, 48, 32);"/>
<rect width="300" height="300" style="fill: rgb(59, 127, 255);" y="2700" x="-100"/>
<path d="M 140 2847 L -82 2847 L -37 2844 L 28 2831 L 43 2838 L 60 2825 L 140 2847 Z" style="fill: rgb(169, 126, 56);"/>
<rect width="300" height="153" style="fill: rgb(223, 210, 179);" y="2847" x="-100"/>
<path d="M 39 2861 L 32 2859 L 25 2860 L 31 2856 L 33 2827 L 29 2823 L 22 2821 L 27 2821 L 21 2814 L 26 2818 L 26 2815 L 27 2819 L 34 2825 L 41 2817 L 39 2821 L 43 2824 L 38 2822 L 35 2827 L 34 2856 L 39 2861 Z" style="fill: rgb(72, 49, 14);"/>
<path d="M 73 2244 L 93 2236 L 88 2231 L 89 2229 L 90 2229 L 91 2231 L 97 2236 L 84 2245 L 69 2380 L -87 2380 L 73 2244 Z" style="fill: rgb(169, 126, 56);"/>
<path d="M -310 2490 L -210 2490 L -210 2590 L -310 2590 L -310 2490 Z M -410 2690 L -110 2690 L -110 2390 L -410 2390 L -410 2690 Z" style="fill: rgba(0, 0, 0, 0.78);"/>
<path d="M 95 2529 L 92 2536 L 72 2542 L 47 2538 L 37 2531 L 41 2527 L 49 2526 L 88 2527 L 95 2529 Z" style="fill: rgb(59, 127, 255);"/>
<path d="M 88 2530 L 64 2534 L 49 2530 L 49 2513 L 52 2503 L 54 2513 L 54 2520 L 63 2519 L 63 2501 L 66 2498 L 69 2501 L 69 2518 L 84 2519 L 84 2509 L 86 2501 L 88 2509 L 88 2530 Z" style="fill: rgb(154, 171, 206);"/>
</svg>