<?xml version="1.0" encoding="utf-8"?>
<svg viewBox="0 0 100 100" xmlns="http://www.w3.org/2000/svg">
<rect width="100" height="100" style="fill: rgb(187, 139, 64);" y="-110" x="220"/>
<path d="M 237 -23 L 303 -23 L 307 -17 L 233 -17 L 237 -23 Z" style="fill: rgb(108, 74, 23);"/>
<path d="M 241 -41 L 299 -41 L 303 -35 L 237 -35 L 241 -41 Z" style="fill: rgb(151, 6, 6);"/>
<path d="M 237 -35 L 303 -35 L 301 -20 L 239 -20 L 237 -35 Z" style="fill: rgb(151, 111, 42);"/>
<rect x="233" y="13" width="74" height="4" style="fill: rgb(152, 112, 42);" transform="matrix(1, 0, 0, -1, 0, 0)"/>
<path d="M 241 -50 C 241 -52 299 -54 299 -50 C 301 -50 305 -43 301 -41 L 239 -41 C 235 -43 239 -50 241 -50 Z" style="fill: rgb(176, 9, 9);"/>
<ellipse style="fill: rgb(199, 9, 8);" cx="237" rx="4" ry="8" cy="-41"/>
<ellipse style="fill: rgb(199, 9, 8);" cx="303" rx="4" ry="8" cy="-41"/>
<path style="fill: rgb(223, 210, 179);" d="M 272 -70 L 268 -74 L 258 -70 L 254 -50 L 262 -45 L 251 -44 C 247 -44 247 -39 253 -37 L 266 -33 L 272 -37 L 278 -33 L 291 -37 C 297 -39 297 -44 293 -44 L 284 -45 L 289 -57 L 295 -62 L 285 -71 L 276 -74 L 272 -70 Z"/>
<path style="fill: rgb(72, 49, 14);" d="M 266 -81 L 262 -89 C 262 -105 282 -105 282 -89 L 278 -81 L 266 -81 Z"/>
<path style="fill: rgb(110, 74, 23);" d="M 268 -79 L 268 -74 L 272 -68 L 276 -74 L 276 -79 L 268 -79 Z"/>
<path style="fill: rgb(72, 49, 14);" d="M 276 -39 L 268 -37 C 268 -37 266 -30 266 -30 L 272 -35 L 278 -34 L 276 -39 Z"/>
<path style="fill: rgb(110, 74, 23);" d="M 267 -39 L 276 -35 L 274 -25 L 270 -33 L 266 -34 L 267 -39 Z"/>
<path style="fill: rgb(111, 75, 22);" d="M 266 -79 L 265 -89 C 265 -93 279 -93 279 -89 L 278 -79 L 266 -79 Z"/>
<path style="fill: rgb(72, 49, 14);" d="M 266 -79 L 272 -72 L 278 -79 C 278 -83 266 -83 266 -79 Z"/>
<path style="fill: rgb(248, 226, 30);" d="M 262 -89 L 260 -103 L 266 -97 L 272 -107 L 278 -97 L 284 -103 L 282 -89 C 282 -95 262 -95 262 -89 Z"/>
<path style="fill: rgb(112, 76, 22);" d="M 254 -50 L 265 -43 L 274 -41 L 274 -43 L 272 -43 L 272 -44 L 268 -44 L 260 -52 L 254 -50 Z"/>
<path style="fill: rgb(113, 77, 21);" d="M 295 -62 L 290 -47 L 290 -41 L 287 -40 L 286 -44 L 284 -45 L 287 -47 L 289 -57 L 295 -62 Z"/>
<rect width="100" height="100" style="fill: rgb(187, 139, 64);" x="770"/>
<path style="fill: rgb(72, 49, 14);" d="M 797 44 L 806 46 L 817 43 L 811 47 L 817 48 L 830 44 L 821 49 L 825 50 L 840 48 L 830 52 L 837 57 L 852 55 L 854 72 C 854 72 846 62 846 61 C 846 60 835 61 835 61 L 830 66 L 834 75 L 847 76 L 829 81 L 826 68 L 819 63 L 810 77 L 814 60 L 811 58 L 803 71 L 807 56 L 803 53 L 795 63 L 800 51 L 791 45 L 789 31 L 806 20 L 830 36 L 803 31 L 795 34 L 797 44 Z"/>
<rect width="100" height="100" style="fill: rgb(187, 139, 64);" x="1320" y="-220"/>
<path style="fill: rgb(151, 7, 5); transform-origin: 1369px -166.743px;" d="M 1335 -152 C 1335 -173 1367 -172 1384 -196 C 1387 -201 1405 -191 1403 -187 C 1380 -156 1356 -166 1351 -138 C 1348 -136 1334 -148 1335 -152 Z"/>
<path style="fill: rgb(199, 9, 8); transform-origin: 1368.93px -166.986px;" d="M 1335 -153 C 1336 -173 1368 -173 1384 -195 C 1387 -199 1403 -190 1401 -186 C 1381 -157 1355 -166 1350 -140 C 1347 -138 1334 -149 1335 -153 Z"/>
<rect width="300" height="300" style="fill: rgb(15, 32, 65);" y="840" x="-100"/>
<path d="M -100 1010 L 16 998 L 53 1001 L 91 995 L 200 1009 L 200 1140 L -100 1140 L -100 1010 Z" style="fill: rgb(8, 19, 38);"/>
<path d="M -100 1007 C -62 1001 157 1013 200 1011 L 200 1140 L -100 1140 L -100 1007 Z" style="fill: rgb(118, 89, 39);"/>
<rect width="300" height="300" style="fill: rgb(59, 127, 255);" y="530" x="-100"/>
<rect width="300" height="170" style="fill: rgb(186, 139, 64);" y="660" x="-100"/>
<path style="fill: rgb(109, 74, 23);" d="M -100 679 L 58 674 L 200 678 L 200 656 L 58 657 L -100 654 L -100 679 Z"/>
<path style="fill: rgb(208, 180, 116);" d="M 58 691 L 58 666 L 105 666 L 105 691 C 105 696 66 699 58 691 Z"/>
<path style="fill: rgb(223, 210, 179);" d="M 82 650 L 58 666 L 105 666 L 82 650 Z"/>
<path style="fill: rgb(167, 125, 56);" d="M 68 695 L 68 670 L 82 670 L 82 696 L 68 695 Z"/>
<path style="fill: rgb(208, 180, 116);" d="M -9 687 L -9 665 L 32 665 L 32 687 C 21 692 -9 692 -9 687 Z"/>
<path style="fill: rgb(223, 210, 179);" d="M 12 650 L -9 665 L 32 665 L 12 650 Z"/>
<path style="fill: rgb(167, 125, 56);" d="M 12 691 L 12 668 L 22 668 L 22 690 L 12 691 Z"/>
<rect width="300" height="300" style="fill: rgb(59, 127, 255);" x="-100" y="220"/>
<rect width="300" height="162" style="fill: rgb(186, 139, 64);" y="358" x="-100"/>
<path style="fill: rgb(108, 74, 23);" d="M -100 365 L 62 361 L 200 361 L 200 357 L -100 358 L -100 365 Z"/>
<path d="M 32 372 L 67 372 L 93 397 L 6 397 L 32 372 Z" style="fill: rgb(167, 125, 56);"/>
<path d="M 3 342 L 7 341 L 14 342 L 28 368 L 9 371 L -11 368 L 3 342 Z" style="fill: rgb(107, 74, 23);"/>
<path d="M 9 371 L 7 341 L 14 342 L 28 368 L 9 371 Z" style="fill: rgb(150, 110, 43);"/>
<path style="fill: rgb(224, 209, 179);" d="M 72 354 C 72 354 74 348 74 348 L 77 354 L 81 354 C 81 354 83 350 83 350 L 85 354 L 93 354 C 93 354 95 350 95 350 L 97 354 L 101 354 L 104 349 L 106 355 L 108 363 L 100 364 L 69 362 L 72 354 Z"/>
<path style="fill: rgb(72, 49, 14);" d="M 69 695 L 69 671 L 81 671 L 81 696 L 69 695 Z"/>
<path style="fill: rgb(72, 49, 14);" d="M 13 691 L 13 669 L 21 669 L 21 690 L 13 691 Z"/>
<path style="fill: rgb(168, 126, 56);" d="M 13 691 L 33 707 L -100 783 L -100 820 L 51 724 L 200 830 L 200 784 L 71 709 L 81 696 L 69 695 L 48 700 L 21 690 L 13 691 Z"/>
<circle style="fill: rgb(248, 227, 28);" cx="76" cy="637" r="3"/>
<path style="fill: rgb(168, 126, 56);" d="M 36 687 L 34 662 L 37 663 L 38 687 L 36 687 Z"/>
<path style="fill: rgb(168, 126, 56);" d="M 53 690 L 54 666 L 56 665 L 55 690 L 53 690 Z"/>
<path style="fill: rgb(223, 210, 179);" d="M 57 665 C 57 670 33 665 33 662 L 45 659 L 57 665 Z"/>
<rect width="100" height="100" style="fill: rgb(187, 139, 64);" x="220"/>
<path d="M 237 87 L 303 87 L 307 93 L 233 93 L 237 87 Z" style="fill: rgb(108, 74, 23);"/>
<path d="M 241 69 L 299 69 L 303 75 L 237 75 L 241 69 Z" style="fill: rgb(151, 6, 6);"/>
<path d="M 237 75 L 303 75 L 301 90 L 239 90 L 237 75 Z" style="fill: rgb(151, 111, 42);"/>
<path d="M 234 97 L 306 97 L 307 93 L 233 93 L 234 97 Z" style="fill: rgb(152, 112, 42);"/>
<path d="M 241 60 C 245 59 295 59 299 60 C 301 63 301 69 301 69 L 239 69 C 239 69 239 63 241 60 Z" style="fill: rgb(176, 9, 9);"/>
<ellipse style="fill: rgb(199, 9, 8);" cx="237" rx="4" ry="8" cy="69"/>
<ellipse style="fill: rgb(199, 9, 8);" cx="303" rx="4" ry="8" cy="69"/>
<path style="fill: rgb(223, 210, 179);" d="M 271 45 L 266 36 L 256 40 L 252 60 L 260 63 L 249 66 C 245 66 245 71 251 73 L 264 77 L 270 73 L 276 77 L 289 73 C 295 71 295 66 291 66 L 281 63 L 289 60 L 284 40 L 274 36 L 271 45 Z"/>
<path style="fill: rgb(72, 49, 14);" d="M 264 27 L 261 21 C 261 5 279 5 279 21 L 276 27 L 264 27 Z"/>
<path style="fill: rgb(110, 74, 23);" d="M 266 31 L 266 36 L 271 45 L 274 36 L 274 31 L 266 31 Z"/>
<path style="fill: rgb(72, 49, 14);" d="M 274 71 L 266 73 C 266 73 264 80 264 80 L 270 75 L 276 76 L 274 71 Z"/>
<path style="fill: rgb(110, 74, 23);" d="M 265 71 L 274 75 L 272 85 L 268 77 L 264 76 L 265 71 Z"/>
<path style="fill: rgb(111, 75, 22);" d="M 264 30 L 263 22 C 268 15 277 18 277 22 L 276 30 L 264 30 Z"/>
<path style="fill: rgb(72, 49, 14);" d="M 264 30 L 270 38 L 276 30 C 276 26 264 26 264 30 Z"/>
<path style="fill: rgb(248, 227, 28);" d="M 261 21 L 258 7 L 265 14 L 270 3 L 275 14 L 282 7 L 279 21 C 279 15 261 15 261 21 Z"/>
<path style="fill: rgb(112, 76, 22);" d="M 252 60 L 263 67 L 272 69 L 272 67 L 270 67 L 270 66 L 266 66 L 258 58 L 252 60 Z"/>
<path style="fill: rgb(112, 76, 22);" d="M 289 60 L 278 67 L 269 69 L 269 67 L 271 67 L 271 66 L 275 66 L 283 58 L 289 60 Z"/>
<rect width="100" height="100" style="fill: rgb(187, 139, 64);" x="330"/>
<path style="fill: rgb(114, 78, 21);" d="M 371 81 L 369 94 L 364 98 L 368 99 L 373 95 L 376 82 L 371 81 Z"/>
<path style="fill: rgb(114, 78, 21); transform-origin: 387.214px 90.5862px;" d="M 391 84 L 393 94 L 398 98 L 394 99 L 389 95 L 386 83 L 391 84 Z"/>
<path style="fill: rgb(223, 210, 179);" d="M 378 1 L 372 6 L 370 16 L 374 23 L 367 28 L 370 38 L 372 51 L 370 82 L 392 85 L 388 52 L 390 37 L 392 28 L 386 23 L 388 15 L 385 5 L 378 1 Z"/>
<path style="fill: rgb(112, 76, 22);" d="M 375 6 L 373 11 L 376 20 L 379 22 L 383 20 L 385 11 L 382 7 L 375 6 Z"/>
<path style="fill: rgb(113, 77, 21);" d="M 367 28 L 363 48 L 366 64 L 369 72 L 369 65 L 371 67 L 368 62 L 368 49 L 371 40 L 367 28 Z"/>
<path style="fill: rgb(113, 77, 21);" d="M 392 28 L 397 46 L 394 62 L 391 70 L 391 64 L 389 65 L 392 61 L 392 47 L 389 39 L 392 28 Z"/>
<rect width="100" height="100" style="fill: rgb(187, 139, 64);" x="440"/>
<path style="fill: rgb(114, 78, 21);" d="M 493 41 L 502 44 L 501 52 L 497 64 L 509 58 L 512 63 L 501 77 L 505 81 L 501 83 L 496 78 L 498 75 L 483 75 L 484 78 L 478 81 L 473 79 L 479 77 L 468 62 L 472 57 L 485 64 L 480 51 L 478 44 L 487 41 L 487 39 L 485 32 L 485 29 L 495 28 L 495 32 L 493 39 L 493 41 Z"/>
<path style="fill: rgb(223, 210, 179);" d="M 485 29 L 485 22 L 495 21 L 495 28 L 485 29 Z"/>
<path style="fill: rgb(223, 210, 179);" d="M 497 64 L 485 64 L 472 57 L 468 62 L 479 77 L 483 75 L 498 75 L 501 77 L 512 63 L 509 58 L 497 64 Z"/>
<path style="fill: rgb(113, 77, 21);" d="M 476 55 L 481 51 L 478 44 L 469 56 L 484 65 L 486 69 L 487 66 L 485 62 L 476 55 Z"/>
<path style="fill: rgb(113, 77, 21);" d="M 505 55 L 500 52 L 502 44 L 512 56 L 495 66 L 492 69 L 491 66 L 495 62 L 505 55 Z"/>
<rect width="100" height="100" style="fill: rgb(187, 139, 64);" x="550"/>
<path style="fill: rgb(114, 78, 21);" d="M 590 81 L 591 93 L 586 97 L 590 98 L 595 94 L 595 82 L 590 81 Z"/>
<path style="fill: rgb(114, 78, 21);" d="M 610 81 L 611 94 L 616 98 L 612 99 L 607 95 L 605 83 L 610 81 Z"/>
<path style="fill: rgb(33, 71, 141);" d="M 580 44 L 592 51 L 588 87 L 598 88 L 600 84 L 604 89 L 613 87 L 608 51 L 621 47 L 616 35 L 585 34 L 580 44 Z"/>
<path style="fill: rgb(199, 9, 8);" d="M 584 34 L 590 51 L 590 59 L 587 79 L 596 82 L 600 63 L 605 84 L 614 81 L 610 59 L 610 51 L 617 35 L 607 26 L 593 25 L 584 34 Z"/>
<path style="fill: rgb(113, 77, 21);" d="M 581 44 L 581 49 L 583 66 L 586 74 L 586 68 L 588 69 L 585 64 L 585 51 L 587 48 L 581 44 Z"/>
<path style="fill: rgb(101, 101, 101); transform-origin: 598.857px 6.66682px;" d="M 605 8 L 595 8 L 596 4 L 600 1 L 604 4 L 605 8 Z"/>
<path style="fill: rgb(199, 9, 8);" d="M 591 10 L 594 16 L 606 16 L 610 11 L 608 7 L 600 4 L 593 6 L 591 10 Z"/>
<path style="fill: rgb(223, 210, 179);" d="M 592 25 L 594 13 L 599 11 L 606 13 L 608 26 L 612 30 L 600 27 L 588 30 L 592 25 Z"/>
<path style="fill: rgb(112, 76, 22);" d="M 600 16 L 596 15 L 595 21 L 600 19 L 605 21 L 604 15 L 600 16 Z"/>
<path style="fill: rgb(72, 49, 14);" d="M 590 52 L 601 54 L 610 52 L 610 58 L 601 59 L 590 57 L 590 52 Z"/>
<path style="fill: rgb(216, 216, 216);" d="M 561 53 L 561 90 L 563 93 L 565 90 L 564 53 L 569 53 C 569 53 569 51 569 51 L 556 51 L 556 53 L 561 53 Z"/>
<path style="fill: rgb(114, 78, 21);" d="M 561 51 L 561 42 L 564 42 L 564 51 L 561 51 Z"/>
<path style="fill: rgb(216, 216, 216);" d="M 606 58 L 624 90 L 627 92 L 627 88 L 608 57 L 613 54 C 613 54 612 53 612 53 L 600 59 L 601 60 L 606 58 Z"/>
<path style="fill: rgb(72, 49, 14);" d="M 605 57 L 601 50 L 603 49 L 608 56 L 605 57 Z"/>
<path style="fill: rgb(113, 77, 21);" d="M 620 47 L 620 50 L 618 67 L 615 75 L 615 69 L 613 70 L 616 65 L 616 52 L 614 49 L 620 47 Z"/>
<rect width="100" height="100" style="fill: rgb(187, 139, 64);" x="1540"/>
<path style="fill: rgb(101, 101, 101);" d="M 1584 80 L 1584 30 L 1586 28 L 1599 27 L 1600 30 L 1602 80 L 1602 91 L 1608 97 L 1597 95 L 1596 78 L 1593 72 L 1590 79 L 1591 96 L 1580 98 L 1586 92 L 1584 80 Z"/>
<path style="fill: rgb(239, 239, 239);" d="M 1580 32 L 1582 40 L 1583 58 L 1582 81 L 1592 84 L 1594 65 L 1595 85 L 1604 82 L 1601 57 L 1603 39 L 1605 31 L 1600 29 L 1593 33 L 1584 29 L 1580 32 Z"/>
<path style="fill: rgb(216, 216, 216);" d="M 1586 28 L 1584 11 L 1591 7 L 1600 12 L 1599 28 L 1593 29 L 1586 28 Z"/>
<path style="fill: rgb(60, 60, 60);" d="M 1589 18 L 1586 16 L 1598 16 L 1595 18 L 1589 18 Z"/>
<path style="fill: rgb(239, 239, 239);" d="M 1567 57 L 1567 94 L 1569 97 L 1571 94 L 1570 57 L 1575 59 C 1575 59 1575 55 1575 55 L 1562 55 L 1562 59 L 1567 57 Z"/>
<path style="fill: rgb(60, 60, 60);" d="M 1567 55 L 1567 46 L 1570 46 L 1570 55 L 1567 55 Z"/>
<path style="fill: rgb(101, 101, 101);" d="M 1576 46 L 1577 39 L 1580 32 L 1583 41 L 1582 51 L 1572 54 L 1570 55 L 1570 51 L 1567 50 L 1570 49 L 1572 50 L 1576 46 Z"/>
<path style="fill: rgb(199, 9, 8);" d="M 1592 52 L 1591 46 L 1586 46 L 1586 43 L 1591 42 L 1591 36 L 1594 36 L 1594 42 L 1599 43 L 1599 45 L 1594 46 L 1595 52 L 1592 52 Z"/>
<rect width="100" height="100" style="fill: rgb(187, 139, 64);" y="-110" x="1540"/>
<path style="fill: rgb(101, 101, 101); transform-origin: 1591px -47.5px;" d="M 1602 -30 L 1601 -80 L 1599 -82 L 1586 -83 L 1585 -80 L 1583 -30 L 1583 -19 L 1577 -13 L 1588 -15 L 1589 -32 L 1592 -38 L 1595 -31 L 1594 -14 L 1605 -12 L 1599 -18 L 1602 -30 Z"/>
<path style="fill: rgb(239, 239, 239); transform-origin: 1592.5px -53px;" d="M 1605 -78 L 1603 -70 L 1602 -52 L 1603 -29 L 1593 -26 L 1591 -45 L 1590 -25 L 1581 -28 L 1584 -53 L 1582 -71 L 1580 -79 L 1585 -81 L 1592 -77 L 1601 -81 L 1605 -78 Z"/>
<path style="fill: rgb(216, 216, 216);" d="M 1599 -82 L 1601 -99 L 1594 -103 L 1585 -98 L 1586 -82 L 1592 -81 L 1599 -82 Z"/>
<path style="fill: rgb(60, 60, 60);" d="M 1596 -92 L 1599 -94 L 1587 -94 L 1590 -92 L 1596 -92 Z"/>
<path style="fill: rgb(101, 101, 101);" d="M 1611 -58 L 1609 -72 L 1605 -78 L 1602 -69 L 1605 -58 L 1605 -48 L 1602 -45 L 1605 -45 L 1603 -41 L 1608 -43 L 1611 -58 Z"/>
<path style="fill: rgb(101, 101, 101);" d="M 1574 -59 L 1576 -73 L 1580 -79 L 1583 -70 L 1580 -59 L 1580 -49 L 1582 -46 L 1580 -46 L 1581 -42 L 1577 -44 L 1574 -59 Z"/>
<path style="fill: rgb(199, 9, 8);" d="M 1593 -58 L 1594 -64 L 1599 -64 L 1599 -67 L 1594 -68 L 1594 -74 L 1591 -74 L 1591 -68 L 1586 -67 L 1586 -65 L 1591 -64 L 1590 -58 L 1593 -58 Z"/>
<path style="fill: rgb(216, 216, 216);" d="M 1599 75 L 1599 57 L 1618 52 L 1621 73 L 1612 97 L 1599 75 Z"/>
<path style="fill: rgb(60, 60, 60);" d="M 1583 59 L 1583 56 L 1601 54 L 1601 58 L 1583 59 Z"/>
<path style="fill: rgb(101, 101, 101);" d="M 1611 54 L 1609 37 L 1605 31 L 1602 40 L 1605 51 L 1597 55 L 1595 60 L 1597 64 L 1599 59 L 1611 54 Z"/>
<path style="fill: rgb(199, 9, 8);" d="M 1610 85 L 1609 70 L 1603 70 L 1603 67 L 1609 66 L 1608 59 L 1612 58 L 1612 65 L 1617 64 L 1617 67 L 1613 69 L 1612 85 L 1610 85 Z"/>
<path style="fill: rgb(101, 101, 101);" d="M 1566 55 L 1566 51 L 1569 51 L 1570 55 L 1566 55 Z"/>
<rect width="100" height="100" style="fill: rgb(187, 139, 64);" x="1650"/>
<path style="fill: rgb(242, 134, 76);" d="M 1709 80 L 1708 92 L 1713 96 L 1709 97 L 1704 93 L 1704 81 L 1709 80 Z"/>
<path style="fill: rgb(242, 134, 76);" d="M 1689 80 L 1688 93 L 1683 97 L 1687 98 L 1692 94 L 1694 82 L 1689 80 Z"/>
<path style="fill: rgb(77, 51, 16);" d="M 1685 32 L 1692 24 L 1702 24 L 1710 32 L 1712 34 L 1709 56 L 1712 90 L 1685 88 L 1688 55 L 1683 35 L 1685 32 Z"/>
<path style="fill: rgb(241, 134, 76);" d="M 1693 27 L 1691 15 L 1696 11 L 1702 14 L 1703 22 L 1700 27 L 1693 27 Z"/>
<path style="fill: rgb(110, 74, 23);" d="M 1684 32 L 1696 41 L 1711 32 L 1702 24 L 1704 28 L 1697 31 L 1691 28 L 1692 24 L 1684 32 Z"/>
<path style="fill: rgb(111, 75, 22);" d="M 1681 55 L 1683 35 L 1687 51 L 1698 54 L 1697 61 L 1691 58 L 1681 55 Z"/>
<path style="fill: rgb(111, 75, 22);" d="M 1715 55 L 1712 35 L 1709 46 L 1709 51 L 1697 53 L 1699 61 L 1704 57 L 1715 55 Z"/>
<path style="fill: rgb(216, 216, 216);" d="M 639 25 L 635 7 L 633 5 L 631 8 L 636 26 L 631 25 C 631 25 632 27 632 27 L 638 28 L 643 24 L 643 22 L 639 25 Z"/>
<path style="fill: rgb(72, 49, 14);" d="M 639 26 L 641 34 L 639 35 L 636 27 L 639 26 Z"/>
<circle style="fill: rgb(216, 216, 216);" cx="640" cy="35" r="2"/>
<circle style="fill: rgb(255, 255, 255);" cx="61" cy="954" r="6"/>
<circle style="fill: rgb(14, 33, 65);" cx="58" cy="956" r="6"/>
<rect width="100" height="100" style="fill: rgb(187, 139, 64);" x="880"/>
<path style="fill: rgb(114, 78, 21);" d="M 914 61 L 910 93 L 903 97 L 909 98 L 916 95 L 917 81 L 921 68 L 926 80 L 927 94 L 934 96 L 938 94 L 932 91 L 932 80 L 929 59 L 914 61 Z"/>
<path style="fill: rgb(70, 47, 15);" d="M 920 6 L 914 16 L 916 25 L 909 31 L 913 57 L 910 83 L 932 72 L 931 56 L 934 31 L 929 27 L 932 17 L 929 8 L 920 6 Z"/>
<path style="fill: rgb(112, 76, 22);" d="M 925 12 L 917 16 L 919 24 L 926 26 L 929 16 L 925 12 Z"/>
<path style="fill: rgb(113, 77, 21);" d="M 909 31 L 904 52 L 907 68 L 910 76 L 910 69 L 912 71 L 909 66 L 909 53 L 912 44 L 909 31 Z"/>
<path style="fill: rgb(216, 216, 216);" d="M 952 52 L 962 22 L 959 17 L 956 20 L 949 51 L 944 47 C 944 47 944 50 944 50 L 950 54 L 957 55 L 958 53 L 952 52 Z"/>
<path style="fill: rgb(70, 47, 15);" d="M 945 62 L 948 53 L 951 54 L 947 63 L 945 62 Z"/>
<path style="fill: rgb(113, 77, 21);" d="M 934 31 L 938 49 L 948 54 L 949 56 L 948 57 L 947 56 L 946 59 L 944 56 L 933 53 L 932 44 L 934 31 Z"/>
<path style="fill: rgb(114, 78, 21);" d="M 946 59 L 949 55 L 951 56 L 949 60 L 946 59 Z"/>
<rect width="300" height="300" style="fill: rgb(59, 127, 255);" y="1460" x="-100"/>
<path d="M -100 1605 L 16 1586 L 41 1595 L 91 1590 L 200 1604 L 200 1760 L -100 1760 L -100 1605 Z" style="fill: rgb(36, 78, 155);"/>
<rect width="300" height="153" style="fill: rgb(186, 139, 64);" y="1607" x="-100"/>
<path style="fill: rgb(114, 78, 21);" d="M 36 1610 L 36 1599 L 37 1600 L 36 1610 Z"/>
<path style="fill: rgb(208, 180, 116);" d="M 49 1612 L 76 1614 L 62 1598 L 49 1612 Z"/>
<path style="fill: rgb(114, 78, 21);" d="M 59 1617 L 60 1596 L 62 1595 L 61 1617 L 59 1617 Z"/>
<path style="fill: rgb(223, 210, 179);" d="M 26 1612 L 36 1601 C 41 1604 49 1600 62 1598 L 45 1618 L 26 1612 Z"/>
<rect width="100" height="100" style="fill: rgb(187, 139, 64);" x="880" y="-110"/>
<path style="fill: rgb(114, 78, 21); transform-origin: 935.5px -31.5px;" d="M 942 -49 L 945 -19 L 951 -15 L 946 -14 L 939 -17 L 938 -31 L 935 -42 L 930 -30 L 929 -16 L 922 -14 L 918 -16 L 924 -19 L 924 -30 L 927 -51 L 942 -49 Z"/>
<path style="fill: rgb(70, 47, 15);" d="M 932 -98 L 927 -90 L 927 -80 L 920 -77 L 924 -55 L 922 -29 L 935 -33 L 945 -32 L 945 -55 L 948 -77 L 941 -80 L 943 -91 L 940 -96 L 932 -98 Z"/>
<path style="fill: rgb(112, 76, 22);" d="M 935 -95 L 930 -89 L 931 -80 L 938 -80 L 941 -91 L 935 -95 Z"/>
<path style="fill: rgb(113, 77, 21); transform-origin: 949px -56px;" d="M 948 -77 L 954 -59 L 951 -43 L 947 -38 L 948 -42 L 946 -42 L 949 -45 L 949 -58 L 946 -65 L 948 -77 Z"/>
<path style="fill: rgb(70, 47, 15);" d="M 909 -16 L 907 -101 L 909 -101 L 911 -16 L 909 -16 Z"/>
<path style="fill: rgb(113, 77, 21); transform-origin: 917.944px -51.4887px;" d="M 920 -77 L 915 -62 L 910 -54 L 907 -53 L 908 -52 L 910 -52 L 910 -49 L 913 -53 L 919 -58 L 923 -65 L 920 -77 Z"/>
<path style="fill: rgb(114, 78, 21);" d="M 909 -48 L 909 -51 L 906 -52 L 907 -48 L 909 -48 Z"/>
<path style="fill: rgb(216, 216, 216); transform-origin: 891.569px -57.5399px;" d="M 906 -99 L 910 -101 L 908 -108 L 906 -99 Z"/>
<rect width="100" height="100" style="fill: rgb(187, 139, 64);" x="330" y="-110"/>
<path style="fill: rgb(114, 78, 21);" d="M 390 -28 L 391 -20 L 395 -19 L 392 -14 L 388 -14 L 385 -27 L 390 -28 Z"/>
<path style="fill: rgb(114, 78, 21);" d="M 370 -25 L 369 -19 L 365 -18 L 368 -13 L 372 -13 L 375 -26 L 370 -25 Z"/>
<path style="fill: rgb(113, 77, 21);" d="M 394 -81 L 398 -61 L 393 -46 L 390 -38 L 390 -45 L 388 -43 L 391 -48 L 393 -60 L 390 -69 L 394 -81 Z"/>
<path style="fill: rgb(113, 77, 21);" d="M 369 -81 L 364 -63 L 368 -47 L 371 -39 L 371 -45 L 373 -44 L 370 -48 L 369 -62 L 372 -70 L 369 -81 Z"/>
<path style="fill: rgb(223, 210, 179);" d="M 383 -108 L 389 -103 L 391 -93 L 387 -86 L 394 -81 L 391 -71 L 389 -58 L 391 -27 L 369 -24 L 373 -57 L 371 -72 L 369 -81 L 375 -86 L 373 -94 L 376 -104 L 383 -108 Z"/>
<rect width="100" height="100" style="fill: rgb(187, 139, 64);" x="550" y="-110"/>
<path style="fill: rgb(114, 78, 21); transform-origin: 630.927px -20.9701px;" d="M 626 -27 L 634 -18 L 632 -12 L 635 -13 L 638 -20 L 630 -29 L 626 -27 Z"/>
<path style="fill: rgb(114, 78, 21); transform-origin: 638.707px -44.1109px;" d="M 630 -45 L 642 -42 L 648 -45 L 647 -41 L 642 -38 L 630 -40 L 630 -45 Z"/>
<path style="fill: rgb(72, 49, 14); transform-origin: 604.073px -16.73px;" d="M 609 -24 L 604 -19 L 605 -17 L 611 -22 L 609 -24 Z"/>
<path style="fill: rgb(216, 216, 216); transform-origin: 610.945px -24.6435px;" d="M 610 -25 L 634 -48 L 637 -48 L 637 -45 L 612 -23 L 615 -20 L 613 -19 L 606 -27 L 608 -28 L 610 -25 Z"/>
<path style="fill: rgb(33, 71, 141); transform-origin: 608.345px -42.6097px;" d="M 585 -29 L 593 -37 L 629 -22 L 633 -29 L 624 -38 L 634 -38 L 639 -45 L 600 -53 L 600 -63 L 588 -65 L 577 -37 L 585 -29 Z"/>
<path style="fill: rgb(199, 9, 8); transform-origin: 601.345px -44.6097px;" d="M 576 -37 L 595 -36 L 602 -33 L 620 -24 L 626 -27 L 613 -45 L 626 -44 L 625 -49 L 609 -52 L 601 -55 L 588 -66 L 578 -61 L 582 -53 L 577 -45 L 576 -37 Z"/>
<path style="fill: rgb(113, 77, 21); transform-origin: 589.817px -19.8078px;" d="M 591 -35 L 592 -30 L 600 -17 L 602 -18 L 601 -16 L 604 -14 L 602 -12 L 598 -16 L 588 -27 L 586 -30 L 591 -35 Z"/>
<path style="fill: rgb(72, 49, 14); transform-origin: 601.845px -43.6097px;" d="M 596 -35 L 601 -41 L 605 -54 L 609 -52 L 607 -40 L 600 -34 L 596 -35 Z"/>
<path style="fill: rgb(113, 77, 21); transform-origin: 611.395px -55.1613px;" d="M 600 -62 L 603 -62 L 620 -62 L 626 -57 L 621 -59 L 621 -56 L 617 -61 L 604 -57 L 600 -56 L 600 -62 Z"/>
<path style="fill: rgb(239, 239, 239);" d="M 1733 57 L 1733 68 L 1737 68 L 1736 57 L 1741 57 L 1741 54 L 1736 54 L 1736 48 L 1733 48 L 1733 54 L 1728 54 L 1728 57 L 1733 57 Z"/>
<ellipse style="fill: rgb(154, 114, 41);" cx="490" cy="90" rx="14" ry="6"/>
<ellipse style="fill: rgb(109, 74, 23);" cx="490" cy="89" rx="11" ry="4"/>
<rect width="300" height="300" style="fill: rgb(59, 127, 255);" y="1770" x="-100"/>
<path d="M -100 1915 L 17 1902 L 40 1908 L 91 1902 L 200 1926 L 200 2070 L -100 2070 L -100 1915 Z" style="fill: rgb(36, 78, 155);"/>
<path d="M -100 1907 C -39 1892 77 1925 200 1919 L 200 2070 L -100 2070 L -100 1907 Z" style="fill: rgb(185, 139, 64);"/>
<rect width="300" height="300" style="fill: rgb(15, 32, 65);" y="840" x="210"/>
<path d="M 210 1010 L 326 991 L 351 1000 L 401 995 L 510 1009 L 510 1140 L 210 1140 L 210 1010 Z" style="fill: rgb(8, 19, 38);"/>
<path d="M 210 1007 C 248 1001 467 1013 510 1011 L 510 1140 L 210 1140 L 210 1007 Z" style="fill: rgb(118, 89, 39);"/>
<circle style="fill: rgb(255, 255, 255);" cx="325" cy="959" r="1"/>
<circle style="fill: rgb(255, 255, 255);" cx="371" cy="954" r="6"/>
<circle style="fill: rgb(14, 33, 65);" cx="368" cy="956" r="6"/>
<path style="fill: rgb(223, 210, 179);" d="M 356 987 L 354 986 L 351 985 L 346 990 L 344 991 L 338 987 L 332 990 L 329 995 L 329 1003 L 330 1010 L 332 1010 L 331 1009 L 330 1004 L 331 999 L 332 1003 L 335 1009 L 335 1010 L 336 1010 L 336 1009 L 333 1003 L 334 998 L 339 999 L 344 998 L 343 1003 L 343 1010 L 344 1010 L 343 1008 L 345 1004 L 346 998 L 347 1004 L 350 1009 L 351 1009 L 350 1008 L 348 1003 L 348 998 L 351 994 L 353 988 L 356 987 Z"/>
<path style="fill: rgb(223, 210, 179); transform-origin: 381.5px 1001.5px;" d="M 396 993 L 395 992 L 392 990 L 386 995 L 384 995 L 379 990 L 372 993 L 368 997 L 367 1005 L 367 1012 L 369 1012 L 368 1011 L 368 1006 L 370 1001 L 370 1005 L 372 1012 L 372 1013 L 373 1013 L 373 1012 L 371 1006 L 373 1001 L 378 1002 L 383 1002 L 381 1007 L 380 1014 L 381 1014 L 381 1012 L 383 1008 L 385 1002 L 385 1009 L 387 1014 L 388 1014 L 387 1013 L 386 1008 L 387 1003 L 390 999 L 393 994 L 396 993 Z"/>
<rect width="300" height="300" style="fill: rgb(36, 78, 155);" y="2390" x="-100"/>
<path d="M -100 2535 L -10 2529 L 9 2512 L 21 2520 L 32 2509 L 52 2535 L 200 2537 L 200 2690 L -100 2690 L -100 2535 Z" style="fill: rgb(14, 33, 65);"/>
<rect width="300" height="153" style="fill: rgb(186, 139, 64);" y="2537" x="-100"/>
<path d="M 68 2539 L 87 2497 L 46 2390 L 129 2390 L 91 2510 L 106 2540 L 68 2539 Z" style="fill: rgb(154, 171, 206);"/>
<path d="M 68 2539 L 76 2527 L 81 2533 L 83 2525 L 88 2534 L 92 2519 L 96 2535 L 100 2527 L 106 2540 L 68 2539 Z" style="fill: rgb(199, 9, 8);"/>
<path d="M 68 2539 L 76 2530 L 82 2534 L 83 2530 L 88 2536 L 93 2528 L 95 2537 L 100 2532 L 106 2540 L 68 2539 Z" style="fill: rgb(249, 229, 26);"/>
<path d="M 69 2520 L 68 2519 L 70 2516 L 72 2519 L 71 2520 L 71 2533 L 76 2531 L 85 2533 L 87 2528 L 86 2526 L 89 2523 L 92 2526 L 91 2528 L 93 2533 L 103 2534 L 103 2523 L 104 2520 L 105 2523 L 106 2540 L 91 2541 L 90 2539 L 89 2539 L 88 2541 L 81 2541 L 68 2539 L 69 2520 Z" style="fill: rgb(72, 49, 14);"/>
<rect width="300" height="300" style="fill: rgb(72, 49, 14);" y="2080" x="-100"/>
<path d="M -100 2259 L 8 2245 L 2 2184 L 7 2183 L 15 2244 L 30 2242 L 69 2249 L 75 2188 L 80 2187 L 73 2250 L 87 2256 L 200 2241 L 200 2380 L -100 2380 L -100 2259 Z" style="fill: rgb(169, 126, 56);"/>
<path d="M -1 2263 L 52 2251 L 111 2263 L 70 2264 L 58 2268 L 35 2264 L -6 2270 L -1 2263 Z" style="fill: rgb(207, 192, 23);"/>
<path d="M -1 2258 L 33 2246 L 47 2244 L 65 2246 L 111 2263 L 65 2261 L 57 2264 L 33 2259 L -6 2265 L -1 2258 Z" style="fill: rgb(229, 212, 25);"/>
<path style="fill: none; stroke: rgb(199, 9, 8);" d="M 43 2185 L 43 2204 L 46 2221 L 46 2237"/>
<path d="M 200 2380 L -100 2380 L -100 2080 L 200 2080 L 200 2380 Z M 90 2272 L 102 2227 L 92 2196 L 80 2270 L 90 2272 Z M 25 2274 L 69 2271 L 72 2268 L 83 2194 L 72 2190 L 52 2194 L 29 2185 L 25 2188 L 22 2271 L 25 2274 Z M 5 2269 L 10 2274 L 13 2271 L 16 2188 L 13 2185 L 3 2188 L -7 2227 L 5 2269 Z" style="fill: rgb(187, 139, 64);"/>
<path d="M 13 2188 L 10 2186 L 3 2188 L -6 2219 L 8 2286 L -28 2314 L -13 2140 L 116 2162 L 123 2309 L 85 2272 L 90 2263 L 95 2227 L 92 2199 L 80 2270 L 80 2274 L 89 2277 L 54 2278 L 11 2285 L 9 2274 L 12 2271 L 13 2188 Z M 69 2271 L 72 2268 L 82 2194 L 72 2191 L 51 2192 L 26 2186 L 22 2188 L 22 2271 L 25 2274 L 54 2277 L 69 2271 Z M 14 2188 L 14 2271 L 11 2274 L 11 2283 L 50 2278 L 25 2274 L 21 2271 L 21 2188 L 26 2184 L 51 2190 L 72 2189 L 84 2194 L 72 2268 L 69 2271 L 56 2277 L 85 2277 L 79 2274 L 79 2270 L 92 2193 L 97 2227 L 90 2263 L 87 2272 L 121 2307 L 116 2162 L -13 2142 L -26 2312 L 6 2286 L -8 2219 L 3 2188 L 10 2184 L 14 2188 Z" style="fill: none;"/>
<path d="M 13 2188 L 10 2186 L 3 2188 L -6 2219 L 8 2286 L -28 2314 L -13 2140 L 116 2162 L 123 2309 L 85 2272 L 90 2263 L 95 2227 L 92 2199 L 80 2270 L 80 2274 L 89 2277 L 54 2278 L 11 2285 L 9 2274 L 12 2271 L 13 2188 Z M 69 2271 L 72 2268 L 82 2194 L 72 2191 L 51 2192 L 26 2186 L 22 2188 L 22 2271 L 25 2274 L 54 2277 L 69 2271 Z M 14 2188 L 14 2271 L 11 2274 L 11 2283 L 50 2278 L 25 2274 L 21 2271 L 21 2188 L 26 2184 L 51 2190 L 72 2189 L 84 2194 L 72 2268 L 69 2271 L 56 2277 L 85 2277 L 79 2274 L 79 2270 L 92 2193 L 97 2227 L 90 2263 L 87 2272 L 121 2307 L 116 2162 L -13 2142 L -26 2312 L 6 2286 L -8 2219 L 3 2188 L 10 2184 L 14 2188 Z" style="fill: none;"/>
<rect width="300" height="300" style="fill: rgb(51, 109, 217);" y="3010" x="-100"/>
<rect width="300" height="165" style="fill: rgb(27, 80, 54);" y="3145" x="-100"/>
<path d="M 171 3145 L -51 3145 L -6 3142 L 34 3133 L 40 3136 L 95 3124 L 171 3145 Z" style="fill: rgb(115, 128, 155);"/>
<path d="M 29 3145 L 6 3148 L -9 3146 L -1 3122 L 3 3141 L 7 3126 L 10 3139 L 16 3122 L 21 3139 L 24 3124 L 29 3145 Z" style="fill: rgb(17, 48, 32);"/>
<rect width="300" height="300" style="fill: rgb(59, 127, 255);" y="3320" x="-100"/>
<path d="M 140 3467 L -82 3467 L -37 3464 L 28 3451 L 43 3458 L 60 3445 L 140 3467 Z" style="fill: rgb(169, 126, 56);"/>
<rect width="300" height="153" style="fill: rgb(223, 210, 179);" y="3467" x="-100"/>
<path d="M 39 3481 L 32 3479 L 25 3480 L 31 3476 L 33 3447 L 29 3443 L 22 3441 L 27 3441 L 21 3434 L 26 3438 L 26 3435 L 27 3439 L 34 3445 L 41 3437 L 39 3441 L 43 3444 L 38 3442 L 35 3447 L 34 3476 L 39 3481 Z" style="fill: rgb(72, 49, 14);"/>
<path d="M 73 2554 L 93 2546 L 88 2541 L 89 2539 L 90 2539 L 91 2541 L 97 2546 L 84 2555 L 69 2690 L -87 2690 L 73 2554 Z" style="fill: rgb(169, 126, 56);"/>
<path d="M 95 3149 L 92 3156 L 72 3162 L 47 3158 L 37 3151 L 41 3147 L 49 3146 L 88 3147 L 95 3149 Z" style="fill: rgb(51, 110, 217);"/>
<path d="M 88 3150 L 73 3155 L 49 3150 L 49 3133 L 52 3123 L 54 3133 L 54 3140 L 63 3139 L 63 3121 L 66 3118 L 69 3121 L 69 3138 L 84 3139 L 84 3129 L 86 3121 L 88 3129 L 88 3150 Z" style="fill: rgb(154, 171, 206);"/>
<rect width="100" height="100" style="fill: rgb(187, 139, 64);" x="660"/>
<path style="fill: rgb(223, 210, 179);" d="M 753 32 L 753 28 L 746 24 L 738 23 L 726 36 L 719 39 L 702 31 L 677 44 L 673 54 L 673 66 L 668 92 L 668 96 L 672 96 L 670 93 L 676 71 L 683 64 L 686 72 L 687 90 L 688 93 L 691 93 L 689 90 L 689 73 L 690 60 L 703 63 L 717 62 L 716 76 L 715 96 L 719 97 L 717 92 L 720 77 L 723 63 L 727 77 L 734 94 L 738 94 L 735 91 L 730 75 L 728 61 L 738 52 L 744 33 L 753 32 Z"/>
<rect width="100" height="100" style="fill: rgb(187, 139, 64);" x="330" y="-220"/>
<path style="fill: rgb(114, 78, 21);" d="M 357 -144 L 370 -128 L 365 -124 L 369 -123 L 374 -127 L 365 -143 L 357 -144 Z"/>
<path style="fill: rgb(114, 78, 21); transform-origin: 387.214px -104.414px;" d="M 406 -143 L 391 -128 L 396 -124 L 392 -123 L 387 -127 L 397 -142 L 406 -143 Z"/>
<path style="fill: rgb(223, 210, 179);" d="M 378 -194 L 372 -189 L 370 -179 L 374 -172 L 367 -167 L 370 -157 L 372 -144 L 360 -149 L 357 -144 L 366 -132 L 375 -131 L 380 -132 L 387 -131 L 395 -131 L 406 -143 L 402 -148 L 388 -143 L 390 -158 L 392 -167 L 386 -172 L 388 -180 L 385 -190 L 378 -194 Z"/>
<path style="fill: rgb(112, 76, 22);" d="M 375 -189 L 373 -184 L 376 -175 L 379 -173 L 383 -175 L 385 -184 L 382 -188 L 375 -189 Z"/>
<path style="fill: rgb(113, 77, 21);" d="M 367 -167 L 365 -148 L 376 -137 L 379 -129 L 379 -136 L 381 -134 L 378 -139 L 371 -149 L 371 -155 L 367 -167 Z"/>
<path style="fill: rgb(113, 77, 21);" d="M 392 -167 L 394 -148 L 388 -133 L 385 -125 L 385 -131 L 383 -130 L 386 -134 L 389 -147 L 389 -156 L 392 -167 Z"/>
<rect width="100" height="100" style="fill: rgb(187, 139, 64);" x="330" y="-330"/>
<path style="fill: rgb(113, 77, 21);" d="M 367 -278 L 366 -259 L 371 -259 L 371 -266 L 367 -278 Z"/>
<path style="fill: rgb(113, 77, 21);" d="M 392 -277 L 394 -258 L 387 -257 L 389 -266 L 392 -277 Z"/>
<path style="fill: rgb(114, 78, 21);" d="M 366 -252 L 371 -239 L 366 -235 L 370 -234 L 375 -238 L 371 -251 L 366 -252 Z"/>
<path style="fill: rgb(114, 78, 21); transform-origin: 388.214px -242.414px;" d="M 392 -247 L 388 -239 L 393 -235 L 388 -234 L 384 -238 L 387 -248 L 392 -247 Z"/>
<path style="fill: rgb(223, 210, 179);" d="M 378 -304 L 372 -299 L 370 -289 L 374 -282 L 367 -277 L 370 -267 L 370 -261 L 366 -264 L 362 -260 L 369 -240 L 376 -243 L 390 -240 L 397 -259 L 393 -263 L 388 -261 L 390 -268 L 392 -277 L 386 -282 L 388 -290 L 385 -300 L 378 -304 Z"/>
<path style="fill: rgb(112, 76, 22);" d="M 375 -299 L 373 -294 L 376 -285 L 379 -283 L 383 -285 L 385 -294 L 382 -298 L 375 -299 Z"/>
<path style="fill: rgb(72, 49, 14);" d="M 377 -144 L 372 -139 L 375 -136 L 379 -140 L 377 -144 Z"/>
<path style="fill: rgb(72, 49, 14);" d="M 392 -138 L 386 -140 L 385 -135 L 390 -134 L 392 -138 Z"/>
<ellipse style="fill: none; stroke: rgb(72, 49, 14);" cx="380" cy="-141" rx="1" ry="1"/>
<ellipse style="fill: none; stroke: rgb(72, 49, 14);" cx="384" cy="-138" rx="1" ry="1"/>
<ellipse style="fill: none; stroke: rgb(72, 49, 14);" cx="383" cy="-141" rx="1" ry="1"/>
<path style="fill: rgb(199, 9, 8); transform-origin: 559.353px -63.9943px;" d="M 552 -60 L 557 -55 L 568 -59 L 570 -65 L 566 -68 L 558 -68 L 552 -64 L 552 -60 Z"/>
<path style="fill: rgb(223, 210, 179); transform-origin: 562.853px -53.4943px;" d="M 558 -45 L 556 -57 L 560 -61 L 567 -62 L 573 -50 L 570 -43 L 566 -46 L 563 -39 L 558 -45 Z"/>
<path style="fill: rgb(112, 76, 22); transform-origin: 561.853px -55.9943px;" d="M 562 -57 L 558 -56 L 559 -50 L 563 -54 L 569 -54 L 566 -59 L 562 -57 Z"/>
<rect width="100" height="100" style="fill: rgb(187, 139, 64);" x="1320" y="-110"/>
<path style="fill: rgb(151, 7, 5); transform-origin: 1368.69px -30.1291px;" d="M 1325 -43 C 1342 -62 1371 -37 1405 -46 C 1411 -49 1421 -26 1416 -23 C 1371 -11 1355 -39 1330 -17 C 1325 -17 1321 -39 1325 -43 Z"/>
<path style="fill: rgb(199, 9, 8); transform-origin: 1368.81px -31.4109px;" d="M 1326 -44 C 1342 -62 1372 -38 1404 -46 C 1410 -48 1419 -27 1414 -25 C 1372 -13 1354 -41 1330 -21 C 1326 -21 1323 -41 1326 -44 Z"/>
<path style="fill: rgb(112, 76, 22);" d="M 1380 -80 L 1376 -65 L 1382 -67 L 1382 -71 L 1383 -73 L 1380 -80 Z"/>
<path style="fill: rgb(113, 77, 21);" d="M 1392 -29 L 1395 -26 L 1397 -30 L 1394 -31 L 1392 -29 Z"/>
<path style="fill: rgb(223, 210, 179);" d="M 1378 -85 L 1383 -80 L 1379 -76 L 1378 -66 L 1383 -59 L 1382 -40 L 1389 -42 L 1396 -41 L 1398 -36 L 1392 -27 L 1381 -26 L 1372 -30 L 1369 -38 L 1369 -56 L 1371 -63 L 1368 -71 L 1371 -81 L 1378 -85 Z"/>
<path style="fill: rgb(113, 77, 21);" d="M 1372 -57 L 1372 -39 L 1385 -29 L 1390 -25 L 1389 -29 L 1391 -31 L 1387 -31 L 1377 -41 L 1380 -56 L 1376 -59 L 1372 -57 Z"/>
<path style="fill: rgb(101, 101, 101);" d="M 567 -73 L 562 -71 L 557 -70 L 557 -74 L 560 -78 L 564 -76 L 567 -73 Z"/>
<path style="fill: rgb(69, 69, 69);" d="M 567 -73 L 562 -71 L 557 -70 L 561 -73 L 567 -73 Z"/>
<path style="fill: rgb(72, 49, 14);" d="M 41 682 L 52 683 L 53 684 L 39 683 L 41 682 Z"/>
<ellipse style="fill: rgb(199, 9, 8);" cx="42" cy="683" rx="1" ry="1"/>
<ellipse style="fill: rgb(199, 9, 8);" cx="44" cy="683" rx="1" ry="1"/>
<ellipse style="fill: rgb(199, 9, 8);" cx="47" cy="683" rx="1" ry="1"/>
<ellipse style="fill: rgb(199, 9, 8);" cy="684" rx="1" ry="1" cx="50"/>
<ellipse style="fill: rgb(199, 9, 8);" cx="48" cy="683" rx="1" ry="1"/>
<path style="fill: rgb(168, 126, 56);" d="M 39 683 L 53 684 L 52 690 L 39 688 L 39 683 Z"/>
<path style="fill: rgb(72, 49, 14);" d="M 34 685 L 39 684 L 41 686 L 33 686 L 34 685 Z"/>
<path style="fill: rgb(72, 49, 14);" d="M 50 689 L 54 687 L 56 689 L 50 689 Z"/>
<ellipse style="fill: rgb(199, 9, 8);" cx="43" cy="682" rx="1" ry="1"/>
<ellipse style="fill: rgb(248, 228, 27);" cx="36" cy="685" rx="1" ry="1"/>
<ellipse style="fill: rgb(248, 228, 27);" cx="37" cy="686" rx="1" ry="1"/>
<ellipse style="fill: rgb(248, 228, 27);" cx="35" cy="686" rx="1" ry="1"/>
<ellipse style="fill: rgb(8, 199, 78);" cx="54" cy="689" rx="1" ry="1"/>
<ellipse style="fill: rgb(8, 199, 78);" cx="52" cy="689" rx="1" ry="1"/>
<path style="fill: rgb(168, 126, 56);" d="M 50 689 L 56 689 L 55 693 L 51 693 L 50 689 Z"/>
<ellipse style="fill: rgb(248, 228, 27);" cx="39" cy="686" rx="1" ry="1"/>
<path style="fill: rgb(168, 126, 56);" d="M 33 686 L 41 686 L 40 690 L 34 690 L 33 686 Z"/>
<ellipse style="fill: rgb(8, 199, 78);" cx="53" cy="688" rx="1" ry="1"/>
<rect width="300" height="300" style="fill: rgb(14, 33, 65);" y="1150" x="-100"/>
<path d="M -100 1295 L 16 1276 L 41 1285 L 91 1280 L 200 1294 L 200 1450 L -100 1450 L -100 1295 Z" style="fill: rgb(8, 19, 38);"/>
<rect width="300" height="153" style="fill: rgb(119, 89, 38);" y="1297" x="-100"/>
<path style="fill: rgb(114, 78, 21);" d="M 36 1300 L 36 1289 L 37 1290 L 36 1300 Z"/>
<path style="fill: rgb(208, 180, 116);" d="M 49 1302 L 76 1304 L 62 1288 L 49 1302 Z"/>
<path style="fill: rgb(114, 78, 21);" d="M 59 1307 L 60 1286 L 62 1285 L 61 1307 L 59 1307 Z"/>
<path style="fill: rgb(223, 210, 179);" d="M 26 1302 L 36 1291 C 41 1294 49 1290 62 1288 L 45 1308 L 26 1302 Z"/>
<circle style="fill: rgb(255, 255, 255);" cx="88" cy="1264" r="6"/>
<circle style="fill: rgb(14, 33, 65);" cx="85" cy="1266" r="6"/>
<rect width="100" height="100" style="fill: rgb(70, 47, 15);" x="1100"/>
<path style="fill: rgb(248, 227, 28);" d="M 1161 87 L 1160 84 C 1170 80 1167 85 1161 87 Z M 1149 91 L 1147 94 L 1156 94 L 1154 91 L 1160 89 C 1172 85 1172 78 1160 82 L 1159 80 L 1151 73 L 1144 80 L 1142 84 L 1128 79 L 1130 81 L 1144 89 L 1149 91 Z"/>
<path style="fill: rgb(34, 71, 141);" d="M 1151 71 L 1141 50 L 1140 36 L 1134 41 L 1134 52 L 1136 56 L 1133 54 L 1131 60 L 1129 51 L 1130 38 L 1139 27 L 1147 23 L 1150 17 L 1150 9 L 1157 5 L 1163 10 L 1161 19 L 1162 27 L 1171 32 L 1174 47 L 1170 60 L 1165 67 L 1165 62 L 1161 63 L 1165 59 L 1167 46 L 1164 39 L 1156 56 L 1151 71 Z"/>
<rect width="100" height="100" style="fill: rgb(187, 139, 64);" x="1430" y="-109"/>
<path style="fill: rgb(223, 210, 179);" d="M 1512 -37 L 1520 -37 L 1521 -34 L 1516 -34 L 1512 -37 Z"/>
<path style="fill: rgb(111, 75, 22);" d="M 1512 -37 L 1441 -38 L 1446 -39 L 1512 -39 L 1520 -39 L 1520 -37 L 1512 -37 Z"/>
<path style="fill: rgb(223, 210, 179);" d="M 1520 -39 L 1512 -39 L 1516 -42 L 1521 -42 L 1520 -39 Z"/>
<path style="fill: rgb(111, 75, 22);" d="M 1512 -57 L 1441 -58 L 1446 -59 L 1512 -59 L 1516 -61 L 1521 -61 L 1520 -58 L 1521 -55 L 1516 -55 L 1512 -57 Z"/>
<rect width="100" height="100" style="fill: rgb(187, 139, 64);" x="550" y="-220"/>
<path style="fill: rgb(101, 101, 101); transform-origin: 592.102px -158.836px;" d="M 634 -149 L 568 -149 L 575 -175 L 601 -196 L 627 -175 L 634 -149 Z"/>
<ellipse style="fill: rgb(69, 69, 69);" cx="601" cy="-149" rx="33" ry="5"/>
<rect width="300" height="300" style="fill: rgb(59, 127, 255);" y="1770" x="210"/>
<circle style="fill: rgb(248, 227, 28);" cx="389" cy="1876" r="4"/>
<path d="M 210 1925 L 325 1908 L 354 1922 L 401 1917 L 510 1940 L 510 2070 L 210 2070 L 210 1925 Z" style="fill: rgb(36, 78, 155);"/>
<path d="M 210 1917 C 271 1902 392 1958 510 1935 L 510 2070 L 210 2070 L 210 1917 Z" style="fill: rgb(185, 139, 64);"/>
<rect width="100" height="100" style="fill: rgb(187, 139, 64);" x="880" y="-220"/>
<path style="fill: rgb(114, 78, 21); transform-origin: 907.842px -159.526px;" d="M 906 -161 L 923 -166 L 913 -173 L 902 -170 L 888 -171 L 881 -166 L 881 -164 L 888 -167 L 903 -165 L 889 -162 L 884 -155 L 887 -154 L 892 -159 L 906 -161 Z"/>
<path style="fill: rgb(70, 47, 15); transform-origin: 940.842px -167.526px;" d="M 977 -176 L 968 -179 L 959 -176 L 950 -178 L 922 -176 L 904 -173 L 916 -162 L 930 -164 L 951 -163 L 959 -165 L 970 -165 L 978 -170 L 977 -176 Z"/>
<path style="fill: rgb(70, 47, 15); transform-origin: 934.085px -152.049px;" d="M 933 -150 L 942 -147 L 941 -144 L 932 -148 L 933 -150 Z"/>
<path style="fill: rgb(216, 216, 216); transform-origin: 956px -145px;" d="M 942 -144 L 972 -132 L 977 -135 L 974 -138 L 943 -147 L 947 -151 C 947 -151 944 -152 944 -152 L 940 -146 L 939 -139 L 941 -138 L 942 -144 Z"/>
<rect width="100" height="100" style="fill: rgb(187, 139, 64);" x="1760" y="-219"/>
<path d="M 1769 -174 L 1846 -174 C 1845 -175 1845 -150 1849 -143 C 1807 -153 1794 -135 1776 -149 C 1769 -154 1769 -174 1769 -174 Z" style="fill: rgb(6, 102, 39);"/>
<rect x="1776" y="-185" width="70" height="22" style="fill: rgb(12, 199, 79);"/>
<ellipse style="fill: rgb(7, 140, 54);" cx="1776" cy="-174" rx="7" ry="11"/>
<ellipse style="fill: rgb(12, 199, 79);" cx="1846" cy="-174" rx="7" ry="11"/>
<ellipse style="fill: rgb(6, 102, 39);" cx="1776" cy="-174" rx="5" ry="8"/>
<path style="fill: rgb(113, 77, 21); transform-origin: 929.363px -202.054px;" d="M 949 -174 L 937 -168 L 928 -156 L 922 -152 L 923 -148 L 927 -153 L 927 -150 L 929 -153 L 940 -163 L 954 -166 L 949 -174 Z"/>
<path style="fill: rgb(101, 101, 101);" d="M 967 -153 L 962 -151 L 957 -150 L 957 -154 L 960 -158 L 964 -156 L 967 -153 Z"/>
<path style="fill: rgb(69, 69, 69);" d="M 967 -153 L 962 -151 L 957 -150 L 961 -153 L 967 -153 Z"/>
<rect width="100" height="100" style="fill: rgb(187, 139, 64);" x="880" y="-330"/>
<path style="fill: rgb(216, 216, 216);" d="M 930 -256 L 949 -313 L 943 -322 L 938 -317 L 924 -258 L 915 -266 C 915 -266 915 -260 915 -260 L 926 -253 L 940 -251 L 941 -255 L 930 -256 Z"/>
<path style="fill: rgb(70, 47, 15);" d="M 919 -237 L 924 -255 L 929 -253 L 923 -236 L 919 -237 Z"/>
<rect width="100" height="100" style="fill: rgb(187, 139, 64);" x="330" y="-440"/>
<path style="fill: rgb(72, 49, 14);" d="M 363 -408 L 344 -389 L 356 -378 L 371 -393 L 363 -408 Z"/>
<path style="fill: rgb(72, 49, 14);" d="M 420 -385 L 397 -393 L 393 -374 L 412 -370 L 420 -385 Z"/>
<ellipse style="fill: none; stroke: rgb(72, 49, 14); stroke-width: 4px;" cx="374" cy="-397" rx="4" ry="4"/>
<ellipse style="fill: none; stroke: rgb(72, 49, 14); stroke-width: 4px;" cx="390" cy="-385" rx="4" ry="4"/>
<ellipse style="fill: none; stroke: rgb(72, 49, 14); stroke-width: 4px;" cx="386" cy="-397" rx="4" ry="4"/>
<rect width="100" height="100" style="fill: rgb(187, 139, 64);" x="1430" y="1"/>
<path style="fill: rgb(115, 79, 21);" d="M 1497 50 L 1490 50 L 1487 41 L 1494 39 L 1497 50 Z"/>
<path style="fill: rgb(114, 78, 21);" d="M 1466 84 L 1468 70 L 1477 72 L 1473 84 L 1474 85 L 1473 97 L 1463 98 L 1467 93 L 1464 85 L 1466 84 Z"/>
<path style="fill: rgb(114, 78, 21);" d="M 1484 84 L 1479 73 L 1487 70 L 1491 84 L 1493 85 L 1489 93 L 1493 99 L 1483 97 L 1483 85 L 1484 84 Z"/>
<path style="fill: rgb(77, 51, 16);" d="M 1450 65 L 1448 56 L 1445 57 L 1447 54 L 1450 53 L 1453 54 L 1450 55 L 1452 64 L 1450 65 Z"/>
<path style="fill: rgb(115, 79, 21);" d="M 1452 56 L 1459 50 L 1462 40 L 1469 41 L 1465 53 L 1453 59 L 1451 61 L 1450 58 L 1448 59 L 1448 57 L 1452 56 Z"/>
<path style="fill: rgb(77, 51, 16);" d="M 1463 33 L 1473 25 L 1481 25 L 1492 32 L 1497 40 L 1488 43 L 1487 56 L 1493 77 L 1481 80 L 1478 74 L 1476 80 L 1464 76 L 1468 57 L 1468 43 L 1458 42 L 1463 33 Z"/>
<path style="fill: rgb(77, 51, 16);" d="M 1469 23 L 1471 14 L 1477 8 L 1483 14 L 1485 23 L 1477 28 L 1469 23 Z"/>
<path style="fill: rgb(241, 134, 76);" d="M 1473 25 L 1473 15 L 1481 15 L 1481 25 L 1477 28 L 1473 25 Z"/>
<path style="fill: rgb(216, 216, 216);" d="M 1447 54 L 1440 17 L 1442 10 L 1450 53 L 1447 54 Z"/>
<ellipse style="fill: rgb(216, 216, 216);" cx="1495" cy="59" rx="16" ry="16"/>
<ellipse style="fill: rgb(101, 101, 101);" cx="1495" cy="59" rx="7" ry="7"/>
<path style="fill: rgb(116, 80, 20);" d="M 1449 63 L 1447 59 L 1450 58 L 1451 62 L 1449 63 Z"/>
<rect width="100" height="100" style="fill: rgb(187, 139, 64);" x="660" y="-110"/>
<ellipse style="fill: rgb(199, 9, 8);" cx="710" cy="-59" rx="31" ry="31"/>
<ellipse style="fill: rgba(255, 255, 255, 0.46);" cx="702" cy="-67" rx="12" ry="12"/>
<rect width="100" height="100" style="fill: rgb(187, 139, 64);" x="1760" y="-109"/>
<path style="fill: rgb(12, 199, 79);" d="M 1794 -87 C 1795 -89 1809 -97 1819 -94 C 1826 -68 1844 -77 1854 -54 C 1848 -61 1823 -39 1823 -39 L 1794 -87 Z"/>
<path style="fill: rgb(8, 140, 54);" d="M 1790 -20 C 1786 -18 1786 -23 1785 -25 L 1766 -75 C 1765 -77 1765 -79 1767 -80 L 1791 -90 C 1792 -90 1792 -90 1793 -89 L 1824 -47 C 1825 -46 1827 -41 1823 -39 L 1790 -20 Z"/>
<path style="fill: rgb(12, 199, 79);" d="M 1767 -80 L 1791 -90 L 1823 -46 L 1788 -26 L 1767 -80 Z"/>
<path style="fill: rgb(6, 102, 40);" d="M 1790 -22 C 1788 -21 1788 -24 1789 -25 L 1822 -43 C 1824 -44 1824 -41 1822 -40 L 1790 -22 Z"/>
<path style="fill: rgb(239, 239, 239);" d="M 1772 -67 L 1797 -82 L 1802 -75 L 1778 -52 L 1772 -67 Z"/>
<path style="fill: rgb(239, 239, 239);" d="M 1804 -74 L 1825 -81 L 1830 -76 L 1813 -62 L 1804 -74 Z"/>
<rect width="100" height="100" style="fill: rgb(187, 139, 64);" x="1760" y="1"/>
<path style="fill: rgb(12, 199, 79);" d="M 1795 24 C 1795 24 1809 13 1819 16 C 1826 42 1846 37 1856 60 C 1843 56 1830 71 1823 74 L 1795 24 Z"/>
<path style="fill: rgb(8, 140, 54);" d="M 1791 92 C 1787 94 1786 87 1785 85 L 1766 35 C 1765 33 1765 31 1767 30 L 1791 20 C 1792 20 1792 20 1793 21 L 1824 63 C 1825 64 1827 72 1823 74 L 1791 92 Z"/>
<path style="fill: rgb(12, 199, 79);" d="M 1767 30 L 1791 20 L 1823 64 L 1788 84 L 1767 30 Z"/>
<path style="fill: rgb(6, 102, 40);" d="M 1791 90 C 1789 91 1789 87 1790 86 L 1822 67 C 1824 66 1824 71 1822 72 L 1791 90 Z"/>
<path style="fill: rgb(239, 239, 239);" d="M 1772 43 L 1797 28 L 1802 35 L 1778 58 L 1772 43 Z"/>
<path style="fill: rgb(239, 239, 239);" d="M 1804 36 L 1825 29 L 1830 34 L 1813 48 L 1804 36 Z"/>
<rect width="100" height="100" style="fill: rgb(187, 139, 64);" x="1320"/>
<path style="fill: rgb(199, 9, 8); transform-origin: 1368.98px 84.7725px;" d="M 1412 73 C 1395 54 1367 79 1334 69 C 1328 67 1319 89 1323 92 C 1367 103 1382 76 1407 97 C 1412 97 1415 76 1412 73 Z"/>
<path style="fill: rgb(151, 7, 5); transform-origin: 1368.86px 83.4987px;" d="M 1411 72 C 1395 54 1366 78 1335 69 C 1329 67 1321 88 1326 89 C 1366 101 1383 74 1407 94 C 1411 94 1414 74 1411 72 Z"/>
<path style="fill: rgb(112, 76, 22);" d="M 1385 30 L 1381 45 L 1387 43 L 1387 39 L 1388 37 L 1385 30 Z"/>
<path style="fill: rgb(113, 77, 21);" d="M 1397 81 L 1400 84 L 1402 80 L 1399 79 L 1397 81 Z"/>
<path style="fill: rgb(113, 77, 21);" d="M 1385 49 L 1385 55 L 1405 50 L 1408 51 L 1410 49 L 1408 46 L 1404 48 L 1385 49 Z"/>
<path style="fill: rgb(223, 210, 179);" d="M 1383 25 L 1388 30 L 1384 34 L 1383 44 L 1388 51 L 1387 70 L 1394 68 L 1401 69 L 1403 74 L 1397 83 L 1386 84 L 1377 80 L 1374 72 L 1374 54 L 1376 47 L 1373 39 L 1376 29 L 1383 25 Z"/>
<path style="fill: rgb(113, 77, 21);" d="M 1377 53 L 1377 71 L 1390 81 L 1395 85 L 1394 81 L 1396 79 L 1392 79 L 1382 69 L 1385 54 L 1381 51 L 1377 53 Z"/>
<rect width="100" height="100" style="fill: rgb(187, 139, 64);" x="990"/>
<path style="fill: rgb(155, 115, 41); transform-origin: 1015.19px 103.532px;" d="M 1071 62 L 1043 52 L 1015 58 L 996 77 L 1011 93 L 1044 92 L 1069 80 L 1071 62 Z"/>
<path style="fill: rgb(70, 47, 15); transform-origin: 1024.86px 97.197px;" d="M 1026 66 L 1015 79 L 1025 85 L 1043 82 L 1059 63 L 1026 66 Z"/>
<path style="fill: rgb(113, 77, 21); transform-origin: 1024.86px 97.197px;" d="M 1026 66 L 1015 79 L 1026 74 L 1026 66 Z"/>
<path style="fill: rgb(112, 76, 22); transform-origin: 1024.86px 97.197px;" d="M 1026 66 L 1023 34 L 1056 29 L 1059 63 L 1049 66 L 1042 72 L 1033 72 L 1026 66 Z"/>
<path style="fill: rgb(70, 47, 15); transform-origin: 1024.86px 97.197px;" d="M 1026 66 L 1023 34 L 1029 37 L 1033 72 L 1026 66 Z"/>
<path style="fill: rgb(70, 47, 15); transform-origin: 1024.86px 97.197px;" d="M 1032 48 L 1054 44 L 1057 39 L 1057 42 L 1054 47 L 1032 51 L 1030 50 L 1030 47 L 1032 48 Z"/>
<path style="fill: rgb(111, 75, 22); transform-origin: 1024.86px 63.197px;" d="M 1032 48 L 1054 44 L 1063 31 L 1063 25 L 1012 23 L 1012 29 L 1017 42 L 1032 48 Z"/>
<path style="fill: rgb(154, 114, 41); transform-origin: 1024.86px 57.197px;" d="M 1032 42 L 1054 38 L 1063 25 L 1057 13 L 1042 9 L 1022 12 L 1012 23 L 1017 36 L 1032 42 Z"/>
<path style="fill: rgb(70, 47, 15); transform-origin: 1049.97px 111.812px;" d="M 1068 72 L 1066 70 L 1069 69 L 1073 73 L 1068 72 Z"/>
<path style="fill: rgb(113, 77, 21); transform-origin: 1070.49px 110.741px;" d="M 1073 73 L 1069 69 L 1066 70 L 1070 66 L 1075 70 L 1073 73 Z"/>
<path style="fill: rgb(70, 47, 15); transform-origin: 1043.91px 119.437px;" d="M 1043 95 L 1036 91 L 1043 90 L 1043 95 Z"/>
<path style="fill: rgb(113, 77, 21); transform-origin: 1064.43px 118.366px;" d="M 1043 95 L 1043 90 L 1036 91 L 1045 88 L 1048 92 L 1043 95 Z"/>
<rect width="100" height="100" style="fill: rgb(187, 139, 64);" x="990" y="-110"/>
<path style="fill: rgb(112, 76, 22); transform-origin: 1024.86px -2.803px;" d="M 1026 -34 L 1023 -66 L 1056 -71 L 1059 -37 L 1049 -34 L 1042 -28 L 1033 -28 L 1026 -34 Z"/>
<path style="fill: rgb(111, 75, 22); transform-origin: 1024.86px -36.803px;" d="M 1032 -52 L 1054 -56 L 1063 -69 L 1063 -75 L 1012 -77 L 1012 -71 L 1017 -58 L 1032 -52 Z"/>
<path style="fill: rgb(154, 114, 41); transform-origin: 1024.86px -42.803px;" d="M 1032 -58 L 1054 -62 L 1063 -75 L 1057 -87 L 1042 -91 L 1022 -88 L 1012 -77 L 1017 -64 L 1032 -58 Z"/>
<rect width="100" height="100" style="fill: rgb(187, 139, 64);" x="1210"/>
<path style="fill: rgb(199, 9, 8); transform-origin: 1259.19px 34.336px;" d="M 1278 24 L 1283 37 L 1242 50 L 1229 66 L 1247 78 L 1295 87 L 1294 73 L 1253 65 L 1298 49 L 1292 16 L 1268 11 L 1218 16 L 1231 28 L 1278 24 Z"/>
<rect width="300" height="300" style="fill: rgb(59, 127, 255);" y="2700" x="-100"/>
<path d="M -100 2850 L -8 2833 L 89 2829 L 200 2846 L 200 3000 L -100 3000 L -100 2850 Z" style="fill: rgb(72, 49, 14);"/>
<rect width="300" height="147" style="fill: rgb(186, 139, 64);" y="2853" x="-100"/>
<path d="M -100 2851 L 200 2850 L 200 2878 L -100 2860 L -100 2851 Z" style="fill: rgb(36, 78, 155);"/>
<path d="M 56 2853 L 64 2853 L 64 2839 L 56 2839 L 56 2853 Z" style="fill: rgb(79, 88, 105);"/>
<path d="M 36 2820 L 39 2820 L 39 2822 L 41 2822 L 41 2820 L 43 2820 L 43 2822 L 45 2822 L 45 2820 L 47 2820 L 47 2822 L 49 2822 L 49 2820 L 52 2820 L 51 2836 L 69 2835 L 68 2820 L 71 2820 L 71 2822 L 73 2822 L 73 2820 L 75 2820 L 75 2822 L 77 2822 L 77 2820 L 79 2820 L 79 2822 L 81 2822 L 81 2820 L 84 2820 L 83 2835 L 200 2842 L 200 2850 L 64 2854 L 63 2844 L 60 2840 L 57 2844 L 56 2854 L -100 2851 L -100 2831 L 37 2836 L 36 2820 Z" style="fill: rgb(154, 171, 206);"/>
<path d="M 56 2853 L 64 2853 L 69 2874 L 63 2876 L 51 2873 L 56 2853 Z" style="fill: rgb(118, 132, 155);"/>
<path d="M 56 2853 L 51 2868 L 51 2873 L 56 2853 Z" style="fill: rgb(79, 88, 105);"/>
<path d="M 69 2869 L 64 2853 L 69 2874 L 69 2869 Z" style="fill: rgb(79, 88, 105);"/>
<path d="M 51 2868 L 56 2853 L 53 2853 L 47 2868 L 47 2873 L 51 2873 L 51 2868 Z" style="fill: rgb(154, 171, 206);"/>
<path d="M 73 2869 L 67 2853 L 64 2853 L 69 2869 L 69 2874 L 73 2874 L 73 2869 Z" style="fill: rgb(154, 171, 206);"/>
<path d="M 310 2800 L 410 2800 L 410 2900 L 310 2900 L 310 2800 Z M 210 3000 L 510 3000 L 510 2700 L 210 2700 L 210 3000 Z" style="fill: rgba(0, 0, 0, 0.78);"/>
</svg>