<?xml version="1.0" encoding="utf-8"?>
<svg viewBox="0 0 100 100" xmlns="http://www.w3.org/2000/svg">
<rect width="100" height="100" style="fill: rgb(59, 127, 255);" y="-220" x="-110"/>
<rect width="100" height="70" style="fill: rgb(186, 139, 64);" y="-190" x="-110"/>
<path style="fill: rgb(108, 74, 23);" d="M -88 -185 L -48 -189 L -37 -189 L -37 -193 L -88 -192 L -88 -185 Z"/>
<path style="fill: rgb(167, 124, 56);" d="M -110 -163 L -72 -179 L -23 -175 L -10 -160 L -10 -144 L -110 -129 L -110 -163 Z"/>
<path d="M -77 -170 L -43 -170 L -41 -166 L -79 -166 L -77 -170 Z" style="fill: rgb(108, 74, 23);"/>
<path d="M -107 -208 L -103 -209 L -96 -208 L -82 -182 L -101 -179 L -110 -180 L -110 -202 L -107 -208 Z" style="fill: rgb(107, 74, 23);"/>
<path d="M -101 -179 L -103 -209 L -96 -208 L -82 -182 L -101 -179 Z" style="fill: rgb(150, 110, 43);"/>
<path d="M -75 -179 L -45 -179 L -43 -176 L -77 -176 L -75 -179 Z" style="fill: rgb(151, 6, 6);"/>
<path d="M -77 -176 L -43 -176 L -44 -168 L -76 -168 L -77 -176 Z" style="fill: rgb(151, 111, 42);"/>
<rect x="-79" y="164" width="38" height="2" style="fill: rgb(152, 112, 42);" transform="matrix(1, 0, 0, -1, 0, 0)"/>
<path d="M -75 -184 C -75 -185 -45 -186 -45 -184 C -44 -184 -42 -180 -44 -179 L -76 -179 C -78 -180 -76 -184 -75 -184 Z" style="fill: rgb(176, 9, 9);"/>
<ellipse style="fill: rgb(199, 9, 8);" cx="-77" rx="2" ry="4" cy="-179"/>
<ellipse style="fill: rgb(199, 9, 8);" cx="-43" rx="2" ry="4" cy="-179"/>
<path style="fill: rgb(223, 210, 179);" d="M -59 -194 L -61 -196 L -66 -194 L -68 -184 L -63 -182 L -70 -181 C -72 -181 -72 -178 -69 -177 L -62 -175 L -59 -177 L -56 -175 L -49 -177 C -46 -178 -46 -181 -48 -181 L -55 -182 L -50 -184 L -52 -194 L -57 -196 L -59 -194 Z"/>
<path style="fill: rgb(72, 49, 14);" d="M -62 -200 L -64 -204 C -64 -212 -54 -212 -54 -204 L -56 -200 L -62 -200 Z"/>
<path style="fill: rgb(110, 74, 23);" d="M -61 -199 L -61 -196 L -59 -193 L -57 -196 L -57 -199 L -61 -199 Z"/>
<path style="fill: rgb(72, 49, 14);" d="M -57 -178 L -61 -177 C -61 -177 -62 -174 -62 -174 L -59 -176 L -56 -176 L -57 -178 Z"/>
<path style="fill: rgb(110, 74, 23);" d="M -61 -178 L -57 -176 L -58 -171 L -60 -175 L -62 -176 L -61 -178 Z"/>
<path style="fill: rgb(224, 209, 179);" d="M -38 -196 L -36 -202 L -33 -196 L -29 -196 L -27 -200 L -25 -196 L -17 -196 L -15 -200 L -13 -196 L -10 -196 L -10 -186 L -41 -188 L -38 -196 Z"/>
<path style="fill: rgb(111, 75, 22);" d="M -62 -199 L -63 -204 C -63 -206 -55 -206 -55 -204 L -56 -199 L -62 -199 Z"/>
<path style="fill: rgb(72, 49, 14);" d="M -62 -199 L -59 -195 L -56 -199 C -56 -200 -62 -200 -62 -199 Z"/>
<path style="fill: rgb(248, 226, 30);" d="M -64 -204 L -65 -211 L -62 -208 L -59 -213 L -56 -208 L -53 -211 L -54 -204 C -54 -207 -64 -207 -64 -204 Z"/>
<path style="fill: rgb(112, 76, 22);" d="M -68 -184 L -62 -180 L -58 -179 L -58 -180 L -59 -180 L -59 -181 L -61 -181 L -65 -185 L -68 -184 Z"/>
<rect width="100" height="100" style="fill: rgb(59, 127, 255);" y="330"/>
<path d="M 0 377 C 38 371 57 383 100 381 L 100 430 L 0 430 L 0 377 Z" style="fill: rgb(185, 139, 64);"/>
<path d="M 0 408 C 36 416 57 390 100 396 L 100 430 L 0 430 L 0 408 Z" style="fill: rgb(167, 125, 56);"/>
<rect width="100" height="100" style="fill: rgb(187, 139, 64);" y="-110" x="-110"/>
<path d="M -93 -23 L -27 -23 L -23 -17 L -97 -17 L -93 -23 Z" style="fill: rgb(108, 74, 23);"/>
<path d="M -89 -41 L -31 -41 L -27 -35 L -93 -35 L -89 -41 Z" style="fill: rgb(151, 6, 6);"/>
<path d="M -93 -35 L -27 -35 L -29 -20 L -91 -20 L -93 -35 Z" style="fill: rgb(151, 111, 42);"/>
<rect x="-97" y="13" width="74" height="4" style="fill: rgb(152, 112, 42);" transform="matrix(1, 0, 0, -1, 0, 0)"/>
<path d="M -89 -50 C -89 -52 -31 -54 -31 -50 C -29 -50 -25 -43 -29 -41 L -91 -41 C -95 -43 -91 -50 -89 -50 Z" style="fill: rgb(176, 9, 9);"/>
<ellipse style="fill: rgb(199, 9, 8);" cx="-93" rx="4" ry="8" cy="-41"/>
<ellipse style="fill: rgb(199, 9, 8);" cx="-27" rx="4" ry="8" cy="-41"/>
<path style="fill: rgb(223, 210, 179);" d="M -58 -70 L -62 -74 L -72 -70 L -76 -50 L -68 -45 L -79 -44 C -83 -44 -83 -39 -77 -37 L -64 -33 L -58 -37 L -52 -33 L -39 -37 C -33 -39 -33 -44 -37 -44 L -46 -45 L -41 -57 L -35 -62 L -45 -71 L -54 -74 L -58 -70 Z"/>
<path style="fill: rgb(72, 49, 14);" d="M -64 -81 L -68 -89 C -68 -105 -48 -105 -48 -89 L -52 -81 L -64 -81 Z"/>
<path style="fill: rgb(110, 74, 23);" d="M -62 -79 L -62 -74 L -58 -68 L -54 -74 L -54 -79 L -62 -79 Z"/>
<path style="fill: rgb(72, 49, 14);" d="M -54 -39 L -62 -37 C -62 -37 -64 -30 -64 -30 L -58 -35 L -52 -34 L -54 -39 Z"/>
<path style="fill: rgb(110, 74, 23);" d="M -63 -39 L -54 -35 L -56 -25 L -60 -33 L -64 -34 L -63 -39 Z"/>
<path style="fill: rgb(111, 75, 22);" d="M -64 -79 L -65 -89 C -65 -93 -51 -93 -51 -89 L -52 -79 L -64 -79 Z"/>
<path style="fill: rgb(72, 49, 14);" d="M -64 -79 L -58 -72 L -52 -79 C -52 -83 -64 -83 -64 -79 Z"/>
<path style="fill: rgb(248, 226, 30);" d="M -68 -89 L -70 -103 L -64 -97 L -58 -107 L -52 -97 L -46 -103 L -48 -89 C -48 -95 -68 -95 -68 -89 Z"/>
<path style="fill: rgb(112, 76, 22);" d="M -76 -50 L -65 -43 L -56 -41 L -56 -43 L -58 -43 L -58 -44 L -62 -44 L -70 -52 L -76 -50 Z"/>
<path style="fill: rgb(113, 77, 21);" d="M -35 -62 L -40 -47 L -40 -41 L -43 -40 L -44 -44 L -46 -45 L -43 -47 L -41 -57 L -35 -62 Z"/>
<rect width="100" height="100" style="fill: rgb(187, 139, 64);" x="220" y="-220"/>
<path style="fill: rgb(49, 34, 10);" d="M 247 -178 L 256 -176 L 267 -179 L 261 -175 L 267 -174 L 280 -178 L 271 -173 L 275 -172 L 290 -174 L 280 -170 L 287 -165 L 302 -167 L 304 -150 C 304 -150 296 -160 296 -161 C 296 -162 285 -161 285 -161 L 280 -156 L 284 -147 L 297 -146 L 279 -141 L 276 -154 L 269 -159 L 260 -145 L 264 -162 L 261 -164 L 253 -151 L 257 -166 L 253 -169 L 245 -159 L 250 -171 L 241 -177 L 239 -191 L 256 -202 L 280 -186 L 253 -191 L 245 -188 L 247 -178 Z"/>
<rect width="100" height="100" style="fill: rgb(59, 127, 255);" x="110" y="-220"/>
<path style="fill: rgb(151, 7, 5); transform-origin: 159.002px -155.34px;" d="M 123 -166 C 137 -182 161 -161 189 -169 C 194 -171 202 -152 198 -150 C 161 -140 148 -163 127 -145 C 123 -145 120 -163 123 -166 Z"/>
<rect width="100" height="100" style="fill: rgb(15, 32, 65);" y="440"/>
<path d="M 0 507 C 38 501 57 513 100 511 L 100 540 L 0 540 L 0 507 Z" style="fill: rgb(118, 89, 39);"/>
<circle style="fill: rgb(255, 255, 255);" cx="55" cy="469" r="1"/>
<circle style="fill: rgb(255, 255, 255);" cx="85" cy="449" r="1"/>
<circle style="fill: rgb(255, 255, 255);" cx="15" cy="459" r="1"/>
<circle style="fill: rgb(255, 255, 255);" cx="35" cy="447" r="1"/>
<circle style="fill: rgb(255, 255, 255);" cx="74" cy="459" r="1"/>
<path style="fill: rgb(112, 76, 22); transform-origin: -55px -182px;" d="M -50 -184 L -56 -180 L -60 -179 L -60 -180 L -59 -180 L -59 -181 L -57 -181 L -53 -185 L -50 -184 Z"/>
<path style="transform-origin: 159.104px -155.572px; fill: rgb(199, 9, 8);" d="M 124 -166 C 137 -181 162 -161 188 -168 C 193 -170 200 -152 196 -151 C 162 -141 147 -164 127 -147 C 124 -147 121 -164 124 -166 Z"/>
<circle style="fill: rgb(248, 227, 28);" cx="69" cy="340" r="4"/>
<rect width="100" height="100" style="fill: rgb(59, 127, 255);" y="220"/>
<rect width="100" height="70" style="fill: rgb(186, 139, 64);" y="250"/>
<path style="fill: rgb(109, 74, 23);" d="M 0 269 L 58 264 L 100 268 L 100 246 L 58 247 L 0 244 L 0 269 Z"/>
<path style="fill: rgb(208, 180, 116);" d="M 58 281 L 58 256 L 105 256 L 105 281 C 105 286 58 287 58 281 Z"/>
<path style="fill: rgb(223, 210, 179);" d="M 82 240 L 58 256 L 105 256 L 82 240 Z"/>
<path style="fill: rgb(167, 125, 56);" d="M 68 285 L 68 260 L 82 260 L 82 286 L 68 285 Z"/>
<path style="fill: rgb(208, 180, 116);" d="M -9 277 L -9 255 L 32 255 L 32 277 C 32 281 -9 282 -9 277 Z"/>
<path style="fill: rgb(223, 210, 179);" d="M 12 240 L -9 255 L 32 255 L 12 240 Z"/>
<path style="fill: rgb(167, 125, 56);" d="M 12 281 L 12 258 L 22 258 L 22 280 L 12 281 Z"/>
<rect width="100" height="100" style="fill: rgb(59, 127, 255);" y="110"/>
<rect width="100" height="70" style="fill: rgb(186, 139, 64);" y="140"/>
<path style="fill: rgb(108, 74, 23);" d="M 22 145 L 62 141 L 73 141 L 73 137 L 22 138 L 22 145 Z"/>
<path d="M 28 155 L 72 152 L 94 174 L 6 177 L 28 155 Z" style="fill: rgb(167, 125, 56);"/>
<path d="M 3 122 L 7 121 L 14 122 L 28 148 L 9 151 L -11 148 L 3 122 Z" style="fill: rgb(107, 74, 23);"/>
<path d="M 9 151 L 7 121 L 14 122 L 28 148 L 9 151 Z" style="fill: rgb(150, 110, 43);"/>
<path style="fill: rgb(224, 209, 179);" d="M 72 134 C 72 134 74 128 74 128 L 77 134 L 81 134 C 81 134 83 130 83 130 L 85 134 L 93 134 C 93 134 95 130 95 130 L 97 134 L 101 134 L 104 129 L 106 135 L 108 143 L 100 144 L 69 142 L 72 134 Z"/>
<path style="fill: rgb(110, 74, 23);" d="M 69 285 L 69 261 L 81 261 L 81 286 L 69 285 Z"/>
<path style="fill: rgb(111, 75, 22);" d="M 13 281 L 13 259 L 21 259 L 21 280 L 13 281 Z"/>
<path style="fill: rgb(168, 126, 56);" d="M 13 281 L 33 295 L -6 313 C -6 313 -1 325 -1 325 L 50 308 L 98 331 L 121 314 L 74 297 L 81 286 L 69 285 L 49 290 L 21 280 L 13 281 Z"/>
<circle style="fill: rgb(248, 227, 28);" cx="76" cy="227" r="3"/>
<path style="fill: rgb(255, 255, 255);" d="M 53 233 L 90 234 C 102 234 83 222 71 230 C 61 220 42 233 53 233 Z"/>
<path style="fill: rgb(255, 255, 255); transform-origin: 25.415px 229.74px;" d="M 40 233 L 10 233 C 0 233 19 220 29 229 C 36 218 49 233 40 233 Z"/>
<path style="fill: rgb(168, 126, 56);" d="M 36 277 L 34 252 L 37 253 L 38 277 L 36 277 Z"/>
<path style="fill: rgb(168, 126, 56);" d="M 53 280 L 54 256 L 56 255 L 55 280 L 53 280 Z"/>
<path style="fill: rgb(223, 210, 179);" d="M 57 255 C 57 260 33 255 33 252 L 40 250 L 50 251 L 57 255 Z"/>
<rect width="100" height="100" style="fill: rgb(187, 139, 64);" x="-110"/>
<path d="M -93 87 L -27 87 L -23 93 L -97 93 L -93 87 Z" style="fill: rgb(108, 74, 23);"/>
<path d="M -89 69 L -31 69 L -27 75 L -93 75 L -89 69 Z" style="fill: rgb(151, 6, 6);"/>
<path d="M -93 75 L -27 75 L -29 90 L -91 90 L -93 75 Z" style="fill: rgb(151, 111, 42);"/>
<path d="M -96 97 L -24 97 L -23 93 L -97 93 L -96 97 Z" style="fill: rgb(152, 112, 42);"/>
<path d="M -89 60 C -85 59 -35 59 -31 60 C -29 63 -29 69 -29 69 L -91 69 C -91 69 -91 63 -89 60 Z" style="fill: rgb(176, 9, 9);"/>
<ellipse style="fill: rgb(199, 9, 8);" cx="-93" rx="4" ry="8" cy="69"/>
<ellipse style="fill: rgb(199, 9, 8);" cx="-27" rx="4" ry="8" cy="69"/>
<path style="fill: rgb(223, 210, 179);" d="M -60 40 L -64 36 L -74 40 L -78 60 L -70 63 L -81 66 C -85 66 -85 71 -79 73 L -66 77 L -60 73 L -54 77 L -41 73 C -35 71 -35 66 -39 66 L -49 63 L -41 60 L -46 40 L -56 36 L -60 40 Z"/>
<path style="fill: rgb(223, 210, 179);" d="M -66 27 L -69 21 C -69 5 -51 5 -51 21 L -54 27 L -66 27 Z"/>
<path style="fill: rgb(110, 74, 23);" d="M -64 31 L -64 36 L -60 42 L -56 36 L -56 31 L -64 31 Z"/>
<path style="fill: rgb(72, 49, 14);" d="M -56 71 L -64 73 C -64 73 -66 80 -66 80 L -60 75 L -54 76 L -56 71 Z"/>
<path style="fill: rgb(110, 74, 23);" d="M -65 71 L -56 75 L -58 85 L -62 77 L -66 76 L -65 71 Z"/>
<path style="fill: rgb(111, 75, 22);" d="M -66 30 L -67 22 C -62 15 -53 18 -53 22 L -54 30 L -66 30 Z"/>
<path style="fill: rgb(72, 49, 14);" d="M -66 30 L -60 38 L -54 30 C -54 26 -66 26 -66 30 Z"/>
<path style="fill: rgb(194, 177, 22);" d="M -69 21 L -72 7 L -65 14 L -60 3 L -55 14 L -48 7 L -51 21 C -51 15 -69 15 -69 21 Z"/>
<path style="fill: rgb(112, 76, 22);" d="M -78 60 L -67 67 L -58 69 L -58 67 L -60 67 L -60 66 L -64 66 L -72 58 L -78 60 Z"/>
<path style="fill: rgb(112, 76, 22); transform-origin: -51px 63.5px;" d="M -41 60 L -52 67 L -61 69 L -61 67 L -59 67 L -59 66 L -55 66 L -47 58 L -41 60 Z"/>
<rect width="100" height="100" style="fill: rgb(187, 139, 64);" y="-110" x="110"/>
<path style="fill: rgb(114, 78, 21);" d="M 153 -28 L 154 -16 L 149 -12 L 153 -11 L 158 -15 L 158 -27 L 153 -28 Z"/>
<path style="fill: rgb(114, 78, 21); transform-origin: 167.214px -19.4138px;" d="M 168 -26 L 167 -16 L 172 -12 L 167 -11 L 163 -15 L 163 -27 L 168 -26 Z"/>
<path style="fill: rgb(223, 210, 179);" d="M 158 -107 L 153 -104 L 151 -96 L 153 -86 L 148 -83 L 153 -59 L 152 -28 L 170 -24 L 168 -58 L 171 -84 L 165 -87 L 167 -96 L 164 -105 L 158 -107 Z"/>
<path style="fill: rgb(112, 76, 22);" d="M 156 -103 L 153 -98 L 156 -90 L 159 -88 L 163 -90 L 165 -97 L 162 -103 L 156 -103 Z"/>
<path style="fill: rgb(113, 77, 21);" d="M 148 -83 L 144 -64 L 147 -47 L 150 -39 L 150 -46 L 152 -44 L 149 -49 L 148 -62 L 151 -70 L 148 -83 Z"/>
<path style="fill: rgb(113, 77, 21); transform-origin: 172.803px -60.0079px;" d="M 171 -83 L 177 -64 L 175 -48 L 172 -40 L 172 -46 L 170 -45 L 173 -49 L 173 -63 L 169 -71 L 171 -83 Z"/>
<rect width="100" height="100" style="fill: rgb(187, 139, 64);" x="110"/>
<path style="fill: rgb(114, 78, 21);" d="M 151 81 L 149 94 L 144 98 L 148 99 L 153 95 L 156 82 L 151 81 Z"/>
<path style="fill: rgb(114, 78, 21); transform-origin: 167.214px 90.5862px;" d="M 171 84 L 173 94 L 178 98 L 174 99 L 169 95 L 166 83 L 171 84 Z"/>
<path style="fill: rgb(223, 210, 179);" d="M 158 1 L 152 6 L 150 16 L 154 23 L 147 28 L 150 38 L 152 51 L 150 82 L 172 85 L 168 52 L 170 37 L 172 28 L 166 23 L 168 15 L 165 5 L 158 1 Z"/>
<path style="fill: rgb(112, 76, 22);" d="M 155 6 L 153 11 L 156 20 L 159 22 L 163 20 L 165 11 L 162 7 L 155 6 Z"/>
<path style="fill: rgb(113, 77, 21);" d="M 147 28 L 143 48 L 146 64 L 149 72 L 149 65 L 151 67 L 148 62 L 148 49 L 151 40 L 147 28 Z"/>
<path style="fill: rgb(113, 77, 21); transform-origin: 172.803px 49.9921px;" d="M 172 28 L 177 46 L 174 62 L 171 70 L 171 64 L 169 65 L 172 61 L 172 47 L 169 39 L 172 28 Z"/>
<rect width="100" height="100" style="fill: rgb(187, 139, 64);"/>
<rect width="100" height="100" style="fill: rgb(187, 139, 64);" x="220"/>
<path style="fill: rgb(113, 77, 21);" d="M 267 34 L 267 41 L 258 44 L 260 51 L 265 64 L 252 57 L 248 62 L 259 77 L 253 79 L 258 81 L 264 78 L 263 75 L 278 75 L 276 78 L 281 83 L 285 81 L 281 77 L 292 63 L 289 58 L 277 64 L 281 52 L 282 44 L 273 41 L 273 34 L 267 34 Z"/>
<path style="fill: rgb(112, 76, 22); transform-origin: 270.22px 31.0237px;" d="M 275 26 L 276 31 L 274 38 L 270 43 L 266 38 L 264 31 L 265 26 L 275 26 Z"/>
<path style="fill: rgb(223, 210, 179);" d="M 265 26 L 263 17 L 276 18 L 275 26 L 265 26 Z"/>
<path style="fill: rgb(223, 210, 179);" d="M 277 64 L 265 64 L 252 57 L 248 62 L 259 77 L 263 75 L 278 75 L 281 77 L 292 63 L 289 58 L 277 64 Z"/>
<path style="fill: rgb(113, 77, 21);" d="M 256 55 L 260 51 L 258 44 L 249 56 L 264 65 L 266 69 L 267 66 L 265 62 L 256 55 Z"/>
<path style="fill: rgb(113, 77, 21); transform-origin: 281.013px 55.8226px;" d="M 285 55 L 281 52 L 282 44 L 292 56 L 275 66 L 272 69 L 271 66 L 275 62 L 285 55 Z"/>
<circle style="fill: rgb(176, 9, 10);" transform="matrix(1, 0, 0, 0.401421, -330.124084, -256.955963)" cx="599" cy="864" r="15"/>
<circle style="fill: rgb(199, 9, 8);" transform="matrix(0.749045, 0, 0, 0.300682, -179.802002, -170.917786)" cx="599" cy="864" r="15"/>
<rect width="100" height="100" style="fill: rgb(187, 139, 64);" y="-110" x="220"/>
<path style="fill: rgb(114, 78, 21);" d="M 260 -29 L 261 -17 L 256 -13 L 260 -12 L 265 -16 L 265 -28 L 260 -29 Z"/>
<path style="fill: rgb(114, 78, 21); transform-origin: 281.915px -19.7864px;" d="M 280 -29 L 281 -16 L 286 -12 L 282 -11 L 277 -15 L 275 -27 L 280 -29 Z"/>
<path style="fill: rgb(33, 71, 141);" d="M 250 -66 L 262 -59 L 258 -23 L 268 -22 L 270 -26 L 274 -21 L 283 -23 L 278 -59 L 291 -63 L 286 -75 L 255 -76 L 250 -66 Z"/>
<path style="fill: rgb(199, 9, 8);" d="M 254 -76 L 260 -59 L 260 -51 L 257 -31 L 266 -28 L 270 -47 L 275 -26 L 284 -29 L 280 -51 L 280 -59 L 287 -75 L 277 -84 L 263 -85 L 254 -76 Z"/>
<path style="fill: rgb(113, 77, 21);" d="M 251 -66 L 251 -61 L 253 -44 L 256 -36 L 256 -42 L 258 -41 L 255 -46 L 255 -59 L 257 -62 L 251 -66 Z"/>
<path style="fill: rgb(199, 9, 8);" d="M 261 -100 L 264 -94 L 276 -94 L 280 -99 L 278 -103 L 270 -106 L 263 -104 L 261 -100 Z"/>
<path style="fill: rgb(223, 210, 179);" d="M 262 -85 L 264 -97 L 269 -99 L 276 -97 L 278 -84 L 282 -80 L 270 -83 L 258 -80 L 262 -85 Z"/>
<path style="fill: rgb(112, 76, 22);" d="M 270 -97 L 265 -95 L 265 -89 L 270 -91 L 275 -89 L 275 -95 L 270 -97 Z"/>
<path style="fill: rgb(72, 49, 14);" d="M 260 -58 L 271 -56 L 280 -58 L 280 -52 L 271 -51 L 260 -53 L 260 -58 Z"/>
<path style="fill: rgb(216, 216, 216);" d="M 231 -57 L 231 -20 L 233 -17 L 235 -20 L 234 -57 L 239 -57 C 239 -57 239 -59 239 -59 L 226 -59 L 226 -57 L 231 -57 Z"/>
<path style="fill: rgb(114, 78, 21);" d="M 231 -59 L 231 -68 L 234 -68 L 234 -59 L 231 -59 Z"/>
<path style="fill: rgb(216, 216, 216); transform-origin: 286.5px -36px;" d="M 276 -52 L 294 -20 L 297 -18 L 297 -22 L 278 -53 L 283 -56 C 283 -56 282 -57 282 -57 L 270 -51 L 271 -50 L 276 -52 Z"/>
<path style="transform-origin: 273.5px -57.5px; fill: rgb(72, 49, 14);" d="M 275 -53 L 271 -60 L 273 -61 L 278 -54 L 275 -53 Z"/>
<path style="fill: rgb(113, 77, 21); transform-origin: 286.423px -50.1669px;" d="M 290 -63 L 290 -60 L 288 -43 L 285 -35 L 285 -41 L 283 -40 L 286 -45 L 286 -58 L 284 -61 L 290 -63 Z"/>
<rect width="100" height="100" style="fill: rgb(187, 139, 64);" y="-110" x="330"/>
<path style="fill: rgb(101, 101, 101);" d="M 373 -30 L 374 -80 L 376 -82 L 389 -83 L 390 -80 L 392 -30 L 392 -19 L 398 -13 L 387 -15 L 386 -32 L 383 -38 L 380 -31 L 381 -14 L 370 -12 L 376 -18 L 373 -30 Z"/>
<path style="fill: rgb(239, 239, 239);" d="M 370 -78 L 372 -70 L 373 -52 L 372 -29 L 382 -26 L 384 -45 L 385 -25 L 394 -28 L 391 -53 L 393 -71 L 395 -79 L 390 -81 L 383 -77 L 374 -81 L 370 -78 Z"/>
<path style="fill: rgb(216, 216, 216);" d="M 376 -82 L 374 -99 L 381 -103 L 390 -98 L 389 -82 L 383 -81 L 376 -82 Z"/>
<path style="fill: rgb(60, 60, 60);" d="M 379 -92 L 376 -94 L 388 -94 L 385 -92 L 379 -92 Z"/>
<path style="fill: rgb(239, 239, 239);" d="M 357 -53 L 357 -16 L 359 -13 L 361 -16 L 360 -53 L 365 -51 C 365 -51 365 -55 365 -55 L 352 -55 L 352 -51 L 357 -53 Z"/>
<path style="fill: rgb(60, 60, 60);" d="M 357 -55 L 357 -64 L 360 -64 L 360 -55 L 357 -55 Z"/>
<path style="fill: rgb(101, 101, 101);" d="M 365 -64 L 366 -72 L 370 -78 L 373 -69 L 370 -61 L 362 -56 L 360 -55 L 360 -59 L 357 -60 L 360 -61 L 362 -60 L 365 -64 Z"/>
<path style="fill: rgb(199, 9, 8);" d="M 382 -58 L 381 -64 L 376 -64 L 376 -67 L 381 -68 L 381 -74 L 384 -74 L 384 -68 L 389 -67 L 389 -65 L 384 -64 L 385 -58 L 382 -58 Z"/>
<rect width="100" height="100" style="fill: rgb(187, 139, 64);" y="-220" x="330"/>
<path style="fill: rgb(101, 101, 101);" d="M 373 -140 L 374 -190 L 376 -192 L 389 -193 L 390 -190 L 392 -140 L 392 -129 L 398 -123 L 387 -125 L 386 -142 L 383 -148 L 380 -141 L 381 -124 L 370 -122 L 376 -128 L 373 -140 Z"/>
<path style="fill: rgb(239, 239, 239);" d="M 370 -188 L 372 -180 L 373 -162 L 372 -139 L 382 -136 L 384 -155 L 385 -135 L 394 -138 L 391 -163 L 393 -181 L 395 -189 L 390 -191 L 383 -187 L 374 -191 L 370 -188 Z"/>
<path style="fill: rgb(216, 216, 216);" d="M 376 -192 L 374 -209 L 381 -213 L 390 -208 L 389 -192 L 383 -191 L 376 -192 Z"/>
<path style="fill: rgb(60, 60, 60);" d="M 379 -202 L 376 -204 L 388 -204 L 385 -202 L 379 -202 Z"/>
<path style="fill: rgb(101, 101, 101);" d="M 364 -168 L 366 -182 L 370 -188 L 373 -179 L 370 -168 L 370 -158 L 373 -155 L 370 -155 L 372 -151 L 367 -153 L 364 -168 Z"/>
<path style="fill: rgb(101, 101, 101); transform-origin: 396.778px -171.617px;" d="M 401 -169 L 399 -183 L 395 -189 L 392 -180 L 395 -169 L 395 -159 L 393 -156 L 395 -156 L 394 -152 L 398 -154 L 401 -169 Z"/>
<path style="fill: rgb(199, 9, 8);" d="M 382 -168 L 381 -174 L 376 -174 L 376 -177 L 381 -178 L 381 -184 L 384 -184 L 384 -178 L 389 -177 L 389 -175 L 384 -174 L 385 -168 L 382 -168 Z"/>
<path style="fill: rgb(216, 216, 216);" d="M 389 -35 L 389 -53 L 408 -58 L 411 -37 L 402 -13 L 389 -35 Z"/>
<path style="fill: rgb(60, 60, 60);" d="M 373 -51 L 373 -54 L 391 -56 L 391 -52 L 373 -51 Z"/>
<path style="transform-origin: 396.778px -61.6172px; fill: rgb(101, 101, 101);" d="M 401 -56 L 399 -73 L 395 -79 L 392 -70 L 395 -59 L 387 -55 L 385 -50 L 387 -46 L 389 -51 L 401 -56 Z"/>
<path style="fill: rgb(199, 9, 8);" d="M 400 -25 L 399 -40 L 393 -40 L 393 -43 L 399 -44 L 398 -51 L 402 -52 L 402 -45 L 407 -46 L 407 -43 L 403 -41 L 402 -25 L 400 -25 Z"/>
<path style="fill: rgb(101, 101, 101);" d="M 356 -55 L 356 -59 L 359 -59 L 360 -55 L 356 -55 Z"/>
<rect width="100" height="100" style="fill: rgb(187, 139, 64);" y="-110" x="440"/>
<path style="fill: rgb(242, 134, 76); transform-origin: 498.5px -21.5px;" d="M 499 -30 L 498 -18 L 503 -14 L 499 -13 L 494 -17 L 494 -29 L 499 -30 Z"/>
<path style="fill: rgb(242, 134, 76); transform-origin: 476.658px -20.5011px;" d="M 479 -30 L 478 -17 L 473 -13 L 477 -12 L 482 -16 L 484 -28 L 479 -30 Z"/>
<path style="fill: rgb(77, 51, 16);" d="M 475 -78 L 482 -86 L 492 -86 L 500 -78 L 502 -76 L 499 -54 L 502 -20 L 475 -22 L 478 -55 L 473 -75 L 475 -78 Z"/>
<path style="fill: rgb(241, 134, 76);" d="M 483 -83 L 481 -95 L 486 -99 L 492 -96 L 493 -88 L 490 -83 L 483 -83 Z"/>
<path style="fill: rgb(110, 74, 23);" d="M 474 -78 L 486 -69 L 501 -78 L 492 -86 L 494 -82 L 487 -79 L 481 -82 L 482 -86 L 474 -78 Z"/>
<path style="fill: rgb(111, 75, 22); transform-origin: 471.102px -57.8162px;" d="M 471 -55 L 473 -75 L 477 -59 L 488 -56 L 487 -49 L 481 -52 L 471 -55 Z"/>
<path style="fill: rgb(111, 75, 22); transform-origin: 504.133px -58.3794px;" d="M 505 -55 L 502 -75 L 499 -64 L 499 -59 L 487 -57 L 489 -49 L 494 -53 L 505 -55 Z"/>
<path style="fill: rgb(216, 216, 216); transform-origin: 308.517px -84.8971px;" d="M 309 -85 L 305 -103 L 303 -105 L 301 -102 L 306 -84 L 301 -85 C 301 -85 302 -83 302 -83 L 308 -82 L 313 -86 L 313 -88 L 309 -85 Z"/>
<path style="fill: rgb(72, 49, 14); transform-origin: 309.571px -74.4697px;" d="M 309 -84 L 311 -76 L 309 -75 L 306 -83 L 309 -84 Z"/>
<circle style="fill: rgb(216, 216, 216);" cx="310" cy="-75" r="2"/>
<circle style="fill: rgb(255, 255, 255);" cx="61" cy="454" r="6"/>
<circle style="fill: rgb(14, 33, 65);" cx="58" cy="456" r="6"/>
<circle style="fill: rgb(255, 255, 255);" cx="25" cy="475" r="1"/>
<circle style="fill: rgb(255, 255, 255);" cx="87" r="1" cy="480"/>
<path style="fill: rgb(255, 255, 255);" d="M 154 -181 L 200 -179 C 215 -179 191 -196 177 -185 C 164 -198 141 -181 154 -181 Z"/>
<path style="fill: rgb(255, 255, 255); transform-origin: 148.396px -202.596px;" d="M 170 -198 L 126 -198 C 111 -198 139 -217 154 -204 C 164 -220 183 -198 170 -198 Z"/>
<path style="fill: rgb(255, 255, 255); transform-origin: 144.509px -131.675px;" d="M 166 -127 L 122 -126 C 107 -126 121 -146 135 -135 C 148 -148 179 -127 166 -127 Z"/>
<rect width="100" height="100" style="fill: rgb(187, 139, 64);" x="330"/>
<path style="fill: rgb(114, 78, 21);" d="M 364 61 L 360 93 L 353 98 L 359 98 L 366 95 L 367 81 L 371 68 L 376 80 L 377 94 L 384 96 L 388 94 L 382 91 L 382 80 L 379 59 L 364 61 Z"/>
<path style="fill: rgb(70, 47, 15);" d="M 370 6 L 364 16 L 366 25 L 359 31 L 363 57 L 360 83 L 382 72 L 381 56 L 384 31 L 379 27 L 382 17 L 379 8 L 370 6 Z"/>
<path style="fill: rgb(112, 76, 22);" d="M 375 12 L 367 16 L 369 24 L 376 26 L 379 16 L 375 12 Z"/>
<path style="fill: rgb(113, 77, 21);" d="M 359 31 L 354 52 L 357 68 L 360 76 L 360 69 L 362 71 L 359 66 L 359 53 L 362 44 L 359 31 Z"/>
<path style="fill: rgb(216, 216, 216); transform-origin: 401.569px 53.4601px;" d="M 402 52 L 412 22 L 409 17 L 406 20 L 399 51 L 394 47 C 394 47 394 50 394 50 L 400 54 L 407 55 L 408 53 L 402 52 Z"/>
<path style="fill: rgb(70, 47, 15);" d="M 395 62 L 398 53 L 401 54 L 397 63 L 395 62 Z"/>
<path style="fill: rgb(113, 77, 21); transform-origin: 385.944px 56.5113px;" d="M 384 31 L 388 49 L 398 54 L 399 56 L 398 57 L 397 56 L 396 59 L 394 56 L 383 53 L 382 44 L 384 31 Z"/>
<path style="fill: rgb(114, 78, 21);" d="M 396 59 L 399 55 L 401 56 L 399 60 L 396 59 Z"/>
<circle style="fill: rgb(255, 255, 255);" cx="4" cy="484" r="1"/>
<path style="fill: rgb(223, 210, 179);" d="M 92 25 L 86 22 L 77 21 L 65 36 L 58 38 L 40 27 L 24 35 L 15 50 L 15 72 L 18 92 L 23 92 L 21 89 L 18 74 L 21 60 L 23 72 L 31 89 L 31 92 L 36 92 L 34 89 L 26 73 L 28 59 L 43 60 L 57 58 L 56 73 L 54 92 L 58 92 L 56 88 L 60 74 L 63 59 L 67 74 L 74 91 L 78 91 L 75 88 L 70 72 L 68 59 L 77 47 L 83 28 L 92 25 Z"/>
<path style="fill: rgb(223, 210, 179);" d="M 46 487 L 44 486 L 41 485 L 36 490 L 34 491 L 28 487 L 22 490 L 19 495 L 19 503 L 20 510 L 22 510 L 21 509 L 20 504 L 21 499 L 22 503 L 25 509 L 25 510 L 26 510 L 26 509 L 23 503 L 24 498 L 29 499 L 34 498 L 33 503 L 33 510 L 34 510 L 33 508 L 35 504 L 36 498 L 37 504 L 40 509 L 41 509 L 40 508 L 38 503 L 38 498 L 41 494 L 43 488 L 46 487 Z"/>
<path style="fill: rgb(223, 210, 179); transform-origin: 71.5px 501.5px;" d="M 86 493 L 85 492 L 82 490 L 76 495 L 74 495 L 69 490 L 62 493 L 58 497 L 57 505 L 57 512 L 59 512 L 58 511 L 58 506 L 60 501 L 60 505 L 62 512 L 62 513 L 63 513 L 63 512 L 61 506 L 63 501 L 68 502 L 73 502 L 71 507 L 70 514 L 71 514 L 71 512 L 73 508 L 75 502 L 75 509 L 77 514 L 78 514 L 77 513 L 76 508 L 77 503 L 80 499 L 83 494 L 86 493 Z"/>
</svg>