<?xml version="1.0" encoding="utf-8"?>
<svg viewBox="0 0 100 100" xmlns="http://www.w3.org/2000/svg">
<defs>
<linearGradient gradientUnits="userSpaceOnUse" x1="360" y1="1916" x2="360" y2="1940" id="gradient-2" gradientTransform="matrix(1, 0, 0, 0.801344, 0, 412.683411)">
<stop offset="0" style="stop-color: rgba(186, 139, 64, 1)"/>
<stop offset="1" style="stop-color: rgba(110, 82, 38, 1)"/>
</linearGradient>
</defs>
<rect width="100" height="100" style="fill: rgb(187, 139, 64);" y="-110" x="220"/>
<path d="M 237 -23 L 303 -23 L 307 -17 L 233 -17 L 237 -23 Z" style="fill: rgb(108, 74, 23);"/>
<path d="M 241 -41 L 299 -41 L 303 -35 L 237 -35 L 241 -41 Z" style="fill: rgb(151, 6, 6);"/>
<path d="M 237 -35 L 303 -35 L 301 -20 L 239 -20 L 237 -35 Z" style="fill: rgb(151, 111, 42);"/>
<rect x="233" y="13" width="74" height="4" style="fill: rgb(152, 112, 42);" transform="matrix(1, 0, 0, -1, 0, 0)"/>
<path d="M 241 -50 C 241 -52 299 -54 299 -50 C 301 -50 305 -43 301 -41 L 239 -41 C 235 -43 239 -50 241 -50 Z" style="fill: rgb(176, 9, 9);"/>
<ellipse style="fill: rgb(199, 9, 8);" cx="237" rx="4" ry="8" cy="-41"/>
<ellipse style="fill: rgb(199, 9, 8);" cx="303" rx="4" ry="8" cy="-41"/>
<path style="fill: rgb(223, 210, 179);" d="M 272 -70 L 268 -74 L 258 -70 L 254 -50 L 262 -45 L 251 -44 C 247 -44 247 -39 253 -37 L 266 -33 L 272 -37 L 278 -33 L 291 -37 C 297 -39 297 -44 293 -44 L 284 -45 L 289 -57 L 295 -62 L 285 -71 L 276 -74 L 272 -70 Z"/>
<path style="fill: rgb(72, 49, 14);" d="M 266 -81 L 262 -89 C 262 -105 282 -105 282 -89 L 278 -81 L 266 -81 Z"/>
<path style="fill: rgb(110, 74, 23);" d="M 268 -79 L 268 -74 L 272 -68 L 276 -74 L 276 -79 L 268 -79 Z"/>
<path style="fill: rgb(72, 49, 14);" d="M 276 -39 L 268 -37 C 268 -37 266 -30 266 -30 L 272 -35 L 278 -34 L 276 -39 Z"/>
<path style="fill: rgb(110, 74, 23);" d="M 267 -39 L 276 -35 L 274 -25 L 270 -33 L 266 -34 L 267 -39 Z"/>
<path style="fill: rgb(111, 75, 22);" d="M 266 -79 L 265 -89 C 265 -93 279 -93 279 -89 L 278 -79 L 266 -79 Z"/>
<path style="fill: rgb(72, 49, 14);" d="M 266 -79 L 272 -72 L 278 -79 C 278 -83 266 -83 266 -79 Z"/>
<path style="fill: rgb(248, 226, 30);" d="M 262 -89 L 260 -103 L 266 -97 L 272 -107 L 278 -97 L 284 -103 L 282 -89 C 282 -95 262 -95 262 -89 Z"/>
<path style="fill: rgb(112, 76, 22);" d="M 254 -50 L 265 -43 L 274 -41 L 274 -43 L 272 -43 L 272 -44 L 268 -44 L 260 -52 L 254 -50 Z"/>
<path style="fill: rgb(113, 77, 21);" d="M 295 -62 L 290 -47 L 290 -41 L 287 -40 L 286 -44 L 284 -45 L 287 -47 L 289 -57 L 295 -62 Z"/>
<rect width="100" height="100" style="fill: rgb(187, 139, 64);" x="770"/>
<path style="fill: rgb(72, 49, 14);" d="M 797 44 L 806 46 L 817 43 L 811 47 L 817 48 L 830 44 L 821 49 L 825 50 L 840 48 L 830 52 L 837 57 L 852 55 L 854 72 C 854 72 846 62 846 61 C 846 60 835 61 835 61 L 830 66 L 834 75 L 847 76 L 829 81 L 826 68 L 819 63 L 810 77 L 814 60 L 811 58 L 803 71 L 807 56 L 803 53 L 795 63 L 800 51 L 791 45 L 789 31 L 806 20 L 830 36 L 803 31 L 795 34 L 797 44 Z"/>
<rect width="100" height="100" style="fill: rgb(187, 139, 64);" x="1210" y="-110"/>
<path style="fill: rgb(151, 7, 5); transform-origin: 1259px -56.7425px;" d="M 1225 -42 C 1225 -63 1257 -62 1274 -86 C 1277 -91 1295 -81 1293 -77 C 1270 -46 1246 -56 1241 -28 C 1238 -26 1224 -38 1225 -42 Z"/>
<path style="fill: rgb(199, 9, 8); transform-origin: 1258.93px -56.9861px;" d="M 1225 -43 C 1226 -63 1258 -63 1274 -85 C 1277 -89 1293 -80 1291 -76 C 1271 -47 1245 -56 1240 -30 C 1237 -28 1224 -39 1225 -43 Z"/>
<rect width="300" height="300" style="fill: rgb(15, 32, 65);" y="840" x="-100"/>
<path d="M -100 1010 L 16 998 L 53 1001 L 91 995 L 200 1009 L 200 1140 L -100 1140 L -100 1010 Z" style="fill: rgb(8, 19, 38);"/>
<path d="M -100 1007 C -62 1001 157 1013 200 1011 L 200 1140 L -100 1140 L -100 1007 Z" style="fill: rgb(118, 89, 39);"/>
<rect width="300" height="300" style="fill: rgb(59, 127, 255);" y="530" x="-100"/>
<rect width="300" height="170" style="fill: rgb(186, 139, 64);" y="660" x="-100"/>
<path style="fill: rgb(109, 74, 23);" d="M -100 679 L 58 674 L 200 678 L 200 656 L 58 657 L -100 654 L -100 679 Z"/>
<path style="fill: rgb(208, 180, 116);" d="M 58 691 L 58 666 L 105 666 L 105 691 C 105 696 66 699 58 691 Z"/>
<path style="fill: rgb(223, 210, 179);" d="M 82 650 L 58 666 L 105 666 L 82 650 Z"/>
<path style="fill: rgb(167, 125, 56);" d="M 68 695 L 68 670 L 82 670 L 82 696 L 68 695 Z"/>
<path style="fill: rgb(208, 180, 116);" d="M -9 687 L -9 665 L 32 665 L 32 687 C 21 692 -9 692 -9 687 Z"/>
<path style="fill: rgb(223, 210, 179);" d="M 12 650 L -9 665 L 32 665 L 12 650 Z"/>
<path style="fill: rgb(167, 125, 56);" d="M 12 691 L 12 668 L 22 668 L 22 690 L 12 691 Z"/>
<rect width="300" height="300" style="fill: rgb(59, 127, 255);" x="-100" y="220"/>
<rect width="300" height="162" style="fill: rgb(186, 139, 64);" y="358" x="-100"/>
<path style="fill: rgb(108, 74, 23);" d="M -100 365 L 62 361 L 200 361 L 200 357 L -100 358 L -100 365 Z"/>
<path d="M 32 372 L 67 372 L 93 397 L 6 397 L 32 372 Z" style="fill: rgb(167, 125, 56);"/>
<path d="M 3 342 L 7 341 L 14 342 L 28 368 L 9 371 L -11 368 L 3 342 Z" style="fill: rgb(107, 74, 23);"/>
<path d="M 9 371 L 7 341 L 14 342 L 28 368 L 9 371 Z" style="fill: rgb(150, 110, 43);"/>
<path style="fill: rgb(224, 209, 179);" d="M 72 354 C 72 354 74 348 74 348 L 77 354 L 81 354 C 81 354 83 350 83 350 L 85 354 L 93 354 C 93 354 95 350 95 350 L 97 354 L 101 354 L 104 349 L 106 355 L 108 363 L 100 364 L 69 362 L 72 354 Z"/>
<path style="fill: rgb(72, 49, 14);" d="M 69 695 L 69 671 L 81 671 L 81 696 L 69 695 Z"/>
<path style="fill: rgb(72, 49, 14);" d="M 13 691 L 13 669 L 21 669 L 21 690 L 13 691 Z"/>
<path style="fill: rgb(168, 126, 56);" d="M 13 691 L 33 707 L -100 783 L -100 820 L 51 724 L 200 830 L 200 784 L 71 709 L 81 696 L 69 695 L 48 700 L 21 690 L 13 691 Z"/>
<circle style="fill: rgb(248, 227, 28);" cx="76" cy="637" r="3"/>
<path style="fill: rgb(255, 255, 255);" d="M 53 643 L 90 644 C 102 644 83 632 71 640 C 61 630 42 643 53 643 Z"/>
<path style="fill: rgb(255, 255, 255);" d="M 40 643 L 10 643 C 0 643 19 630 29 639 C 36 628 49 643 40 643 Z"/>
<path style="fill: rgb(168, 126, 56);" d="M 36 687 L 34 662 L 37 663 L 38 687 L 36 687 Z"/>
<path style="fill: rgb(168, 126, 56);" d="M 53 690 L 54 666 L 56 665 L 55 690 L 53 690 Z"/>
<path style="fill: rgb(223, 210, 179);" d="M 57 665 C 57 670 33 665 33 662 L 40 660 L 50 661 L 57 665 Z"/>
<rect width="100" height="100" style="fill: rgb(187, 139, 64);" x="220"/>
<path d="M 237 87 L 303 87 L 307 93 L 233 93 L 237 87 Z" style="fill: rgb(108, 74, 23);"/>
<path d="M 241 69 L 299 69 L 303 75 L 237 75 L 241 69 Z" style="fill: rgb(151, 6, 6);"/>
<path d="M 237 75 L 303 75 L 301 90 L 239 90 L 237 75 Z" style="fill: rgb(151, 111, 42);"/>
<path d="M 234 97 L 306 97 L 307 93 L 233 93 L 234 97 Z" style="fill: rgb(152, 112, 42);"/>
<path d="M 241 60 C 245 59 295 59 299 60 C 301 63 301 69 301 69 L 239 69 C 239 69 239 63 241 60 Z" style="fill: rgb(176, 9, 9);"/>
<ellipse style="fill: rgb(199, 9, 8);" cx="237" rx="4" ry="8" cy="69"/>
<ellipse style="fill: rgb(199, 9, 8);" cx="303" rx="4" ry="8" cy="69"/>
<path style="fill: rgb(223, 210, 179);" d="M 271 45 L 266 36 L 256 40 L 252 60 L 260 63 L 249 66 C 245 66 245 71 251 73 L 264 77 L 270 73 L 276 77 L 289 73 C 295 71 295 66 291 66 L 281 63 L 289 60 L 284 40 L 274 36 L 271 45 Z"/>
<path style="fill: rgb(72, 49, 14);" d="M 264 27 L 261 21 C 261 5 279 5 279 21 L 276 27 L 264 27 Z"/>
<path style="fill: rgb(110, 74, 23);" d="M 266 31 L 266 36 L 271 45 L 274 36 L 274 31 L 266 31 Z"/>
<path style="fill: rgb(72, 49, 14);" d="M 274 71 L 266 73 C 266 73 264 80 264 80 L 270 75 L 276 76 L 274 71 Z"/>
<path style="fill: rgb(110, 74, 23);" d="M 265 71 L 274 75 L 272 85 L 268 77 L 264 76 L 265 71 Z"/>
<path style="fill: rgb(111, 75, 22);" d="M 264 30 L 263 22 C 268 15 277 18 277 22 L 276 30 L 264 30 Z"/>
<path style="fill: rgb(72, 49, 14);" d="M 264 30 L 270 38 L 276 30 C 276 26 264 26 264 30 Z"/>
<path style="fill: rgb(248, 227, 28);" d="M 261 21 L 258 7 L 265 14 L 270 3 L 275 14 L 282 7 L 279 21 C 279 15 261 15 261 21 Z"/>
<path style="fill: rgb(112, 76, 22);" d="M 252 60 L 263 67 L 272 69 L 272 67 L 270 67 L 270 66 L 266 66 L 258 58 L 252 60 Z"/>
<path style="fill: rgb(112, 76, 22);" d="M 289 60 L 278 67 L 269 69 L 269 67 L 271 67 L 271 66 L 275 66 L 283 58 L 289 60 Z"/>
<rect width="100" height="100" style="fill: rgb(187, 139, 64);" y="-110" x="330"/>
<path style="fill: rgb(114, 78, 21);" d="M 373 -28 L 374 -16 L 369 -12 L 373 -11 L 378 -15 L 378 -27 L 373 -28 Z"/>
<path style="fill: rgb(114, 78, 21); transform-origin: 387.214px -19.4138px;" d="M 388 -26 L 387 -16 L 392 -12 L 387 -11 L 383 -15 L 383 -27 L 388 -26 Z"/>
<path style="fill: rgb(223, 210, 179);" d="M 378 -107 L 373 -104 L 371 -96 L 373 -86 L 368 -83 L 373 -59 L 372 -28 L 390 -24 L 388 -58 L 391 -84 L 385 -87 L 387 -96 L 384 -105 L 378 -107 Z"/>
<path style="fill: rgb(112, 76, 22);" d="M 376 -103 L 373 -98 L 376 -90 L 379 -88 L 383 -90 L 385 -97 L 382 -103 L 376 -103 Z"/>
<path style="fill: rgb(113, 77, 21);" d="M 368 -83 L 364 -64 L 367 -47 L 370 -39 L 370 -46 L 372 -44 L 369 -49 L 368 -62 L 371 -70 L 368 -83 Z"/>
<path style="fill: rgb(113, 77, 21); transform-origin: 392.803px -60.0079px;" d="M 391 -83 L 397 -64 L 395 -48 L 392 -40 L 392 -46 L 390 -45 L 393 -49 L 393 -63 L 389 -71 L 391 -83 Z"/>
<rect width="100" height="100" style="fill: rgb(187, 139, 64);" x="330"/>
<path style="fill: rgb(114, 78, 21);" d="M 371 81 L 369 94 L 364 98 L 368 99 L 373 95 L 376 82 L 371 81 Z"/>
<path style="fill: rgb(114, 78, 21); transform-origin: 387.214px 90.5862px;" d="M 391 84 L 393 94 L 398 98 L 394 99 L 389 95 L 386 83 L 391 84 Z"/>
<path style="fill: rgb(223, 210, 179);" d="M 378 1 L 372 6 L 370 16 L 374 23 L 367 28 L 370 38 L 372 51 L 370 82 L 392 85 L 388 52 L 390 37 L 392 28 L 386 23 L 388 15 L 385 5 L 378 1 Z"/>
<path style="fill: rgb(112, 76, 22);" d="M 375 6 L 373 11 L 376 20 L 379 22 L 383 20 L 385 11 L 382 7 L 375 6 Z"/>
<path style="fill: rgb(113, 77, 21);" d="M 367 28 L 363 48 L 366 64 L 369 72 L 369 65 L 371 67 L 368 62 L 368 49 L 371 40 L 367 28 Z"/>
<path style="fill: rgb(113, 77, 21);" d="M 392 28 L 397 46 L 394 62 L 391 70 L 391 64 L 389 65 L 392 61 L 392 47 L 389 39 L 392 28 Z"/>
<rect width="100" height="100" style="fill: rgb(187, 139, 64);" x="660"/>
<rect width="100" height="100" style="fill: rgb(187, 139, 64);" x="440"/>
<path style="fill: rgb(114, 78, 21);" d="M 493 41 L 502 44 L 501 52 L 497 64 L 509 58 L 512 63 L 501 77 L 505 81 L 501 83 L 496 78 L 498 75 L 483 75 L 484 78 L 478 81 L 473 79 L 479 77 L 468 62 L 472 57 L 485 64 L 480 51 L 478 44 L 487 41 L 487 39 L 484 32 L 485 29 L 495 28 L 496 32 L 493 39 L 493 41 Z"/>
<path style="fill: rgb(223, 210, 179);" d="M 485 29 L 484 22 L 496 23 L 495 28 L 485 29 Z"/>
<path style="fill: rgb(223, 210, 179);" d="M 497 64 L 485 64 L 472 57 L 468 62 L 479 77 L 483 75 L 498 75 L 501 77 L 512 63 L 509 58 L 497 64 Z"/>
<path style="fill: rgb(113, 77, 21);" d="M 476 55 L 481 51 L 478 44 L 469 56 L 484 65 L 486 69 L 487 66 L 485 62 L 476 55 Z"/>
<path style="fill: rgb(113, 77, 21);" d="M 505 55 L 500 52 L 502 44 L 512 56 L 495 66 L 492 69 L 491 66 L 495 62 L 505 55 Z"/>
<rect width="100" height="100" style="fill: rgb(187, 139, 64);" x="550"/>
<path style="fill: rgb(114, 78, 21);" d="M 590 81 L 591 93 L 586 97 L 590 98 L 595 94 L 595 82 L 590 81 Z"/>
<path style="fill: rgb(114, 78, 21);" d="M 610 81 L 611 94 L 616 98 L 612 99 L 607 95 L 605 83 L 610 81 Z"/>
<path style="fill: rgb(33, 71, 141);" d="M 580 44 L 592 51 L 588 87 L 598 88 L 600 84 L 604 89 L 613 87 L 608 51 L 621 47 L 616 35 L 585 34 L 580 44 Z"/>
<path style="fill: rgb(199, 9, 8);" d="M 584 34 L 590 51 L 590 59 L 587 79 L 596 82 L 600 63 L 605 84 L 614 81 L 610 59 L 610 51 L 617 35 L 607 26 L 593 25 L 584 34 Z"/>
<path style="fill: rgb(113, 77, 21);" d="M 581 44 L 581 49 L 583 66 L 586 74 L 586 68 L 588 69 L 585 64 L 585 51 L 587 48 L 581 44 Z"/>
<path style="fill: rgb(101, 101, 101); transform-origin: 598.857px 6.66682px;" d="M 605 8 L 595 8 L 596 4 L 600 1 L 604 4 L 605 8 Z"/>
<path style="fill: rgb(199, 9, 8);" d="M 591 10 L 594 16 L 606 16 L 610 11 L 608 7 L 600 4 L 593 6 L 591 10 Z"/>
<path style="fill: rgb(223, 210, 179);" d="M 592 25 L 594 13 L 599 11 L 606 13 L 608 26 L 612 30 L 600 27 L 588 30 L 592 25 Z"/>
<path style="fill: rgb(112, 76, 22);" d="M 600 16 L 596 15 L 595 21 L 600 19 L 605 21 L 604 15 L 600 16 Z"/>
<path style="fill: rgb(72, 49, 14);" d="M 590 52 L 601 54 L 610 52 L 610 58 L 601 59 L 590 57 L 590 52 Z"/>
<path style="fill: rgb(216, 216, 216);" d="M 561 53 L 561 90 L 563 93 L 565 90 L 564 53 L 569 53 C 569 53 569 51 569 51 L 556 51 L 556 53 L 561 53 Z"/>
<path style="fill: rgb(114, 78, 21);" d="M 561 51 L 561 42 L 564 42 L 564 51 L 561 51 Z"/>
<path style="fill: rgb(216, 216, 216);" d="M 606 58 L 624 90 L 627 92 L 627 88 L 608 57 L 613 54 C 613 54 612 53 612 53 L 600 59 L 601 60 L 606 58 Z"/>
<path style="fill: rgb(72, 49, 14);" d="M 605 57 L 601 50 L 603 49 L 608 56 L 605 57 Z"/>
<path style="fill: rgb(113, 77, 21);" d="M 620 47 L 620 50 L 618 67 L 615 75 L 615 69 L 613 70 L 616 65 L 616 52 L 614 49 L 620 47 Z"/>
<rect width="100" height="100" style="fill: rgb(187, 139, 64);" x="1430"/>
<path style="fill: rgb(101, 101, 101);" d="M 1474 80 L 1474 30 L 1476 28 L 1489 27 L 1490 30 L 1492 80 L 1492 91 L 1498 97 L 1487 95 L 1486 78 L 1483 72 L 1480 79 L 1481 96 L 1470 98 L 1476 92 L 1474 80 Z"/>
<path style="fill: rgb(239, 239, 239);" d="M 1470 32 L 1472 40 L 1473 58 L 1472 81 L 1482 84 L 1484 65 L 1485 85 L 1494 82 L 1491 57 L 1493 39 L 1495 31 L 1490 29 L 1483 33 L 1474 29 L 1470 32 Z"/>
<path style="fill: rgb(216, 216, 216);" d="M 1476 28 L 1474 11 L 1481 7 L 1490 12 L 1489 28 L 1483 29 L 1476 28 Z"/>
<path style="fill: rgb(60, 60, 60);" d="M 1479 18 L 1476 16 L 1488 16 L 1485 18 L 1479 18 Z"/>
<path style="fill: rgb(239, 239, 239);" d="M 1457 57 L 1457 94 L 1459 97 L 1461 94 L 1460 57 L 1465 59 C 1465 59 1465 55 1465 55 L 1452 55 L 1452 59 L 1457 57 Z"/>
<path style="fill: rgb(60, 60, 60);" d="M 1457 55 L 1457 46 L 1460 46 L 1460 55 L 1457 55 Z"/>
<path style="fill: rgb(101, 101, 101);" d="M 1466 46 L 1467 39 L 1470 32 L 1473 41 L 1472 51 L 1462 54 L 1460 55 L 1460 51 L 1457 50 L 1460 49 L 1462 50 L 1466 46 Z"/>
<path style="fill: rgb(199, 9, 8);" d="M 1482 52 L 1481 46 L 1476 46 L 1476 43 L 1481 42 L 1481 36 L 1484 36 L 1484 42 L 1489 43 L 1489 45 L 1484 46 L 1485 52 L 1482 52 Z"/>
<rect width="100" height="100" style="fill: rgb(187, 139, 64);" y="-110" x="1430"/>
<path style="fill: rgb(101, 101, 101); transform-origin: 1481px -47.5px;" d="M 1492 -30 L 1491 -80 L 1489 -82 L 1476 -83 L 1475 -80 L 1473 -30 L 1473 -19 L 1467 -13 L 1478 -15 L 1479 -32 L 1482 -38 L 1485 -31 L 1484 -14 L 1495 -12 L 1489 -18 L 1492 -30 Z"/>
<path style="fill: rgb(239, 239, 239); transform-origin: 1482.5px -53px;" d="M 1495 -78 L 1493 -70 L 1492 -52 L 1493 -29 L 1483 -26 L 1481 -45 L 1480 -25 L 1471 -28 L 1474 -53 L 1472 -71 L 1470 -79 L 1475 -81 L 1482 -77 L 1491 -81 L 1495 -78 Z"/>
<path style="fill: rgb(216, 216, 216);" d="M 1489 -82 L 1491 -99 L 1484 -103 L 1475 -98 L 1476 -82 L 1482 -81 L 1489 -82 Z"/>
<path style="fill: rgb(60, 60, 60);" d="M 1486 -92 L 1489 -94 L 1477 -94 L 1480 -92 L 1486 -92 Z"/>
<path style="fill: rgb(101, 101, 101);" d="M 1501 -58 L 1499 -72 L 1495 -78 L 1492 -69 L 1495 -58 L 1495 -48 L 1492 -45 L 1495 -45 L 1493 -41 L 1498 -43 L 1501 -58 Z"/>
<path style="fill: rgb(101, 101, 101);" d="M 1464 -59 L 1466 -73 L 1470 -79 L 1473 -70 L 1470 -59 L 1470 -49 L 1472 -46 L 1470 -46 L 1471 -42 L 1467 -44 L 1464 -59 Z"/>
<path style="fill: rgb(199, 9, 8);" d="M 1483 -58 L 1484 -64 L 1489 -64 L 1489 -67 L 1484 -68 L 1484 -74 L 1481 -74 L 1481 -68 L 1476 -67 L 1476 -65 L 1481 -64 L 1480 -58 L 1483 -58 Z"/>
<path style="fill: rgb(216, 216, 216);" d="M 1489 75 L 1489 57 L 1508 52 L 1511 73 L 1502 97 L 1489 75 Z"/>
<path style="fill: rgb(60, 60, 60);" d="M 1473 59 L 1473 56 L 1491 54 L 1491 58 L 1473 59 Z"/>
<path style="fill: rgb(101, 101, 101);" d="M 1501 54 L 1499 37 L 1495 31 L 1492 40 L 1495 51 L 1487 55 L 1485 60 L 1487 64 L 1489 59 L 1501 54 Z"/>
<path style="fill: rgb(199, 9, 8);" d="M 1500 85 L 1499 70 L 1493 70 L 1493 67 L 1499 66 L 1498 59 L 1502 58 L 1502 65 L 1507 64 L 1507 67 L 1503 69 L 1502 85 L 1500 85 Z"/>
<path style="fill: rgb(101, 101, 101);" d="M 1456 55 L 1456 51 L 1459 51 L 1460 55 L 1456 55 Z"/>
<rect width="100" height="100" style="fill: rgb(187, 139, 64);" x="1540"/>
<path style="fill: rgb(242, 134, 76);" d="M 1599 80 L 1598 92 L 1603 96 L 1599 97 L 1594 93 L 1594 81 L 1599 80 Z"/>
<path style="fill: rgb(242, 134, 76);" d="M 1579 80 L 1578 93 L 1573 97 L 1577 98 L 1582 94 L 1584 82 L 1579 80 Z"/>
<path style="fill: rgb(77, 51, 16);" d="M 1575 32 L 1582 24 L 1592 24 L 1600 32 L 1602 34 L 1599 56 L 1602 90 L 1575 88 L 1578 55 L 1573 35 L 1575 32 Z"/>
<path style="fill: rgb(241, 134, 76);" d="M 1583 27 L 1581 15 L 1586 11 L 1592 14 L 1593 22 L 1590 27 L 1583 27 Z"/>
<path style="fill: rgb(110, 74, 23);" d="M 1574 32 L 1586 41 L 1601 32 L 1592 24 L 1594 28 L 1587 31 L 1581 28 L 1582 24 L 1574 32 Z"/>
<path style="fill: rgb(111, 75, 22);" d="M 1571 55 L 1573 35 L 1577 51 L 1588 54 L 1587 61 L 1581 58 L 1571 55 Z"/>
<path style="fill: rgb(111, 75, 22);" d="M 1605 55 L 1602 35 L 1599 46 L 1599 51 L 1587 53 L 1589 61 L 1594 57 L 1605 55 Z"/>
<path style="fill: rgb(216, 216, 216);" d="M 639 25 L 635 7 L 633 5 L 631 8 L 636 26 L 631 25 C 631 25 632 27 632 27 L 638 28 L 643 24 L 643 22 L 639 25 Z"/>
<path style="fill: rgb(72, 49, 14);" d="M 639 26 L 641 34 L 639 35 L 636 27 L 639 26 Z"/>
<circle style="fill: rgb(216, 216, 216);" cx="640" cy="35" r="2"/>
<circle style="fill: rgb(255, 255, 255);" cx="61" cy="954" r="6"/>
<circle style="fill: rgb(14, 33, 65);" cx="58" cy="956" r="6"/>
<rect width="100" height="100" style="fill: rgb(187, 139, 64);" x="880"/>
<path style="fill: rgb(114, 78, 21);" d="M 914 61 L 910 93 L 903 97 L 909 98 L 916 95 L 917 81 L 921 68 L 926 80 L 927 94 L 934 96 L 938 94 L 932 91 L 932 80 L 929 59 L 914 61 Z"/>
<path style="fill: rgb(70, 47, 15);" d="M 920 6 L 914 16 L 916 25 L 909 31 L 913 57 L 910 83 L 932 72 L 931 56 L 934 31 L 929 27 L 932 17 L 929 8 L 920 6 Z"/>
<path style="fill: rgb(112, 76, 22);" d="M 925 12 L 917 16 L 919 24 L 926 26 L 929 16 L 925 12 Z"/>
<path style="fill: rgb(113, 77, 21);" d="M 909 31 L 904 52 L 907 68 L 910 76 L 910 69 L 912 71 L 909 66 L 909 53 L 912 44 L 909 31 Z"/>
<path style="fill: rgb(216, 216, 216);" d="M 952 52 L 962 22 L 959 17 L 956 20 L 949 51 L 944 47 C 944 47 944 50 944 50 L 950 54 L 957 55 L 958 53 L 952 52 Z"/>
<path style="fill: rgb(70, 47, 15);" d="M 945 62 L 948 53 L 951 54 L 947 63 L 945 62 Z"/>
<path style="fill: rgb(113, 77, 21);" d="M 934 31 L 938 49 L 948 54 L 949 56 L 948 57 L 947 56 L 946 59 L 944 56 L 933 53 L 932 44 L 934 31 Z"/>
<path style="fill: rgb(114, 78, 21);" d="M 946 59 L 949 55 L 951 56 L 949 60 L 946 59 Z"/>
<path style="fill: rgb(223, 210, 179);" d="M 753 30 L 753 26 L 746 22 L 738 21 L 726 34 L 719 37 L 702 29 L 677 42 L 673 52 L 676 65 L 675 90 L 679 91 L 677 88 L 679 70 L 683 62 L 683 69 L 684 85 L 684 88 L 688 88 L 686 85 L 686 70 L 690 58 L 703 61 L 717 60 L 716 74 L 715 94 L 719 95 L 717 90 L 720 75 L 723 61 L 727 75 L 734 92 L 738 92 L 735 89 L 730 73 L 728 59 L 738 50 L 744 31 L 753 30 Z"/>
<rect width="300" height="300" style="fill: rgb(59, 127, 255);" y="1460" x="-100"/>
<path d="M -100 1605 L 16 1586 L 41 1595 L 91 1590 L 200 1604 L 200 1760 L -100 1760 L -100 1605 Z" style="fill: rgb(36, 78, 155);"/>
<rect width="300" height="153" style="fill: rgb(186, 139, 64);" y="1607" x="-100"/>
<path style="fill: rgb(114, 78, 21);" d="M 36 1610 L 36 1599 L 37 1600 L 36 1610 Z"/>
<path style="fill: rgb(208, 180, 116);" d="M 49 1612 L 76 1614 L 62 1598 L 49 1612 Z"/>
<path style="fill: rgb(114, 78, 21);" d="M 59 1617 L 60 1596 L 62 1595 L 61 1617 L 59 1617 Z"/>
<path style="fill: rgb(223, 210, 179);" d="M 26 1612 L 36 1601 C 41 1604 49 1600 62 1598 L 45 1618 L 26 1612 Z"/>
<rect width="100" height="100" style="fill: rgb(59, 127, 255);" x="1210" y="-220"/>
<path style="fill: rgb(151, 7, 5); transform-origin: 1259px -165.34px;" d="M 1223 -176 C 1237 -192 1261 -171 1289 -179 C 1294 -181 1302 -162 1298 -160 C 1261 -150 1248 -173 1227 -155 C 1223 -155 1220 -173 1223 -176 Z"/>
<path style="fill: rgb(199, 9, 8); transform-origin: 1259.1px -165.572px;" d="M 1224 -176 C 1237 -191 1262 -171 1288 -178 C 1293 -180 1300 -162 1296 -161 C 1262 -151 1247 -174 1227 -157 C 1224 -157 1221 -174 1224 -176 Z"/>
<path style="fill: rgb(255, 255, 255);" d="M 1238 -129 L 1296 -127 C 1315 -127 1284 -155 1267 -137 C 1251 -158 1222 -129 1238 -129 Z"/>
<path style="fill: rgb(255, 255, 255); transform-origin: 1248.4px -202.596px;" d="M 1270 -198 L 1226 -198 C 1211 -198 1239 -217 1254 -204 C 1264 -220 1283 -198 1270 -198 Z"/>
<rect width="100" height="100" style="fill: rgb(187, 139, 64);" x="880" y="-110"/>
<path style="fill: rgb(114, 78, 21); transform-origin: 935.5px -31.5px;" d="M 942 -49 L 945 -19 L 951 -15 L 946 -14 L 939 -17 L 938 -31 L 935 -42 L 930 -30 L 929 -16 L 922 -14 L 918 -16 L 924 -19 L 924 -30 L 927 -51 L 942 -49 Z"/>
<path style="fill: rgb(70, 47, 15);" d="M 932 -98 L 927 -90 L 927 -80 L 920 -77 L 924 -55 L 922 -29 L 935 -33 L 945 -32 L 945 -55 L 948 -77 L 941 -80 L 943 -91 L 940 -96 L 932 -98 Z"/>
<path style="fill: rgb(112, 76, 22);" d="M 935 -95 L 930 -89 L 931 -80 L 938 -80 L 941 -91 L 935 -95 Z"/>
<path style="fill: rgb(113, 77, 21); transform-origin: 949px -56px;" d="M 948 -77 L 954 -59 L 951 -43 L 947 -38 L 948 -42 L 946 -42 L 949 -45 L 949 -58 L 946 -65 L 948 -77 Z"/>
<path style="fill: rgb(70, 47, 15);" d="M 909 -16 L 907 -101 L 909 -101 L 911 -16 L 909 -16 Z"/>
<path style="fill: rgb(113, 77, 21); transform-origin: 917.944px -51.4887px;" d="M 920 -77 L 915 -62 L 910 -54 L 907 -53 L 908 -52 L 910 -52 L 910 -49 L 913 -53 L 919 -58 L 923 -65 L 920 -77 Z"/>
<path style="fill: rgb(114, 78, 21);" d="M 909 -48 L 909 -51 L 906 -52 L 907 -48 L 909 -48 Z"/>
<path style="fill: rgb(216, 216, 216); transform-origin: 891.569px -57.5399px;" d="M 906 -99 L 910 -101 L 908 -108 L 906 -99 Z"/>
<rect width="100" height="100" style="fill: rgb(187, 139, 64);" x="330" y="-220"/>
<path style="fill: rgb(114, 78, 21);" d="M 390 -138 L 391 -130 L 395 -129 L 392 -124 L 388 -124 L 385 -137 L 390 -138 Z"/>
<path style="fill: rgb(114, 78, 21);" d="M 370 -135 L 369 -129 L 365 -128 L 368 -123 L 372 -123 L 375 -136 L 370 -135 Z"/>
<path style="fill: rgb(113, 77, 21);" d="M 394 -191 L 398 -171 L 393 -156 L 390 -148 L 390 -155 L 388 -153 L 391 -158 L 393 -170 L 390 -179 L 394 -191 Z"/>
<path style="fill: rgb(113, 77, 21);" d="M 369 -191 L 364 -173 L 368 -157 L 371 -149 L 371 -155 L 373 -154 L 370 -158 L 369 -172 L 372 -180 L 369 -191 Z"/>
<path style="fill: rgb(223, 210, 179);" d="M 383 -218 L 389 -213 L 391 -203 L 387 -196 L 394 -191 L 391 -181 L 389 -168 L 391 -137 L 369 -134 L 373 -167 L 371 -182 L 369 -191 L 375 -196 L 373 -204 L 376 -214 L 383 -218 Z"/>
<rect width="100" height="100" style="fill: rgb(187, 139, 64);" x="550" y="-110"/>
<path style="fill: rgb(114, 78, 21); transform-origin: 630.927px -20.9701px;" d="M 626 -27 L 634 -18 L 632 -12 L 635 -13 L 638 -20 L 630 -29 L 626 -27 Z"/>
<path style="fill: rgb(114, 78, 21); transform-origin: 638.707px -44.1109px;" d="M 630 -45 L 642 -42 L 648 -45 L 647 -41 L 642 -38 L 630 -40 L 630 -45 Z"/>
<path style="fill: rgb(72, 49, 14); transform-origin: 604.073px -16.73px;" d="M 609 -24 L 604 -19 L 605 -17 L 611 -22 L 609 -24 Z"/>
<path style="fill: rgb(216, 216, 216); transform-origin: 610.945px -24.6435px;" d="M 610 -25 L 634 -48 L 637 -48 L 637 -45 L 612 -23 L 615 -20 L 613 -19 L 606 -27 L 608 -28 L 610 -25 Z"/>
<path style="fill: rgb(33, 71, 141); transform-origin: 608.345px -42.6097px;" d="M 585 -29 L 593 -37 L 629 -22 L 633 -29 L 624 -38 L 634 -38 L 639 -45 L 600 -53 L 600 -63 L 588 -65 L 577 -37 L 585 -29 Z"/>
<path style="fill: rgb(199, 9, 8); transform-origin: 601.345px -44.6097px;" d="M 576 -37 L 595 -36 L 602 -33 L 620 -24 L 626 -27 L 613 -45 L 626 -44 L 625 -49 L 609 -52 L 601 -55 L 588 -66 L 578 -61 L 582 -53 L 577 -45 L 576 -37 Z"/>
<path style="fill: rgb(113, 77, 21); transform-origin: 589.817px -19.8078px;" d="M 591 -35 L 592 -30 L 600 -17 L 602 -18 L 601 -16 L 604 -14 L 602 -12 L 598 -16 L 588 -27 L 586 -30 L 591 -35 Z"/>
<path style="fill: rgb(72, 49, 14); transform-origin: 601.845px -43.6097px;" d="M 596 -35 L 601 -41 L 605 -54 L 609 -52 L 607 -40 L 600 -34 L 596 -35 Z"/>
<path style="fill: rgb(113, 77, 21); transform-origin: 611.395px -55.1613px;" d="M 600 -62 L 603 -62 L 620 -62 L 626 -57 L 621 -59 L 621 -56 L 617 -61 L 604 -57 L 600 -56 L 600 -62 Z"/>
<rect width="100" height="100" style="fill: rgb(187, 139, 64);" x="550" y="-330"/>
<path style="fill: rgb(114, 78, 21); transform-origin: 636.426px -239.594px;" d="M 631 -245 L 641 -238 L 640 -232 L 643 -233 L 644 -241 L 634 -248 L 631 -245 Z"/>
<path style="fill: rgb(114, 78, 21); transform-origin: 638.28px -263.938px;" d="M 630 -263 L 642 -263 L 647 -267 L 647 -263 L 643 -259 L 631 -258 L 630 -263 Z"/>
<path style="fill: rgb(33, 71, 141); transform-origin: 609.218px -255.02px;" d="M 590 -237 L 596 -246 L 634 -241 L 636 -248 L 630 -255 L 635 -257 L 638 -265 L 599 -264 L 599 -271 L 587 -266 L 581 -263 L 576 -256 L 581 -244 L 590 -237 Z"/>
<path style="fill: rgb(199, 9, 8); transform-origin: 601.941px -255.239px;" d="M 581 -244 L 596 -246 L 606 -244 L 625 -240 L 631 -245 L 613 -259 L 626 -261 L 624 -266 L 608 -265 L 599 -266 L 591 -257 L 579 -249 L 581 -244 Z"/>
<path style="fill: rgb(199, 9, 8); transform-origin: 561.151px -253.593px;" d="M 562 -263 L 566 -260 L 570 -249 L 566 -246 L 559 -246 L 555 -254 L 558 -261 L 562 -263 Z"/>
<path style="fill: rgb(223, 210, 179); transform-origin: 571.539px -255.21px;" d="M 568 -261 L 565 -260 L 563 -255 L 569 -249 L 579 -249 L 576 -256 L 582 -259 L 572 -262 L 568 -261 Z"/>
<path style="fill: rgb(112, 76, 22); transform-origin: 568.521px -255.582px;" d="M 566 -256 L 568 -261 L 572 -262 L 570 -257 L 571 -252 L 566 -256 Z"/>
<path style="fill: rgb(113, 77, 21); transform-origin: 601.586px -232.161px;" d="M 593 -243 L 596 -241 L 609 -238 L 612 -240 L 613 -238 L 616 -239 L 615 -235 L 610 -236 L 595 -236 L 591 -239 L 593 -243 Z"/>
<path style="fill: rgb(72, 49, 14); transform-origin: 602.672px -254.392px;" d="M 599 -245 L 603 -255 L 603 -265 L 608 -264 L 603 -244 L 599 -245 Z"/>
<path style="fill: rgb(113, 77, 21); transform-origin: 606.239px -258.574px;" d="M 599 -271 L 602 -269 L 617 -262 L 620 -254 L 617 -258 L 615 -256 L 614 -262 L 601 -264 L 597 -265 L 599 -271 Z"/>
<path style="fill: rgb(239, 239, 239);" d="M 1623 57 L 1623 68 L 1627 68 L 1626 57 L 1631 57 L 1631 54 L 1626 54 L 1626 48 L 1623 48 L 1623 54 L 1618 54 L 1618 57 L 1623 57 Z"/>
<ellipse style="fill: rgb(176, 9, 10);" cx="490" cy="90" rx="14" ry="6"/>
<ellipse style="fill: rgb(199, 9, 8);" cx="490" cy="89" rx="11" ry="4"/>
<rect width="300" height="300" style="fill: rgb(59, 127, 255);" y="1770" x="-100"/>
<path d="M -100 1915 L 17 1902 L 40 1908 L 91 1902 L 200 1926 L 200 2070 L -100 2070 L -100 1915 Z" style="fill: rgb(36, 78, 155);"/>
<path d="M -100 1907 C -39 1892 77 1925 200 1919 L 200 2070 L -100 2070 L -100 1907 Z" style="fill: rgb(185, 139, 64);"/>
<rect width="300" height="300" style="fill: rgb(15, 32, 65);" y="840" x="210"/>
<path d="M 210 1010 L 326 991 L 351 1000 L 401 995 L 510 1009 L 510 1140 L 210 1140 L 210 1010 Z" style="fill: rgb(8, 19, 38);"/>
<path d="M 210 1007 C 248 1001 467 1013 510 1011 L 510 1140 L 210 1140 L 210 1007 Z" style="fill: rgb(118, 89, 39);"/>
<circle style="fill: rgb(255, 255, 255);" cx="365" cy="969" r="1"/>
<circle style="fill: rgb(255, 255, 255);" cx="395" cy="949" r="1"/>
<circle style="fill: rgb(255, 255, 255);" cx="325" cy="959" r="1"/>
<circle style="fill: rgb(255, 255, 255);" cx="345" cy="947" r="1"/>
<circle style="fill: rgb(255, 255, 255);" cx="384" cy="959" r="1"/>
<circle style="fill: rgb(255, 255, 255);" cx="371" cy="954" r="6"/>
<circle style="fill: rgb(14, 33, 65);" cx="368" cy="956" r="6"/>
<circle style="fill: rgb(255, 255, 255);" cx="335" cy="975" r="1"/>
<circle style="fill: rgb(255, 255, 255);" cx="397" r="1" cy="980"/>
<circle style="fill: rgb(255, 255, 255);" cx="314" cy="984" r="1"/>
<path style="fill: rgb(223, 210, 179);" d="M 356 987 L 354 986 L 351 985 L 346 990 L 344 991 L 338 987 L 332 990 L 329 995 L 329 1003 L 330 1010 L 332 1010 L 331 1009 L 330 1004 L 331 999 L 332 1003 L 335 1009 L 335 1010 L 336 1010 L 336 1009 L 333 1003 L 334 998 L 339 999 L 344 998 L 343 1003 L 343 1010 L 344 1010 L 343 1008 L 345 1004 L 346 998 L 347 1004 L 350 1009 L 351 1009 L 350 1008 L 348 1003 L 348 998 L 351 994 L 353 988 L 356 987 Z"/>
<path style="fill: rgb(223, 210, 179); transform-origin: 381.5px 1001.5px;" d="M 396 993 L 395 992 L 392 990 L 386 995 L 384 995 L 379 990 L 372 993 L 368 997 L 367 1005 L 367 1012 L 369 1012 L 368 1011 L 368 1006 L 370 1001 L 370 1005 L 372 1012 L 372 1013 L 373 1013 L 373 1012 L 371 1006 L 373 1001 L 378 1002 L 383 1002 L 381 1007 L 380 1014 L 381 1014 L 381 1012 L 383 1008 L 385 1002 L 385 1009 L 387 1014 L 388 1014 L 387 1013 L 386 1008 L 387 1003 L 390 999 L 393 994 L 396 993 Z"/>
<rect width="300" height="300" style="fill: rgb(36, 78, 155);" y="2390" x="-100"/>
<path d="M -100 2535 L -10 2529 L 9 2512 L 21 2520 L 32 2509 L 52 2535 L 200 2537 L 200 2690 L -100 2690 L -100 2535 Z" style="fill: rgb(14, 33, 65);"/>
<rect width="300" height="153" style="fill: rgb(186, 139, 64);" y="2537" x="-100"/>
<path d="M 68 2539 L 87 2497 L 46 2390 L 129 2390 L 91 2510 L 106 2540 L 68 2539 Z" style="fill: rgb(154, 171, 206);"/>
<path d="M 68 2539 L 76 2527 L 81 2533 L 83 2525 L 88 2534 L 92 2519 L 96 2535 L 100 2527 L 106 2540 L 68 2539 Z" style="fill: rgb(199, 9, 8);"/>
<path d="M 68 2539 L 76 2530 L 82 2534 L 83 2530 L 88 2536 L 93 2528 L 95 2537 L 100 2532 L 106 2540 L 68 2539 Z" style="fill: rgb(249, 229, 26);"/>
<path d="M 69 2520 L 68 2519 L 70 2516 L 72 2519 L 71 2520 L 71 2533 L 76 2531 L 85 2533 L 87 2528 L 86 2526 L 89 2523 L 92 2526 L 91 2528 L 93 2533 L 103 2534 L 103 2523 L 104 2520 L 105 2523 L 106 2540 L 91 2541 L 90 2539 L 89 2539 L 88 2541 L 81 2541 L 68 2539 L 69 2520 Z" style="fill: rgb(72, 49, 14);"/>
<rect width="300" height="300" style="fill: rgb(72, 49, 14);" y="2080" x="-100"/>
<path d="M -100 2259 L 8 2245 L 2 2184 L 7 2183 L 15 2244 L 30 2242 L 59 2249 L 65 2188 L 70 2187 L 63 2250 L 87 2256 L 200 2241 L 200 2380 L -100 2380 L -100 2259 Z" style="fill: rgb(169, 126, 56);"/>
<path d="M 8 2258 L 33 2246 L 47 2243 L 62 2246 L 87 2261 L 53 2259 L 28 2262 L 8 2258 Z" style="fill: rgb(248, 228, 27);"/>
<path style="fill: none; stroke: rgb(223, 210, 179);" d="M 43 2185 L 43 2204 L 46 2221 L 46 2237"/>
<path d="M 200 2380 L -100 2380 L -100 2080 L 200 2080 L 200 2380 Z M 90 2272 L 102 2227 L 92 2196 L 80 2270 L 90 2272 Z M 25 2274 L 69 2271 L 72 2268 L 83 2194 L 72 2190 L 52 2194 L 29 2185 L 25 2188 L 22 2271 L 25 2274 Z M 5 2269 L 10 2274 L 13 2271 L 16 2188 L 13 2185 L 3 2188 L -7 2227 L 5 2269 Z" style="fill: rgb(187, 139, 64);"/>
<path d="M 13 2188 L 10 2186 L 3 2188 L -6 2219 L 8 2286 L -28 2314 L -13 2140 L 116 2162 L 123 2309 L 85 2272 L 90 2263 L 95 2227 L 92 2199 L 80 2270 L 80 2274 L 89 2277 L 54 2278 L 11 2285 L 9 2274 L 12 2271 L 13 2188 Z M 69 2271 L 72 2268 L 82 2194 L 72 2191 L 51 2192 L 26 2186 L 22 2188 L 22 2271 L 25 2274 L 54 2277 L 69 2271 Z M 14 2188 L 14 2271 L 11 2274 L 11 2283 L 50 2278 L 25 2274 L 21 2271 L 21 2188 L 26 2184 L 51 2190 L 72 2189 L 84 2194 L 72 2268 L 69 2271 L 56 2277 L 85 2277 L 79 2274 L 79 2270 L 92 2193 L 97 2227 L 90 2263 L 87 2272 L 121 2307 L 116 2162 L -13 2142 L -26 2312 L 6 2286 L -8 2219 L 3 2188 L 10 2184 L 14 2188 Z" style="fill: none;"/>
<path d="M 13 2188 L 10 2186 L 3 2188 L -6 2219 L 8 2286 L -28 2314 L -13 2140 L 116 2162 L 123 2309 L 85 2272 L 90 2263 L 95 2227 L 92 2199 L 80 2270 L 80 2274 L 89 2277 L 54 2278 L 11 2285 L 9 2274 L 12 2271 L 13 2188 Z M 69 2271 L 72 2268 L 82 2194 L 72 2191 L 51 2192 L 26 2186 L 22 2188 L 22 2271 L 25 2274 L 54 2277 L 69 2271 Z M 14 2188 L 14 2271 L 11 2274 L 11 2283 L 50 2278 L 25 2274 L 21 2271 L 21 2188 L 26 2184 L 51 2190 L 72 2189 L 84 2194 L 72 2268 L 69 2271 L 56 2277 L 85 2277 L 79 2274 L 79 2270 L 92 2193 L 97 2227 L 90 2263 L 87 2272 L 121 2307 L 116 2162 L -13 2142 L -26 2312 L 6 2286 L -8 2219 L 3 2188 L 10 2184 L 14 2188 Z" style="fill: none;"/>
<rect width="300" height="300" style="fill: rgb(51, 109, 217);" y="2700" x="-100"/>
<rect width="300" height="165" style="fill: rgb(27, 80, 54);" y="2835" x="-100"/>
<path d="M 171 2835 L -51 2835 L -6 2832 L 34 2823 L 40 2826 L 95 2814 L 171 2835 Z" style="fill: rgb(115, 128, 155);"/>
<path d="M 29 2835 L 6 2838 L -9 2836 L -1 2812 L 3 2831 L 7 2816 L 10 2829 L 16 2812 L 21 2829 L 24 2814 L 29 2835 Z" style="fill: rgb(17, 48, 32);"/>
<rect width="300" height="300" style="fill: rgb(59, 127, 255);" y="3010" x="-100"/>
<path d="M 140 3157 L -82 3157 L -37 3154 L 28 3141 L 43 3148 L 60 3135 L 140 3157 Z" style="fill: rgb(169, 126, 56);"/>
<rect width="300" height="153" style="fill: rgb(223, 210, 179);" y="3157" x="-100"/>
<path d="M 39 3171 L 32 3169 L 25 3170 L 31 3166 L 33 3137 L 29 3133 L 22 3131 L 27 3131 L 21 3124 L 26 3128 L 26 3125 L 27 3129 L 34 3135 L 41 3127 L 39 3131 L 43 3134 L 38 3132 L 35 3137 L 34 3166 L 39 3171 Z" style="fill: rgb(72, 49, 14);"/>
<path d="M 73 2554 L 93 2546 L 88 2541 L 89 2539 L 90 2539 L 91 2541 L 97 2546 L 84 2555 L 69 2690 L -87 2690 L 73 2554 Z" style="fill: rgb(169, 126, 56);"/>
<path d="M 95 2839 L 92 2846 L 72 2852 L 47 2848 L 37 2841 L 41 2837 L 49 2836 L 88 2837 L 95 2839 Z" style="fill: rgb(59, 127, 255);"/>
<path d="M 88 2840 L 73 2845 L 49 2840 L 49 2823 L 52 2813 L 54 2823 L 54 2830 L 63 2829 L 63 2811 L 66 2808 L 69 2811 L 69 2828 L 84 2829 L 84 2819 L 86 2811 L 88 2819 L 88 2840 Z" style="fill: rgb(154, 171, 206);"/>
<rect width="100" height="100" style="fill: rgb(187, 139, 64);" x="660" y="-110"/>
<path style="fill: rgb(223, 210, 179);" d="M 753 -78 L 753 -82 L 746 -86 L 738 -87 L 726 -74 L 719 -71 L 702 -79 L 677 -66 L 673 -56 L 673 -44 L 668 -18 L 668 -14 L 672 -14 L 670 -17 L 676 -39 L 683 -46 L 686 -38 L 687 -20 L 688 -17 L 691 -17 L 689 -20 L 689 -37 L 690 -50 L 703 -47 L 717 -48 L 716 -34 L 715 -14 L 719 -13 L 717 -18 L 720 -33 L 723 -47 L 727 -33 L 734 -16 L 738 -16 L 735 -19 L 730 -35 L 728 -49 L 738 -58 L 744 -77 L 753 -78 Z"/>
<rect width="100" height="100" style="fill: rgb(187, 139, 64);" x="330" y="-330"/>
<path style="fill: rgb(114, 78, 21);" d="M 357 -254 L 370 -238 L 365 -234 L 369 -233 L 374 -237 L 365 -253 L 357 -254 Z"/>
<path style="fill: rgb(114, 78, 21); transform-origin: 387.214px -214.414px;" d="M 406 -253 L 391 -238 L 396 -234 L 392 -233 L 387 -237 L 397 -252 L 406 -253 Z"/>
<path style="fill: rgb(223, 210, 179);" d="M 378 -304 L 372 -299 L 370 -289 L 374 -282 L 367 -277 L 370 -267 L 372 -254 L 360 -259 L 357 -254 L 366 -242 L 375 -241 L 380 -242 L 387 -241 L 395 -241 L 406 -253 L 402 -258 L 388 -253 L 390 -268 L 392 -277 L 386 -282 L 388 -290 L 385 -300 L 378 -304 Z"/>
<path style="fill: rgb(112, 76, 22);" d="M 375 -299 L 373 -294 L 376 -285 L 379 -283 L 383 -285 L 385 -294 L 382 -298 L 375 -299 Z"/>
<path style="fill: rgb(113, 77, 21);" d="M 367 -277 L 365 -258 L 376 -247 L 379 -239 L 379 -246 L 381 -244 L 378 -249 L 371 -259 L 371 -265 L 367 -277 Z"/>
<path style="fill: rgb(113, 77, 21);" d="M 392 -277 L 394 -258 L 388 -243 L 385 -235 L 385 -241 L 383 -240 L 386 -244 L 389 -257 L 389 -266 L 392 -277 Z"/>
<rect width="100" height="100" style="fill: rgb(187, 139, 64);" x="330" y="-440"/>
<path style="fill: rgb(113, 77, 21);" d="M 367 -388 L 366 -369 L 371 -369 L 371 -376 L 367 -388 Z"/>
<path style="fill: rgb(113, 77, 21);" d="M 392 -387 L 394 -368 L 387 -367 L 389 -376 L 392 -387 Z"/>
<path style="fill: rgb(114, 78, 21);" d="M 366 -362 L 371 -349 L 366 -345 L 370 -344 L 375 -348 L 371 -361 L 366 -362 Z"/>
<path style="fill: rgb(114, 78, 21); transform-origin: 388.214px -352.414px;" d="M 392 -357 L 388 -349 L 393 -345 L 388 -344 L 384 -348 L 387 -358 L 392 -357 Z"/>
<path style="fill: rgb(223, 210, 179);" d="M 378 -414 L 372 -409 L 370 -399 L 374 -392 L 367 -387 L 370 -377 L 370 -371 L 366 -374 L 362 -370 L 369 -350 L 376 -353 L 390 -350 L 397 -369 L 393 -373 L 388 -371 L 390 -378 L 392 -387 L 386 -392 L 388 -400 L 385 -410 L 378 -414 Z"/>
<path style="fill: rgb(112, 76, 22);" d="M 375 -409 L 373 -404 L 376 -395 L 379 -393 L 383 -395 L 385 -404 L 382 -408 L 375 -409 Z"/>
<path style="fill: rgb(72, 49, 14);" d="M 377 -254 L 372 -249 L 375 -246 L 379 -250 L 377 -254 Z"/>
<path style="fill: rgb(72, 49, 14);" d="M 392 -248 L 386 -250 L 385 -245 L 390 -244 L 392 -248 Z"/>
<ellipse style="fill: none; stroke: rgb(72, 49, 14);" cx="380" cy="-251" rx="1" ry="1"/>
<ellipse style="fill: none; stroke: rgb(72, 49, 14);" cx="384" cy="-248" rx="1" ry="1"/>
<ellipse style="fill: none; stroke: rgb(72, 49, 14);" cx="383" cy="-251" rx="1" ry="1"/>
<path style="fill: rgb(199, 9, 8); transform-origin: 559.353px -63.9943px;" d="M 552 -60 L 557 -55 L 568 -59 L 570 -65 L 566 -68 L 558 -68 L 552 -64 L 552 -60 Z"/>
<path style="fill: rgb(223, 210, 179); transform-origin: 562.853px -53.4943px;" d="M 558 -45 L 556 -57 L 560 -61 L 567 -62 L 573 -50 L 570 -43 L 566 -46 L 563 -39 L 558 -45 Z"/>
<path style="fill: rgb(112, 76, 22); transform-origin: 561.853px -55.9943px;" d="M 562 -57 L 558 -56 L 559 -50 L 563 -54 L 569 -54 L 566 -59 L 562 -57 Z"/>
<rect width="100" height="100" style="fill: rgb(187, 139, 64);" x="550" y="-220"/>
<path style="fill: rgb(114, 78, 21); transform-origin: 637.756px -128.702px;" d="M 632 -134 L 642 -127 L 641 -121 L 644 -122 L 645 -130 L 635 -137 L 632 -134 Z"/>
<path style="fill: rgb(114, 78, 21); transform-origin: 639.61px -153.046px;" d="M 631 -152 L 643 -152 L 648 -156 L 648 -152 L 644 -148 L 632 -147 L 631 -152 Z"/>
<path style="fill: rgb(33, 71, 141); transform-origin: 610.548px -144.128px;" d="M 591 -126 L 597 -135 L 635 -130 L 637 -137 L 631 -144 L 636 -146 L 639 -154 L 600 -153 L 600 -160 L 588 -155 L 582 -152 L 577 -145 L 582 -133 L 591 -126 Z"/>
<path style="fill: rgb(199, 9, 8); transform-origin: 603.271px -144.347px;" d="M 582 -133 L 597 -135 L 607 -133 L 626 -129 L 632 -134 L 614 -148 L 627 -150 L 625 -155 L 609 -154 L 600 -155 L 592 -146 L 580 -138 L 582 -133 Z"/>
<path style="fill: rgb(113, 77, 21); transform-origin: 602.916px -121.269px;" d="M 594 -132 L 597 -130 L 610 -127 L 613 -129 L 614 -127 L 617 -128 L 616 -124 L 611 -125 L 596 -125 L 592 -128 L 594 -132 Z"/>
<path style="fill: rgb(72, 49, 14); transform-origin: 604.002px -143.5px;" d="M 600 -134 L 604 -144 L 604 -154 L 609 -153 L 604 -133 L 600 -134 Z"/>
<path style="fill: rgb(113, 77, 21); transform-origin: 607.569px -147.682px;" d="M 600 -160 L 603 -158 L 618 -151 L 621 -143 L 618 -147 L 616 -145 L 615 -151 L 602 -153 L 598 -154 L 600 -160 Z"/>
<path style="fill: rgb(199, 9, 8); transform-origin: 561.517px -154.212px;" d="M 553 -151 L 558 -146 L 569 -150 L 571 -156 L 567 -159 L 559 -159 L 553 -155 L 553 -151 Z"/>
<path style="fill: rgb(223, 210, 179); transform-origin: 565.017px -143.712px;" d="M 559 -136 L 557 -148 L 561 -152 L 568 -153 L 574 -141 L 571 -134 L 567 -137 L 564 -130 L 559 -136 Z"/>
<path style="fill: rgb(112, 76, 22); transform-origin: 564.017px -146.212px;" d="M 563 -148 L 559 -147 L 560 -141 L 564 -145 L 570 -145 L 567 -150 L 563 -148 Z"/>
<rect width="100" height="100" style="fill: rgb(187, 139, 64);" x="990" y="-220"/>
<path style="fill: rgb(101, 101, 101); transform-origin: 1035.02px -163.712px;" d="M 1037 -154 L 1023 -160 L 1026 -173 L 1038 -184 L 1037 -154 Z"/>
<rect width="100" height="100" style="fill: rgb(187, 139, 64);" x="1210"/>
<path style="fill: rgb(151, 7, 5); transform-origin: 1259px 82.2575px;" d="M 1223 72 C 1237 56 1261 77 1289 69 C 1294 67 1302 86 1298 88 C 1261 98 1248 75 1227 93 C 1223 93 1220 75 1223 72 Z"/>
<path style="fill: rgb(199, 9, 8); transform-origin: 1259.1px 82.0255px;" d="M 1224 72 C 1237 57 1262 77 1288 70 C 1293 68 1300 86 1296 87 C 1262 97 1247 74 1227 91 C 1224 91 1221 74 1224 72 Z"/>
<path style="fill: rgb(112, 76, 22);" d="M 1270 30 L 1266 45 L 1272 43 L 1272 39 L 1273 37 L 1270 30 Z"/>
<path style="fill: rgb(113, 77, 21);" d="M 1283 79 L 1287 82 L 1289 78 L 1285 77 L 1283 79 Z"/>
<path style="fill: rgb(223, 210, 179);" d="M 1268 25 L 1274 30 L 1269 34 L 1268 44 L 1273 51 L 1272 70 L 1285 67 L 1288 74 L 1282 83 L 1271 84 L 1264 82 L 1261 73 L 1259 54 L 1260 47 L 1258 39 L 1261 29 L 1268 25 Z"/>
<path style="fill: rgb(113, 77, 21);" d="M 1262 53 L 1262 71 L 1275 81 L 1280 85 L 1279 81 L 1281 79 L 1277 79 L 1267 69 L 1270 54 L 1266 51 L 1262 53 Z"/>
<path style="fill: rgb(216, 216, 216); transform-origin: 1035.02px -163.712px;" d="M 1037 -154 L 1038 -184 L 1051 -173 L 1055 -159 L 1037 -154 Z"/>
<path style="fill: rgb(101, 101, 101);" d="M 567 -73 L 562 -71 L 557 -70 L 557 -74 L 560 -78 L 564 -76 L 567 -73 Z"/>
<path style="fill: rgb(69, 69, 69);" d="M 567 -73 L 562 -71 L 557 -70 L 561 -73 L 567 -73 Z"/>
<path style="fill: rgb(72, 49, 14);" d="M 41 682 L 52 683 L 53 684 L 39 683 L 41 682 Z"/>
<ellipse style="fill: rgb(199, 9, 8);" cx="42" cy="683" rx="1" ry="1"/>
<ellipse style="fill: rgb(199, 9, 8);" cx="44" cy="683" rx="1" ry="1"/>
<ellipse style="fill: rgb(199, 9, 8);" cx="47" cy="683" rx="1" ry="1"/>
<ellipse style="fill: rgb(199, 9, 8);" cx="50" cy="684" rx="1" ry="1"/>
<ellipse style="fill: rgb(199, 9, 8);" cx="48" cy="683" rx="1" ry="1"/>
<path style="fill: rgb(168, 126, 56);" d="M 39 683 L 53 684 L 52 690 L 39 688 L 39 683 Z"/>
<path style="fill: rgb(72, 49, 14);" d="M 34 685 L 39 684 L 41 686 L 33 686 L 34 685 Z"/>
<path style="fill: rgb(72, 49, 14);" d="M 50 689 L 54 687 L 56 689 L 50 689 Z"/>
<ellipse style="fill: rgb(199, 9, 8);" cx="43" cy="682" rx="1" ry="1"/>
<ellipse style="fill: rgb(248, 228, 27);" cx="36" cy="685" rx="1" ry="1"/>
<ellipse style="fill: rgb(248, 228, 27);" cx="37" cy="686" rx="1" ry="1"/>
<ellipse style="fill: rgb(248, 228, 27);" cx="35" cy="686" rx="1" ry="1"/>
<ellipse style="fill: rgb(8, 199, 78);" cx="54" cy="689" rx="1" ry="1"/>
<ellipse style="fill: rgb(8, 199, 78);" cx="52" cy="689" rx="1" ry="1"/>
<path style="fill: rgb(168, 126, 56);" d="M 50 689 L 56 689 L 55 693 L 51 693 L 50 689 Z"/>
<ellipse style="fill: rgb(248, 228, 27);" cx="39" cy="686" rx="1" ry="1"/>
<path style="fill: rgb(168, 126, 56);" d="M 33 686 L 41 686 L 40 690 L 34 690 L 33 686 Z"/>
<ellipse style="fill: rgb(8, 199, 78);" cx="53" cy="688" rx="1" ry="1"/>
<rect width="300" height="300" style="fill: rgb(14, 33, 65);" y="1150" x="-100"/>
<path d="M -100 1295 L 16 1276 L 41 1285 L 91 1280 L 200 1294 L 200 1450 L -100 1450 L -100 1295 Z" style="fill: rgb(8, 19, 38);"/>
<rect width="300" height="153" style="fill: rgb(119, 89, 38);" y="1297" x="-100"/>
<path style="fill: rgb(114, 78, 21);" d="M 36 1300 L 36 1289 L 37 1290 L 36 1300 Z"/>
<path style="fill: rgb(208, 180, 116);" d="M 49 1302 L 76 1304 L 62 1288 L 49 1302 Z"/>
<path style="fill: rgb(114, 78, 21);" d="M 59 1307 L 60 1286 L 62 1285 L 61 1307 L 59 1307 Z"/>
<path style="fill: rgb(223, 210, 179);" d="M 26 1302 L 36 1291 C 41 1294 49 1290 62 1288 L 45 1308 L 26 1302 Z"/>
<circle style="fill: rgb(255, 255, 255);" cx="88" cy="1264" r="6"/>
<circle style="fill: rgb(14, 33, 65);" cx="85" cy="1266" r="6"/>
<rect width="100" height="100" style="fill: rgb(187, 139, 64);" x="990"/>
<path style="fill: rgb(70, 47, 15);" d="M 1047 90 L 1045 96 L 1061 93 L 1047 90 Z"/>
<path d="M 1009 84 L 1015 35 L 1035 20 L 1058 35 L 1061 93 L 1009 84 Z" style="fill: rgb(216, 216, 216);"/>
<path d="M 1067 33 L 1047 20 L 1035 20 L 1058 35 L 1061 93 L 1071 89 L 1067 33 Z" style="fill: rgb(101, 101, 101);"/>
<circle style="fill: rgb(101, 101, 101);" cx="1026" cy="46" r="4"/>
<circle style="fill: rgb(101, 101, 101);" cx="1045" cy="47" r="4"/>
<path d="M 1051 68 L 1034 65 L 1019 65 L 1016 74 L 1034 72 L 1054 78 L 1051 68 Z" style="fill: rgb(101, 101, 101);"/>
<path d="M 1034 62 L 1040 61 L 1035 47 L 1029 60 L 1034 62 Z" style="fill: rgb(101, 101, 101);"/>
<rect width="100" height="100" style="fill: rgb(187, 139, 64);" x="990" y="-110"/>
<path d="M 1009 -26 L 1015 -75 L 1035 -90 L 1058 -75 L 1061 -17 L 1009 -26 Z" style="fill: rgb(101, 101, 101);"/>
<path d="M 1067 -77 L 1047 -90 L 1035 -90 L 1058 -75 L 1061 -17 L 1071 -21 L 1067 -77 Z" style="fill: rgb(216, 216, 216);"/>
<circle style="fill: rgb(216, 216, 216);" cx="1026" cy="-64" r="4"/>
<circle style="fill: rgb(216, 216, 216);" cx="1045" cy="-63" r="4"/>
<path d="M 1051 -42 L 1034 -45 L 1019 -45 L 1016 -36 L 1034 -38 L 1054 -32 L 1051 -42 Z" style="fill: rgb(216, 216, 216);"/>
<path d="M 1034 -48 L 1040 -49 L 1035 -63 L 1029 -50 L 1034 -48 Z" style="fill: rgb(216, 216, 216);"/>
<rect width="100" height="100" style="fill: rgb(70, 47, 15);" x="1100"/>
<path style="fill: rgb(248, 227, 28);" d="M 1161 87 L 1160 84 C 1170 80 1167 85 1161 87 Z M 1149 91 L 1147 94 L 1156 94 L 1154 91 L 1160 89 C 1172 85 1172 78 1160 82 L 1159 80 L 1151 73 L 1144 80 L 1142 84 L 1128 79 L 1130 81 L 1144 89 L 1149 91 Z"/>
<path style="fill: rgb(34, 71, 141);" d="M 1151 71 L 1141 50 L 1140 36 L 1134 41 L 1134 52 L 1136 56 L 1133 54 L 1131 60 L 1129 51 L 1130 38 L 1139 27 L 1147 23 L 1150 17 L 1150 9 L 1157 5 L 1163 10 L 1161 19 L 1162 27 L 1171 32 L 1174 47 L 1170 60 L 1165 67 L 1165 62 L 1161 63 L 1165 59 L 1167 46 L 1164 39 L 1156 56 L 1151 71 Z"/>
<rect width="100" height="100" style="fill: rgb(187, 139, 64);" x="1540" y="-109"/>
<path style="fill: rgb(223, 210, 179);" d="M 1622 -37 L 1630 -37 L 1631 -34 L 1626 -34 L 1622 -37 Z"/>
<path style="fill: rgb(111, 75, 22);" d="M 1622 -37 L 1551 -38 L 1556 -39 L 1622 -39 L 1630 -39 L 1630 -37 L 1622 -37 Z"/>
<path style="fill: rgb(223, 210, 179);" d="M 1630 -39 L 1622 -39 L 1626 -42 L 1631 -42 L 1630 -39 Z"/>
<path style="fill: rgb(111, 75, 22);" d="M 1622 -57 L 1551 -58 L 1556 -59 L 1622 -59 L 1626 -61 L 1631 -61 L 1630 -58 L 1631 -55 L 1626 -55 L 1622 -57 Z"/>
<rect width="100" height="100" style="fill: rgb(187, 139, 64);" x="550" y="-440"/>
<path style="fill: rgb(101, 101, 101); transform-origin: 592.102px -378.836px;" d="M 634 -369 L 568 -369 L 575 -395 L 601 -416 L 627 -395 L 634 -369 Z"/>
<ellipse style="fill: rgb(69, 69, 69);" cx="601" cy="-369" rx="33" ry="5"/>
<rect width="100" height="100" style="fill: rgb(187, 139, 64);" x="990" y="-330"/>
<path style="fill: rgb(70, 47, 15);" d="M 1047 -240 L 1045 -234 L 1061 -237 L 1047 -240 Z"/>
<path d="M 1009 -246 L 1015 -295 L 1035 -310 L 1058 -295 L 1061 -237 L 1009 -246 Z" style="fill: rgb(216, 216, 216);"/>
<path d="M 1067 -297 L 1047 -310 L 1035 -310 L 1058 -295 L 1061 -237 L 1071 -241 L 1067 -297 Z" style="fill: rgb(101, 101, 101);"/>
<path style="transform-box: fill-box; transform-origin: 50% 50%; fill: rgb(101, 101, 101);" d="M 1022 -277 L 1027 -276 L 1034 -278 L 1030 -276 L 1034 -275 L 1042 -277 L 1036 -274 L 1039 -274 L 1047 -275 L 1042 -273 L 1046 -270 L 1055 -271 L 1056 -261 C 1056 -261 1051 -267 1051 -267 C 1051 -268 1045 -267 1045 -267 L 1042 -264 L 1044 -259 L 1052 -258 L 1041 -255 L 1039 -263 L 1035 -266 L 1030 -258 L 1032 -268 L 1030 -269 L 1026 -261 L 1028 -270 L 1026 -272 L 1021 -266 L 1024 -273 L 1018 -277 L 1017 -285 L 1027 -292 L 1042 -282 L 1026 -285 L 1021 -283 L 1022 -277 Z" transform="matrix(0, -1, 1, 0, 0.000012, 0.00003)"/>
<rect width="100" height="100" style="fill: rgb(187, 139, 64);" x="770" y="-110"/>
<path style="fill: rgb(72, 49, 14);" d="M 787 -66 L 796 -64 L 807 -67 L 801 -63 L 807 -62 L 820 -66 L 811 -61 L 801 -52 L 793 -39 L 797 -54 L 793 -57 L 785 -47 L 790 -59 L 781 -65 L 779 -79 L 796 -90 L 820 -74 L 793 -79 L 785 -76 L 787 -66 Z"/>
<path style="fill: rgb(72, 49, 14);" d="M 824 -50 L 835 -60 L 850 -62 L 840 -58 L 847 -53 L 862 -55 L 864 -38 C 864 -38 856 -48 856 -49 C 856 -50 845 -49 845 -49 L 840 -44 L 844 -35 L 857 -34 L 839 -29 L 836 -42 L 829 -47 L 820 -33 L 824 -50 Z"/>
<path d="M -310 2490 L -210 2490 L -210 2590 L -310 2590 L -310 2490 Z M -410 2690 L -110 2690 L -110 2390 L -410 2390 L -410 2690 Z" style="fill: rgba(0, 0, 0, 0.78);"/>
<rect width="300" height="300" style="fill: rgb(59, 127, 255);" y="1770" x="210"/>
<circle style="fill: rgb(248, 227, 28);" cx="389" cy="1876" r="4"/>
<path d="M 210 1925 L 325 1908 L 354 1922 L 401 1917 L 510 1940 L 510 2070 L 210 2070 L 210 1925 Z" style="fill: rgb(36, 78, 155);"/>
<path d="M 210 1917 C 271 1902 392 1958 510 1935 L 510 2070 L 210 2070 L 210 1917 Z" style="fill: rgb(185, 139, 64);"/>
<rect width="100" height="19" style="fill: url('#gradient-2');" y="1948" x="310"/>
<path d="M 320 1946 L 210 1946 L 210 2070 L 510 2070 L 510 1946 L 400 1946 L 360 1966 L 320 1946 Z" style="fill: rgb(186, 139, 64);"/>
<rect width="100" height="100" style="fill: rgb(187, 139, 64);" x="880" y="-220"/>
<path style="fill: rgb(114, 78, 21); transform-origin: 907.842px -159.526px;" d="M 906 -161 L 923 -166 L 913 -173 L 902 -170 L 888 -171 L 881 -166 L 881 -164 L 888 -167 L 903 -165 L 889 -162 L 884 -155 L 887 -154 L 892 -159 L 906 -161 Z"/>
<path style="fill: rgb(70, 47, 15); transform-origin: 940.842px -167.526px;" d="M 977 -176 L 968 -179 L 959 -176 L 950 -178 L 922 -176 L 904 -173 L 916 -162 L 930 -164 L 951 -163 L 959 -165 L 970 -165 L 978 -170 L 977 -176 Z"/>
<path style="fill: rgb(70, 47, 15); transform-origin: 934.085px -152.049px;" d="M 933 -150 L 942 -147 L 941 -144 L 932 -148 L 933 -150 Z"/>
<path style="fill: rgb(216, 216, 216); transform-origin: 956px -145px;" d="M 942 -144 L 972 -132 L 977 -135 L 974 -138 L 943 -147 L 947 -151 C 947 -151 944 -152 944 -152 L 940 -146 L 939 -139 L 941 -138 L 942 -144 Z"/>
<rect width="100" height="100" style="fill: rgb(187, 139, 64);" x="1650" y="1"/>
<path style="fill: rgb(12, 199, 79);" d="M 1687 19 L 1706 11 C 1713 37 1736 25 1746 48 L 1718 65 L 1687 19 Z"/>
<path style="fill: rgb(8, 140, 54);" d="M 1683 86 C 1680 87 1680 85 1679 83 L 1660 33 C 1659 31 1659 29 1661 28 L 1685 18 C 1686 18 1686 18 1687 19 L 1718 61 C 1719 62 1719 65 1717 66 L 1683 86 Z"/>
<path style="fill: rgb(12, 199, 79);" d="M 1661 28 L 1685 18 L 1717 62 L 1682 82 L 1661 28 Z"/>
<path style="fill: rgb(6, 102, 40);" d="M 1684 84 C 1682 85 1682 84 1683 83 L 1715 64 C 1717 63 1717 65 1715 66 L 1684 84 Z"/>
<rect width="100" height="100" style="fill: rgb(187, 139, 64);" x="1650" y="-109"/>
<path d="M 1659 -64 L 1736 -64 C 1735 -65 1735 -40 1739 -33 C 1697 -43 1684 -25 1666 -39 C 1659 -44 1659 -64 1659 -64 Z" style="fill: rgb(6, 102, 39);"/>
<rect x="1666" y="-75" width="70" height="22" style="fill: rgb(12, 199, 79);"/>
<ellipse style="fill: rgb(7, 140, 54);" cx="1666" cy="-64" rx="7" ry="11"/>
<ellipse style="fill: rgb(12, 199, 79);" cx="1736" cy="-64" rx="7" ry="11"/>
<ellipse style="fill: rgb(6, 102, 39);" cx="1666" cy="-64" rx="5" ry="8"/>
<path style="fill: rgb(239, 239, 239);" d="M 1666 41 L 1691 26 L 1696 33 L 1672 56 L 1666 41 Z"/>
<path style="fill: rgb(239, 239, 239);" d="M 1698 34 L 1713 24 L 1723 30 L 1707 46 L 1698 34 Z"/>
<path style="fill: rgb(113, 77, 21); transform-origin: 929.363px -202.054px;" d="M 949 -174 L 937 -168 L 928 -156 L 922 -152 L 923 -148 L 927 -153 L 927 -150 L 929 -153 L 940 -163 L 954 -166 L 949 -174 Z"/>
<path style="fill: rgb(101, 101, 101);" d="M 967 -153 L 962 -151 L 957 -150 L 957 -154 L 960 -158 L 964 -156 L 967 -153 Z"/>
<path style="fill: rgb(69, 69, 69);" d="M 967 -153 L 962 -151 L 957 -150 L 961 -153 L 967 -153 Z"/>
<rect width="100" height="100" style="fill: rgb(187, 139, 64);" x="880" y="-330"/>
<path style="fill: rgb(216, 216, 216);" d="M 930 -256 L 949 -313 L 943 -322 L 938 -317 L 924 -258 L 915 -266 C 915 -266 915 -260 915 -260 L 926 -253 L 940 -251 L 941 -255 L 930 -256 Z"/>
<path style="fill: rgb(70, 47, 15);" d="M 919 -237 L 924 -255 L 929 -253 L 923 -236 L 919 -237 Z"/>
<rect width="100" height="100" style="fill: rgb(187, 139, 64);" x="330" y="-550"/>
<path style="fill: rgb(72, 49, 14);" d="M 363 -518 L 344 -499 L 356 -488 L 371 -503 L 363 -518 Z"/>
<path style="fill: rgb(72, 49, 14);" d="M 420 -495 L 397 -503 L 393 -484 L 412 -480 L 420 -495 Z"/>
<ellipse style="fill: none; stroke: rgb(72, 49, 14); stroke-width: 4px;" cx="374" cy="-507" rx="4" ry="4"/>
<ellipse style="fill: none; stroke: rgb(72, 49, 14); stroke-width: 4px;" cx="390" cy="-495" rx="4" ry="4"/>
<ellipse style="fill: none; stroke: rgb(72, 49, 14); stroke-width: 4px;" cx="386" cy="-507" rx="4" ry="4"/>
<rect width="100" height="100" style="fill: rgb(187, 139, 64);" x="1320" y="1"/>
<path style="fill: rgb(115, 79, 21);" d="M 1387 50 L 1380 50 L 1377 41 L 1384 39 L 1387 50 Z"/>
<path style="fill: rgb(114, 78, 21);" d="M 1356 84 L 1358 70 L 1367 72 L 1363 84 L 1364 85 L 1363 97 L 1353 98 L 1357 93 L 1354 85 L 1356 84 Z"/>
<path style="fill: rgb(114, 78, 21);" d="M 1374 84 L 1369 73 L 1377 70 L 1381 84 L 1383 85 L 1379 93 L 1383 99 L 1373 97 L 1373 85 L 1374 84 Z"/>
<path style="fill: rgb(77, 51, 16);" d="M 1340 65 L 1338 56 L 1335 57 L 1337 54 L 1340 53 L 1343 54 L 1340 55 L 1342 64 L 1340 65 Z"/>
<path style="fill: rgb(115, 79, 21);" d="M 1342 56 L 1349 50 L 1352 40 L 1359 41 L 1355 53 L 1343 59 L 1341 61 L 1340 58 L 1338 59 L 1338 57 L 1342 56 Z"/>
<path style="fill: rgb(77, 51, 16);" d="M 1353 33 L 1363 25 L 1371 25 L 1382 32 L 1387 40 L 1378 43 L 1377 56 L 1383 77 L 1371 80 L 1368 74 L 1366 80 L 1354 76 L 1358 57 L 1358 43 L 1348 42 L 1353 33 Z"/>
<path style="fill: rgb(77, 51, 16);" d="M 1359 23 L 1361 14 L 1367 8 L 1373 14 L 1375 23 L 1367 28 L 1359 23 Z"/>
<path style="fill: rgb(241, 134, 76);" d="M 1363 25 L 1363 15 L 1371 15 L 1371 25 L 1367 28 L 1363 25 Z"/>
<path style="fill: rgb(216, 216, 216);" d="M 1337 54 L 1330 17 L 1332 10 L 1340 53 L 1337 54 Z"/>
<ellipse style="fill: rgb(216, 216, 216);" cx="1385" cy="59" rx="16" ry="16"/>
<ellipse style="fill: rgb(101, 101, 101);" cx="1385" cy="59" rx="7" ry="7"/>
<path style="fill: rgb(116, 80, 20);" d="M 1339 63 L 1337 59 L 1340 58 L 1341 62 L 1339 63 Z"/>
</svg>